<svg width="170" height="206" viewBox="0 0 170 206" fill="none" xmlns="http://www.w3.org/2000/svg">
<path d="M18.97 176.617L15.89 177.702C15.61 175.917 14.105 173.467 10.64 173.467C7.84 173.467 5.845 175.287 5.845 177.597C5.845 179.382 6.93 180.747 9.03 181.202L12.74 182.007C16.87 182.917 19.18 185.507 19.18 188.972C19.18 192.822 15.89 196.322 10.605 196.322C4.62 196.322 1.785 192.472 1.33 188.937L4.62 187.887C4.865 190.652 6.825 193.207 10.57 193.207C14 193.207 15.68 191.422 15.68 189.252C15.68 187.467 14.455 185.927 11.97 185.402L8.435 184.632C4.9 183.862 2.38 181.552 2.38 177.842C2.38 173.957 5.985 170.457 10.57 170.457C16.17 170.457 18.41 173.922 18.97 176.617ZM30.2753 181.482C27.6153 181.482 25.1653 183.442 25.1653 187.362C25.1653 191.212 27.5803 193.277 30.3103 193.277C33.4603 193.277 34.6153 191.142 35.0003 189.812L37.9053 191.072C37.1003 193.487 34.6853 196.322 30.3103 196.322C25.4103 196.322 21.8053 192.472 21.8053 187.362C21.8053 182.112 25.4803 178.437 30.2753 178.437C34.7553 178.437 37.0653 181.237 37.7653 183.792L34.7903 185.052C34.3703 183.407 33.1453 181.482 30.2753 181.482ZM51.1098 178.787V182.287C50.6198 182.217 50.1298 182.182 49.6748 182.182C46.9098 182.182 45.0548 183.652 45.0548 187.362V195.797H41.7648V178.962H44.9848V181.902C46.2098 179.312 48.3098 178.682 50.0248 178.682C50.4798 178.682 50.9348 178.752 51.1098 178.787ZM53.5664 191.282C53.5664 188.272 55.7714 186.592 58.6764 186.172L63.2264 185.507C64.2414 185.367 64.5214 184.842 64.5214 184.247C64.5214 182.602 63.4364 181.237 60.8814 181.237C58.5714 181.237 57.2764 182.672 57.0664 184.632L53.9164 183.897C54.2664 180.677 57.1714 178.437 60.8114 178.437C65.8514 178.437 67.8114 181.307 67.8114 184.597V193.032C67.8114 194.502 67.9514 195.377 68.0214 195.797H64.8014C64.7314 195.377 64.6264 194.747 64.6264 193.522C63.8914 194.712 62.2114 196.322 59.2014 196.322C55.7714 196.322 53.5664 193.942 53.5664 191.282ZM59.6564 193.557C62.3514 193.557 64.5214 192.262 64.5214 188.587V187.817L59.3764 188.587C57.9764 188.797 56.9264 189.602 56.9264 191.107C56.9264 192.367 57.9764 193.557 59.6564 193.557ZM76.1917 202.447H72.9367V178.962H76.1217V181.587C77.0317 179.907 79.0267 178.577 81.7567 178.577C86.7967 178.577 89.4917 182.462 89.4917 187.362C89.4917 192.367 86.5867 196.252 81.6517 196.252C79.0617 196.252 77.1017 195.027 76.1917 193.522V202.447ZM86.1317 187.362C86.1317 184.002 84.2417 181.482 81.1617 181.482C78.1517 181.482 76.1567 184.002 76.1567 187.362C76.1567 190.827 78.1517 193.312 81.1617 193.312C84.2067 193.312 86.1317 190.827 86.1317 187.362ZM92.1088 191.422L95.0838 190.372C95.2938 192.122 96.6238 193.522 99.0038 193.522C100.859 193.522 101.874 192.472 101.874 191.282C101.874 190.232 101.104 189.427 99.7038 189.112L96.8338 188.482C94.2088 187.922 92.6338 186.137 92.6338 183.757C92.6338 180.887 95.3288 178.437 98.6188 178.437C103.239 178.437 104.674 181.447 105.024 182.952L102.119 184.037C101.979 183.162 101.279 181.237 98.6188 181.237C96.9388 181.237 95.8188 182.322 95.8188 183.477C95.8188 184.492 96.4488 185.227 97.7438 185.507L100.474 186.102C103.519 186.767 105.129 188.622 105.129 191.107C105.129 193.487 103.134 196.322 98.9688 196.322C94.3488 196.322 92.3888 193.347 92.1088 191.422ZM112.799 186.067V195.797H109.509V178.962H112.729V181.377C113.954 179.277 115.949 178.472 117.909 178.472C121.934 178.472 123.929 181.377 123.929 185.122V195.797H120.639V185.682C120.639 183.337 119.659 181.447 116.719 181.447C114.129 181.447 112.799 183.512 112.799 186.067ZM128.112 191.282C128.112 188.272 130.317 186.592 133.222 186.172L137.772 185.507C138.787 185.367 139.067 184.842 139.067 184.247C139.067 182.602 137.982 181.237 135.427 181.237C133.117 181.237 131.822 182.672 131.612 184.632L128.462 183.897C128.812 180.677 131.717 178.437 135.357 178.437C140.397 178.437 142.357 181.307 142.357 184.597V193.032C142.357 194.502 142.497 195.377 142.567 195.797H139.347C139.277 195.377 139.172 194.747 139.172 193.522C138.437 194.712 136.757 196.322 133.747 196.322C130.317 196.322 128.112 193.942 128.112 191.282ZM134.202 193.557C136.897 193.557 139.067 192.262 139.067 188.587V187.817L133.922 188.587C132.522 188.797 131.472 189.602 131.472 191.107C131.472 192.367 132.522 193.557 134.202 193.557ZM150.738 202.447H147.483V178.962H150.668V181.587C151.578 179.907 153.573 178.577 156.303 178.577C161.343 178.577 164.038 182.462 164.038 187.362C164.038 192.367 161.133 196.252 156.198 196.252C153.608 196.252 151.648 195.027 150.738 193.522V202.447ZM160.678 187.362C160.678 184.002 158.788 181.482 155.708 181.482C152.698 181.482 150.703 184.002 150.703 187.362C150.703 190.827 152.698 193.312 155.708 193.312C158.753 193.312 160.678 190.827 160.678 187.362Z" fill="white"/>
<path d="M46.2694 92.3368H73.5253C74.1277 92.3368 74.7054 92.5761 75.1314 93.0021C75.5573 93.4281 75.7966 94.0058 75.7966 94.6082V121.591C75.7966 122.194 75.5573 122.772 75.1314 123.198C74.7054 123.623 74.1277 123.863 73.5253 123.863H51.766C49.4362 123.86 47.1459 123.26 45.114 122.12C43.082 120.98 41.3763 119.339 40.1596 117.352L32.7929 105.018L46.2694 92.3368Z" fill="#E6E6E6"/>
<path d="M123.313 92.3444L109.768 67.2917C109.591 66.9583 109.482 66.593 109.448 66.2171C109.414 65.8412 109.454 65.4622 109.568 65.1022C109.681 64.7421 109.865 64.4083 110.109 64.12C110.352 63.8317 110.651 63.5947 110.987 63.4229L134.079 51.7332C134.736 51.39 135.502 51.3199 136.211 51.5382C136.92 51.7565 137.514 52.2455 137.864 52.8991L148.547 72.6521C149.641 74.6874 150.189 76.9715 150.137 79.2816C150.085 81.5917 149.436 83.849 148.252 85.8333L142.195 96.0088L123.313 92.3444Z" fill="#E6E6E6"/>
<path d="M83.7084 18.0419L69.1038 42.504C68.9115 42.826 68.6565 43.1062 68.3539 43.3278C68.0512 43.5494 67.7072 43.708 67.3421 43.7941C66.9771 43.8803 66.5984 43.8922 66.2287 43.8293C65.8589 43.7663 65.5056 43.6298 65.1896 43.4277L43.294 29.5953C42.6722 29.202 42.2289 28.5809 42.0591 27.865C41.8893 27.149 42.0065 26.3951 42.3855 25.7644L53.8784 6.51113C55.0643 4.52687 56.7444 2.88399 58.7547 1.74281C60.7651 0.601637 63.0369 0.00116408 65.3486 0H76.1298L83.7084 18.0419Z" fill="#E6E6E6"/>
<path d="M62.0551 75.4079C62.2407 75.8471 62.2882 76.3324 62.1911 76.7993C62.0941 77.2661 61.8572 77.6923 61.5119 78.0211C61.1666 78.35 60.7293 78.5658 60.2583 78.64C59.7873 78.7142 59.3049 78.6432 58.8753 78.4363L54.8929 76.2862L39.8719 104.178C38.7918 106.219 38.2512 108.501 38.3016 110.81C38.3519 113.118 38.9915 115.375 40.1596 117.367L21.3833 85.9241C20.1755 83.9151 19.5129 81.6255 19.4611 79.2819C19.4093 76.9382 19.9701 74.6217 21.088 72.5612L27.1449 61.3181L23.1777 59.1755C22.7411 58.956 22.387 58.6016 22.1679 58.1648C21.9488 57.7281 21.8763 57.2323 21.9614 56.7512C22.0464 56.27 22.2843 55.829 22.6398 55.4938C22.9953 55.1586 23.4494 54.9469 23.9348 54.8903L49.207 50.7186C49.691 50.6381 50.188 50.7209 50.6198 50.9539C51.0516 51.1869 51.3936 51.557 51.5919 52.0057L62.0551 75.4079Z" fill="white"/>
<path d="M93.1723 33.926L83.7084 18.0267L76.849 6.51113C75.6522 4.53846 73.9707 2.90466 71.9644 1.76503C69.9581 0.625398 67.6937 0.0178062 65.3864 2.23148e-06H101.993C104.337 -0.00134399 106.641 0.606447 108.68 1.7638C110.718 2.92115 112.421 4.58835 113.622 6.60198L120.284 17.7996L124.161 15.4753C124.579 15.2418 125.06 15.1435 125.537 15.194C126.014 15.2444 126.463 15.441 126.824 15.7569C127.185 16.0728 127.439 16.4925 127.552 16.9585C127.664 17.4245 127.63 17.914 127.454 18.3599L118.058 42.1709C117.883 42.6303 117.559 43.0177 117.137 43.2715C116.716 43.5254 116.222 43.631 115.734 43.5715L90.3028 40.5431C89.8271 40.4838 89.3812 40.2793 89.0258 39.9574C88.6705 39.6355 88.423 39.212 88.3171 38.7444C88.2112 38.2768 88.2519 37.7879 88.4339 37.3443C88.6158 36.9008 88.93 36.524 89.3337 36.2655L93.1723 33.926Z" fill="white"/>
<path d="M148.229 85.8333L129.46 117.284C128.263 119.296 126.561 120.962 124.523 122.116C122.485 123.27 120.181 123.872 117.839 123.863H105.059V128.405C105.051 128.886 104.893 129.351 104.607 129.738C104.322 130.124 103.924 130.412 103.467 130.561C103.011 130.71 102.519 130.713 102.061 130.569C101.602 130.426 101.2 130.143 100.91 129.761L85.2529 109.478C84.9527 109.091 84.7897 108.616 84.7897 108.126C84.7897 107.637 84.9527 107.161 85.2529 106.775L100.895 86.4995C101.19 86.1194 101.594 85.8394 102.054 85.6976C102.514 85.5559 103.006 85.5593 103.464 85.7075C103.922 85.8557 104.322 86.1413 104.612 86.5256C104.901 86.9098 105.065 87.374 105.082 87.8548V92.3974H136.789C139.098 92.3709 141.361 91.7538 143.364 90.6047C145.366 89.4557 147.041 87.8131 148.229 85.8333Z" fill="white"/>
<path d="M84.7835 153.875C118.741 153.875 146.268 152.831 146.268 151.543C146.268 150.255 118.741 149.211 84.7835 149.211C50.8264 149.211 23.2988 150.255 23.2988 151.543C23.2988 152.831 50.8264 153.875 84.7835 153.875Z" fill="#E0E0E0"/>
</svg>
