<svg width="330" height="294" viewBox="0 0 330 294" fill="none" xmlns="http://www.w3.org/2000/svg">
<path d="M271.999 21.2776H193.463C193.463 21.2776 201.252 0 213.241 0C225.23 0 228.986 14.6895 228.986 14.6895C228.986 14.6895 237.038 6.69913 243.682 6.69913C250.326 6.69913 256.108 17.2442 256.108 17.2442C256.108 17.2442 265.494 11.6003 271.999 21.2776Z" fill="#EBEBEB"/>
<path d="M106.457 44.3392H69.7405C69.7405 44.3392 77.9461 32.4543 84.4092 32.4543C90.8723 32.4543 92.8022 40.3753 92.8022 40.3753C92.8022 40.3753 97.3701 36.6821 101.591 37.3416C105.812 38.0011 106.457 44.3392 106.457 44.3392Z" fill="#EBEBEB"/>
<path d="M315.359 73.4059H278.642C278.642 73.4059 286.848 61.5418 293.311 61.5418C299.774 61.5418 301.683 69.4697 301.683 69.4697C301.683 69.4697 306.251 65.7695 310.472 66.429C314.693 67.0885 315.359 73.4059 315.359 73.4059Z" fill="#EBEBEB"/>
<path d="M86.1586 74.1278H14.6549C14.6549 74.1278 24.4502 52.2602 34.9259 50.8926C45.4015 49.525 50.4137 67.1371 50.4137 67.1371C50.4137 67.1371 57.1684 60.8892 62.486 60.8892C67.8037 60.8892 71.8995 69.0878 71.8995 69.0878C71.8995 69.0878 82.514 63.4925 86.1586 74.1278Z" fill="#EBEBEB"/>
<path d="M40.5351 131.49C40.5351 131.49 55.1135 163.924 31.2743 163.924C7.43508 163.924 22.8882 130.387 22.8882 130.387C22.8882 130.387 17.3692 127.957 23.7699 109.866C30.1705 91.7747 33.0306 91.7747 35.6825 91.7747C39.0425 91.7747 42.1664 99.6054 39.8478 111.629C39.8756 111.629 48.2616 126.631 40.5351 131.49Z" fill="#EBEBEB"/>
<path d="M29.157 185.431L31.4548 136.572L33.7527 185.431H29.157Z" fill="#A6A6A6"/>
<path d="M30.5176 157.058L39.1813 146.944L32.385 158.398L30.5176 157.058Z" fill="#A6A6A6"/>
<path d="M286.487 134.975C286.487 134.975 279.691 132.282 274.297 141.661C268.743 151.289 275.685 157.628 281.204 153.851C281.204 153.851 285.515 162.876 294.144 160.758C302.773 158.641 304.175 151.692 304.175 151.692C304.175 151.692 311.812 152.233 312.048 146.52C312.284 140.807 306.619 135.732 306.619 135.732C306.619 135.732 306.3 121.494 297.025 121.598C287.75 121.702 286.487 134.975 286.487 134.975Z" fill="#DBDBDB"/>
<path d="M292.776 185.431L294.72 143.07L296.657 185.431H292.776Z" fill="#A6A6A6"/>
<path d="M293.887 158.474L288.188 147.103L295.546 157.475L293.887 158.474Z" fill="#A6A6A6"/>
<path d="M240.544 293.165C282.266 293.165 316.088 287.558 316.088 280.642C316.088 273.725 282.266 268.118 240.544 268.118C198.822 268.118 165 273.725 165 280.642C165 287.558 198.822 293.165 240.544 293.165Z" fill="#EBEBEB"/>
<path d="M330 243.717H0V250.131H330V243.717Z" fill="#C7C7C7"/>
<path d="M23.1381 243.717C23.6563 245.823 23.6563 248.024 23.1381 250.131C22.6102 248.026 22.6102 245.822 23.1381 243.717Z" fill="#263238"/>
<path d="M48.928 243.717C49.4559 245.822 49.4559 248.026 48.928 250.131C48.6486 249.086 48.5177 248.006 48.5393 246.924C48.5246 245.842 48.6553 244.763 48.928 243.717Z" fill="#263238"/>
<path d="M74.7526 243.717C75.0253 244.763 75.156 245.842 75.1413 246.924C75.1594 248.006 75.0286 249.085 74.7526 250.131C74.2247 248.026 74.2247 245.822 74.7526 243.717Z" fill="#263238"/>
<path d="M100.515 243.717C101.043 245.822 101.043 248.026 100.515 250.131C100.235 249.086 100.104 248.006 100.126 246.924C100.111 245.842 100.242 244.763 100.515 243.717Z" fill="#263238"/>
<path d="M126.312 243.717C126.584 244.763 126.715 245.842 126.7 246.924C126.722 248.006 126.591 249.086 126.312 250.131C125.784 248.026 125.784 245.822 126.312 243.717Z" fill="#263238"/>
<path d="M152.102 243.717C152.629 245.822 152.629 248.026 152.102 250.131C151.822 249.086 151.691 248.006 151.713 246.924C151.698 245.842 151.829 244.763 152.102 243.717Z" fill="#263238"/>
<path d="M177.898 243.717C178.171 244.763 178.302 245.842 178.287 246.924C178.309 248.006 178.178 249.086 177.898 250.131C177.371 248.026 177.371 245.822 177.898 243.717Z" fill="#263238"/>
<path d="M203.688 243.717C204.216 245.822 204.216 248.026 203.688 250.131C203.409 249.086 203.278 248.006 203.3 246.924C203.285 245.842 203.416 244.763 203.688 243.717Z" fill="#263238"/>
<path d="M229.485 243.717C229.758 244.763 229.889 245.842 229.874 246.924C229.896 248.006 229.765 249.086 229.485 250.131C228.957 248.026 228.957 245.822 229.485 243.717Z" fill="#263238"/>
<path d="M255.247 243.717C255.775 245.822 255.775 248.026 255.247 250.131C254.971 249.085 254.841 248.006 254.859 246.924C254.844 245.842 254.975 244.763 255.247 243.717Z" fill="#263238"/>
<path d="M281.072 243.717C281.345 244.763 281.476 245.842 281.461 246.924C281.482 248.006 281.352 249.086 281.072 250.131C280.544 248.026 280.544 245.822 281.072 243.717Z" fill="#263238"/>
<path d="M306.862 243.717C307.39 245.822 307.39 248.026 306.862 250.131C306.344 248.024 306.344 245.823 306.862 243.717Z" fill="#263238"/>
<path d="M0 243.717L29.254 232.54H307.778L330 243.717H0Z" fill="#DBDBDB"/>
<path d="M127.86 185.313H153.303L181.564 232.54H98.7723L127.86 185.313Z" fill="#DBDBDB"/>
<path d="M98.7723 232.54L109.123 232.415L119.474 232.345L140.168 232.283L160.863 232.345L171.213 232.415L181.564 232.54L171.213 232.672L160.863 232.741L140.168 232.804L119.474 232.741L109.123 232.672L98.7723 232.54Z" fill="#C7C7C7"/>
<path d="M174.532 220.794L165.965 220.919L157.398 220.995L140.272 221.051L123.139 220.995L114.573 220.919L106.006 220.794L114.573 220.669L123.139 220.592L140.272 220.53L157.398 220.592L165.965 220.669L174.532 220.794Z" fill="#C7C7C7"/>
<path d="M168.339 210.436L161.348 210.561L154.351 210.637L140.362 210.7L126.374 210.637L119.376 210.561L112.386 210.436L119.376 210.311L126.374 210.235L140.362 210.179L154.351 210.235L161.348 210.311L168.339 210.436Z" fill="#C7C7C7"/>
<path d="M162.549 200.766C158.863 200.87 155.184 200.925 151.498 200.967L140.446 201.023L129.394 200.967C125.708 200.925 122.028 200.877 118.342 200.766C122.028 200.655 125.708 200.606 129.394 200.564L140.446 200.509L151.498 200.564C155.184 200.606 158.863 200.662 162.549 200.766Z" fill="#C7C7C7"/>
<path d="M158.231 193.553C155.274 193.657 152.324 193.713 149.373 193.754L140.508 193.81L131.678 193.754C128.721 193.713 125.77 193.664 122.813 193.553C125.77 193.442 128.721 193.393 131.678 193.352L140.536 193.296L149.401 193.352C152.324 193.393 155.281 193.442 158.231 193.553Z" fill="#C7C7C7"/>
<path d="M154.92 188.013C152.525 188.117 150.13 188.173 147.735 188.214C145.34 188.256 142.952 188.214 140.557 188.27C138.162 188.326 135.767 188.27 133.379 188.214C130.991 188.159 128.589 188.124 126.194 188.013C128.589 187.902 130.984 187.853 133.379 187.812C135.774 187.77 138.162 187.77 140.557 187.756C142.952 187.742 145.347 187.756 147.735 187.812C150.123 187.867 152.504 187.888 154.92 188.013Z" fill="#C7C7C7"/>
<path d="M94.9195 232.54H57.4738C57.4738 232.54 57.5571 226.986 61.2433 225.493C62.2394 225.057 63.3503 224.957 64.4084 225.207C65.4666 225.458 66.4146 226.046 67.1094 226.882C67.1094 226.882 68.6089 216.635 75.4746 216.635C82.3404 216.635 85.6171 225.48 85.6171 225.48C85.6171 225.48 87.1513 222.807 90.9625 223.3C94.7737 223.793 94.9195 232.54 94.9195 232.54Z" fill="#37474F"/>
<path d="M307.501 232.54C307.501 232.54 306.355 227.187 304.064 226.361C301.773 225.535 300.371 227.937 300.371 227.937C300.371 227.937 299.837 222.821 296.581 221.294C293.325 219.766 290.895 222.897 290.895 222.897C290.895 222.897 288.396 216.399 283.953 216.399C279.51 216.399 277.247 225.903 277.247 225.903C277.247 225.903 274.623 223.071 271.922 224.667C269.222 226.264 269.229 232.54 269.229 232.54H307.501Z" fill="#37474F"/>
<path d="M64.1867 232.54H29.6289C29.6289 232.54 30.7605 227.68 33.0514 227.333C35.3423 226.986 36.4113 229.242 36.4113 229.242C36.4113 229.242 36.3072 222.453 40.5766 221.294C44.846 220.134 48.4351 226.153 48.4351 226.153C48.4351 226.153 51.1217 222.731 54.7732 222.953C58.4248 223.175 59.355 228.819 59.355 228.819C59.355 228.819 62.715 226.847 64.1867 232.54Z" fill="#455A64"/>
<path d="M271.686 232.54H250.471C250.471 232.54 250.52 229.388 252.609 228.548C253.175 228.302 253.806 228.246 254.406 228.39C255.006 228.535 255.543 228.87 255.935 229.346C255.935 229.346 256.782 223.536 260.669 223.536C264.557 223.536 266.417 228.548 266.417 228.548C266.748 228.071 267.21 227.7 267.747 227.48C268.284 227.261 268.874 227.203 269.444 227.312C271.603 227.597 271.686 232.54 271.686 232.54Z" fill="#455A64"/>
<path d="M144.188 87.8524L147.568 113.719L155.795 113.031V90.7611L144.188 87.8524Z" fill="#455A64"/>
<path d="M127.096 122.487V176.552H41.9303V129.602L127.096 122.487Z" fill="#37474F"/>
<path d="M155.795 120.092V176.552H127.096V122.487L155.795 120.092Z" fill="#455A64"/>
<path d="M127.096 122.216C129.491 122.153 131.879 122.105 134.274 122.084L141.446 122.042L148.624 122.084C151.012 122.084 153.407 122.153 155.795 122.216C153.407 122.285 151.012 122.327 148.624 122.355L141.446 122.389L134.274 122.348C131.879 122.327 129.491 122.278 127.096 122.216Z" fill="#37474F"/>
<path d="M127.096 125.291C129.491 125.229 131.879 125.18 134.274 125.159L141.446 125.118H148.624C151.012 125.118 153.407 125.187 155.795 125.256C153.407 125.319 151.012 125.368 148.624 125.388L141.446 125.43L134.274 125.409C131.879 125.409 129.491 125.354 127.096 125.291Z" fill="#37474F"/>
<path d="M127.096 128.36C129.491 128.297 131.879 128.248 134.274 128.228L141.446 128.186L148.624 128.228C151.012 128.228 153.407 128.297 155.795 128.36C153.407 128.422 151.012 128.471 148.624 128.491L141.446 128.533L134.274 128.491C131.879 128.471 129.491 128.422 127.096 128.36Z" fill="#37474F"/>
<path d="M127.096 131.428C129.491 131.366 131.879 131.324 134.274 131.296H141.446H148.624C151.012 131.296 153.407 131.366 155.795 131.428C153.407 131.497 151.012 131.539 148.624 131.567H141.446H134.274C131.879 131.539 129.491 131.497 127.096 131.428Z" fill="#37474F"/>
<path d="M127.096 134.503C129.491 134.441 131.879 134.392 134.274 134.371L141.446 134.33L148.624 134.371C151.012 134.371 153.407 134.441 155.795 134.503C153.407 134.566 151.012 134.614 148.624 134.635L141.446 134.677L134.274 134.635C131.879 134.614 129.491 134.566 127.096 134.503Z" fill="#37474F"/>
<path d="M127.096 137.572C129.491 137.509 131.879 137.461 134.274 137.44L141.446 137.398L148.624 137.44C151.012 137.44 153.407 137.509 155.795 137.572C153.407 137.641 151.012 137.683 148.624 137.704L141.446 137.745L134.274 137.704C131.879 137.683 129.491 137.634 127.096 137.572Z" fill="#37474F"/>
<path d="M127.096 140.682C129.491 140.612 131.879 140.571 134.274 140.55L141.446 140.508L148.624 140.543C151.012 140.543 153.407 140.612 155.795 140.682C153.407 140.744 151.012 140.793 148.624 140.814L141.446 140.855L134.274 140.814C131.879 140.751 129.491 140.682 127.096 140.682Z" fill="#37474F"/>
<path d="M127.096 143.715C129.491 143.653 131.879 143.604 134.274 143.584L141.446 143.542L148.624 143.584C151.012 143.584 153.407 143.653 155.795 143.715C153.407 143.778 151.012 143.827 148.624 143.847L141.446 143.889L134.274 143.847C131.879 143.827 129.491 143.778 127.096 143.715Z" fill="#37474F"/>
<path d="M127.096 146.784C129.491 146.721 131.879 146.68 134.274 146.652L141.446 146.61L148.624 146.652C151.012 146.652 153.407 146.721 155.795 146.784C153.407 146.853 151.012 146.895 148.624 146.923H141.446H134.274C131.879 146.93 129.491 146.853 127.096 146.784Z" fill="#37474F"/>
<path d="M127.096 149.859C129.491 149.797 131.879 149.748 134.274 149.727L141.446 149.686L148.624 149.727C151.012 149.727 153.407 149.797 155.795 149.859C153.407 149.922 151.012 149.97 148.624 149.991L141.446 150.033L134.274 149.991C131.879 149.97 129.491 149.922 127.096 149.859Z" fill="#37474F"/>
<path d="M127.096 152.928C129.491 152.865 131.879 152.817 134.274 152.796L141.446 152.754L148.624 152.796C151.012 152.796 153.407 152.865 155.795 152.928C153.407 152.99 151.012 153.039 148.624 153.06L141.446 153.101L134.274 153.06C131.879 153.039 129.491 152.99 127.096 152.928Z" fill="#37474F"/>
<path d="M127.096 156.003C129.491 155.934 131.879 155.892 134.274 155.864L141.446 155.829L148.624 155.864C151.012 155.864 153.407 155.934 155.795 156.003C153.407 156.066 151.012 156.107 148.624 156.135L141.446 156.177L134.274 156.135C131.879 156.107 129.491 156.066 127.096 156.003Z" fill="#37474F"/>
<path d="M127.096 159.071C129.491 159.009 131.879 158.96 134.274 158.94L141.446 158.898L148.624 158.94C151.012 158.94 153.407 159.009 155.795 159.071C153.407 159.134 151.012 159.183 148.624 159.203L141.446 159.245L134.274 159.203C131.879 159.183 129.491 159.134 127.096 159.071Z" fill="#37474F"/>
<path d="M127.096 162.14C129.491 162.077 131.879 162.036 134.274 162.008L141.446 161.966L148.624 162.008C151.012 162.008 153.407 162.077 155.795 162.14C153.407 162.209 151.012 162.251 148.624 162.279L141.446 162.313L134.274 162.279C131.879 162.251 129.491 162.202 127.096 162.14Z" fill="#37474F"/>
<path d="M127.096 165.215C129.491 165.153 131.879 165.104 134.274 165.083L141.446 165.042L148.624 165.083C151.012 165.083 153.407 165.153 155.795 165.215C153.407 165.278 151.012 165.326 148.624 165.347L141.446 165.389L134.274 165.347C131.879 165.326 129.491 165.278 127.096 165.215Z" fill="#37474F"/>
<path d="M127.096 168.284C129.491 168.221 131.879 168.173 134.274 168.152L141.446 168.11L148.624 168.152C151.012 168.152 153.407 168.221 155.795 168.284C153.407 168.346 151.012 168.395 148.624 168.416L141.446 168.457L134.274 168.45C131.879 168.395 129.491 168.346 127.096 168.284Z" fill="#37474F"/>
<path d="M127.096 171.359C129.491 171.29 131.879 171.248 134.274 171.22L141.446 171.185L148.624 171.22C151.012 171.22 153.407 171.29 155.795 171.359C153.407 171.421 151.012 171.463 148.624 171.491L141.446 171.533L134.274 171.491C131.879 171.463 129.491 171.421 127.096 171.359Z" fill="#37474F"/>
<path d="M127.096 174.427C129.491 174.365 131.879 174.316 134.274 174.295L141.446 174.254L148.624 174.295C151.012 174.295 153.407 174.365 155.795 174.427C153.407 174.49 151.012 174.538 148.624 174.559L141.446 174.601L134.274 174.559C131.879 174.538 129.491 174.49 127.096 174.427Z" fill="#37474F"/>
<path d="M28.1017 130.762V123.701L155.795 113.031V120.091L28.1017 130.762Z" fill="#263238"/>
<path d="M41.9304 133.448V129.602L28.1017 130.762L41.9304 133.448Z" fill="#37474F"/>
<path d="M111.81 135.218H57.2169V160.175H111.81V135.218Z" fill="#263238"/>
<path d="M74.7388 137.343H59.3273V158.058H74.7388V137.343Z" fill="#455A64"/>
<path d="M92.219 137.343H76.8075V158.058H92.219V137.343Z" fill="#455A64"/>
<path d="M109.706 137.343H94.2947V158.058H109.706V137.343Z" fill="#455A64"/>
<g opacity="0.1">
<path d="M71.8647 137.343L59.3273 149.88V143.021L65.0059 137.343H71.8647Z" fill="white"/>
<path d="M109.699 149.887V156.739L108.387 158.051H101.528L109.699 149.887Z" fill="white"/>
<path d="M62.8192 158.051L74.7319 146.138V149.568L66.2486 158.051H62.8192Z" fill="white"/>
<path d="M86.957 137.343L76.8076 147.492V144.063L83.5276 137.343H86.957Z" fill="white"/>
<path d="M109.699 142.501V145.93L97.5783 158.051H94.2947V157.905L109.699 142.501Z" fill="white"/>
<path d="M81.7365 158.051L92.219 147.568V148.429L82.5973 158.051H81.7365Z" fill="white"/>
<path d="M103.306 137.343L94.2947 146.353V145.493L102.445 137.343H103.306Z" fill="white"/>
<path d="M59.5078 158.051L74.7319 142.827V143.681L60.3617 158.051H59.5078Z" fill="white"/>
<path d="M81.0701 137.343L76.8076 141.605V140.751L80.2162 137.343H81.0701Z" fill="white"/>
</g>
<path d="M150.553 135.218H132.337V176.552H150.553V135.218Z" fill="#263238"/>
<path d="M136.558 157.572H133.177V158.509H136.558V157.572Z" fill="#DBDBDB"/>
<path d="M148.179 137.343H134.712V156.642H148.179V137.343Z" fill="#37474F"/>
<path d="M147.943 159.127H134.476V174.108H147.943V159.127Z" fill="#37474F"/>
<g opacity="0.1">
<path d="M148.179 138.169V145.028L136.565 156.642H134.712V151.636L148.179 138.169Z" fill="white"/>
<path d="M147.784 159.127L134.476 172.435V169.006L144.354 159.127H147.784Z" fill="white"/>
<path d="M148.179 155.302V156.642H146.839L148.179 155.302Z" fill="white"/>
<path d="M142.619 137.343L134.712 145.25V141.82L139.189 137.343H142.619Z" fill="white"/>
<path d="M147.943 161.661V162.522L136.357 174.108H135.496L147.943 161.661Z" fill="white"/>
</g>
<path d="M155.795 176.552V90.7611L262.641 117.592V176.552H155.795Z" fill="#263238"/>
<path d="M276.893 121.174L144.188 87.8524V80.5979L276.893 113.92V121.174Z" fill="#263238"/>
<path d="M262.641 117.592V124.18L276.893 121.175L262.641 117.592Z" fill="#455A64"/>
<path d="M181.085 100.862V135.218H159.28V95.3846L181.085 100.862Z" fill="#455A64"/>
<path d="M181.078 138.807H159.28V172.97H181.078V138.807Z" fill="#455A64"/>
<path d="M206.819 107.325V135.218H185.007V101.848L206.819 107.325Z" fill="#455A64"/>
<path d="M206.812 138.807H185.007V172.97H206.812V138.807Z" fill="#455A64"/>
<path d="M232.547 113.781V135.218H210.742V108.311L232.547 113.781Z" fill="#455A64"/>
<path d="M232.54 138.807H210.742V172.97H232.54V138.807Z" fill="#455A64"/>
<path d="M258.274 120.244V135.218H236.469V114.767L258.274 120.244Z" fill="#455A64"/>
<path d="M258.274 138.807H236.469V172.97H258.274V138.807Z" fill="#455A64"/>
<g opacity="0.1">
<path d="M169.151 97.8629L159.28 107.735V100.876L163.667 96.4884L169.151 97.8629Z" fill="white"/>
<path d="M258.274 157.607V164.466L249.77 172.97H242.911L258.274 157.607Z" fill="white"/>
<path d="M198.218 172.97L206.812 164.375V171.234L205.077 172.97H198.218Z" fill="white"/>
<path d="M232.54 138.807V145.5L210.742 167.305V160.446L232.373 138.807H232.54Z" fill="white"/>
<path d="M236.469 138.807H239.232L236.469 141.57V138.807Z" fill="white"/>
<path d="M257.899 120.14L242.821 135.218H236.469V134.712L252.415 118.766L257.899 120.14Z" fill="white"/>
<path d="M159.28 163.431L181.085 141.626V145.055L159.28 166.861V163.431Z" fill="white"/>
<path d="M185.007 138.807H187.333L185.007 141.133V138.807Z" fill="white"/>
<path d="M187.492 135.218L206.812 115.899V119.328L190.922 135.218H187.492Z" fill="white"/>
<path d="M216.406 109.734L210.742 115.399V111.969L213.664 109.047L216.406 109.734Z" fill="white"/>
<path d="M181.085 100.862V103.194L159.28 125V121.577L180.217 100.64L181.085 100.862Z" fill="white"/>
<path d="M189.381 172.97L206.812 155.545V158.967L192.81 172.97H189.381Z" fill="white"/>
<path d="M226.972 138.807L210.742 155.038V151.616L223.55 138.807H226.972Z" fill="white"/>
<path d="M227.139 135.218L232.54 129.817V133.24L230.561 135.218H227.139Z" fill="white"/>
<path d="M248.097 117.683L236.469 129.311V125.888L245.362 116.995L248.097 117.683Z" fill="white"/>
<path d="M221.127 172.97L232.54 161.557V162.418L221.988 172.97H221.127Z" fill="white"/>
<path d="M256.15 138.807L236.469 158.488V157.628L255.289 138.807H256.15Z" fill="white"/>
<path d="M175.42 138.807H176.281L159.28 155.802V154.955L175.42 138.807Z" fill="white"/>
<path d="M179.009 135.218L181.085 133.143V134.004L179.87 135.218H179.009Z" fill="white"/>
<path d="M206.812 107.415V108.276L185.007 130.081V129.22L206.812 107.415Z" fill="white"/>
</g>
<path d="M278.656 180.995H26.3314V185.438H278.656V180.995Z" fill="#C7C7C7"/>
<path d="M272.804 176.552H32.1906V180.995H272.804V176.552Z" fill="#C7C7C7"/>
<path d="M32.1906 180.995V179.884L272.804 178.773V180.995H32.1906Z" fill="#A6A6A6"/>
<path d="M218.718 110.692H211.79V280.211H218.718V110.692Z" fill="#DBDBDB"/>
<path d="M218.718 113.462V156.628L211.79 156.371V113.205L218.718 113.462Z" fill="#C7C7C7"/>
<path d="M248.146 115.371H182.355V153.712H248.146V115.371Z" fill="#EBEBEB"/>
<path d="M245.001 118.613H185.5V150.463H245.001V118.613Z" fill="#8FDEBE"/>
<path opacity="0.1" d="M245.001 118.613H185.5V150.463H245.001V118.613Z" fill="black"/>
<path d="M203.64 138.995C203.689 140.209 203.324 141.403 202.605 142.383C202.123 143.051 201.432 143.539 200.641 143.771C200.124 143.918 199.588 143.988 199.051 143.979C198.059 144.015 197.083 143.722 196.274 143.146C195.634 142.667 195.131 142.028 194.816 141.293C194.431 140.444 194.207 139.53 194.157 138.599L196.885 138.398C196.913 139.273 197.22 140.117 197.76 140.807C197.904 140.979 198.087 141.116 198.292 141.208C198.498 141.299 198.722 141.343 198.947 141.334C199.256 141.325 199.557 141.235 199.82 141.073C200.083 140.911 200.299 140.683 200.446 140.411C200.658 140.027 200.757 139.592 200.731 139.154C200.687 138.263 200.302 137.423 199.655 136.808L197.114 134.392C196.322 133.673 195.641 132.84 195.094 131.921C194.67 131.097 194.453 130.182 194.462 129.255C194.413 128.509 194.547 127.762 194.85 127.079C195.154 126.396 195.618 125.797 196.205 125.333C196.981 124.778 197.918 124.495 198.871 124.527C199.791 124.506 200.699 124.747 201.488 125.222C202.073 125.587 202.551 126.099 202.876 126.707C203.241 127.385 203.456 128.133 203.508 128.901L200.766 129.401C200.722 128.739 200.48 128.105 200.072 127.582C199.931 127.423 199.756 127.299 199.56 127.218C199.364 127.137 199.152 127.103 198.94 127.117C198.695 127.108 198.452 127.168 198.24 127.291C198.027 127.414 197.854 127.594 197.739 127.811C197.505 128.235 197.39 128.715 197.406 129.199C197.453 130.189 197.852 131.129 198.53 131.851C198.914 132.294 199.34 132.698 199.801 133.059C200.495 133.615 200.905 134.003 201.12 134.226C201.755 134.843 202.304 135.544 202.751 136.308C202.912 136.601 203.056 136.902 203.182 137.211C203.439 137.773 203.595 138.378 203.64 138.995Z" fill="white"/>
<path d="M210.499 124.5C211.095 124.5 211.685 124.617 212.236 124.845C212.787 125.073 213.287 125.408 213.709 125.829C214.131 126.251 214.465 126.752 214.693 127.302C214.921 127.853 215.039 128.444 215.039 129.04V139.404C215.039 140.303 214.772 141.181 214.273 141.928C213.774 142.675 213.064 143.257 212.234 143.601C211.404 143.944 210.49 144.033 209.609 143.857C208.728 143.681 207.919 143.248 207.284 142.612C206.859 142.194 206.523 141.694 206.297 141.143C206.07 140.592 205.957 140 205.965 139.404V129.04C205.965 127.837 206.443 126.683 207.293 125.832C208.143 124.981 209.296 124.502 210.499 124.5ZM212.054 128.984C212.059 128.769 212.019 128.555 211.938 128.356C211.857 128.156 211.736 127.975 211.582 127.825C211.272 127.518 210.854 127.347 210.419 127.347C209.983 127.347 209.565 127.518 209.256 127.825C209.099 127.974 208.974 128.154 208.891 128.353C208.807 128.553 208.766 128.768 208.77 128.984V139.397C208.766 139.614 208.807 139.829 208.891 140.028C208.974 140.228 209.099 140.408 209.256 140.557C209.565 140.863 209.983 141.035 210.419 141.035C210.854 141.035 211.272 140.863 211.582 140.557C211.736 140.406 211.857 140.226 211.938 140.026C212.019 139.827 212.059 139.613 212.054 139.397V128.984Z" fill="white"/>
<path d="M225.396 143.715H217.573V124.715H220.433V140.841H225.396V143.715Z" fill="white"/>
<path d="M236.33 139.175C236.339 139.771 236.228 140.362 236.002 140.913C235.777 141.464 235.442 141.964 235.018 142.383C234.608 142.811 234.114 143.15 233.567 143.379C233.02 143.609 232.432 143.723 231.839 143.715H227.34V124.715H231.839C232.433 124.705 233.023 124.818 233.571 125.048C234.12 125.277 234.615 125.618 235.025 126.048C235.447 126.464 235.781 126.962 236.005 127.511C236.229 128.059 236.34 128.648 236.33 129.241V139.175ZM230.2 140.883H231.929C232.144 140.887 232.357 140.846 232.555 140.761C232.753 140.676 232.93 140.549 233.074 140.39C233.226 140.239 233.345 140.059 233.426 139.861C233.507 139.664 233.548 139.452 233.546 139.238V129.297C233.55 129.081 233.509 128.867 233.427 128.668C233.344 128.468 233.222 128.288 233.067 128.137C232.922 127.981 232.746 127.858 232.55 127.774C232.353 127.69 232.142 127.648 231.929 127.651H230.2V140.883Z" fill="white"/>
<path d="M222.994 279.968C224.556 280.461 270.249 279.475 271.915 278.358C272.561 277.948 268.646 234.671 268.646 234.671L239.669 235.226L242.96 264.175C242.96 264.175 226.104 272.158 224.397 273.575C222.689 274.991 221.425 279.524 222.994 279.968Z" fill="#AD6359"/>
<path d="M222.994 279.975C224.556 280.461 270.249 279.475 271.915 278.358C272.117 278.233 272.179 273.838 271.45 268.118C263.168 269.506 233.595 274.047 231.29 272.693C229.687 271.749 231.11 270.27 232.422 269.277C228.645 271.159 225.126 272.971 224.397 273.581C222.703 274.991 221.432 279.524 222.994 279.975Z" fill="#263238"/>
<path d="M242.148 257.233L270.61 256.83C270.61 256.83 264.973 188.693 265.209 187.409C265.508 185.729 285.689 106.589 285.689 106.589H258.524C258.524 106.589 237.115 180.349 236.309 187.458C235.115 198.912 242.148 257.233 242.148 257.233Z" fill="#AD6359"/>
<path d="M257.115 280.079C258.677 280.565 304.37 279.579 306.043 278.469C306.681 278.052 304.293 234.733 304.293 234.733L275.699 235.289L277.087 264.265C277.087 264.265 260.232 272.249 258.524 273.672C256.816 275.095 255.553 279.593 257.115 280.079Z" fill="#AD6359"/>
<path d="M257.115 280.079C258.677 280.565 304.37 279.579 306.036 278.462C306.237 278.337 306.196 274.06 306.036 268.215C297.747 269.604 267.715 274.151 265.411 272.797C263.807 271.853 265.23 270.374 266.542 269.382C262.766 271.263 259.246 273.075 258.517 273.686C256.823 275.095 255.553 279.6 257.115 280.079Z" fill="#263238"/>
<path d="M256.865 275.393C257.331 274.373 258.132 273.542 259.135 273.04C260.378 272.346 261.662 271.7 262.932 271.068C264.203 270.437 265.529 269.749 266.986 269.097C267.063 269.097 267.118 269.097 267.042 269.152C265.811 269.773 264.613 270.456 263.453 271.2C262.307 271.895 261.127 272.526 259.982 273.172C258.897 273.645 257.98 274.433 257.351 275.435C256.842 276.527 256.543 277.704 256.469 278.906C256.469 279.003 256.393 278.996 256.393 278.906C256.328 277.716 256.488 276.524 256.865 275.393Z" fill="#455A64"/>
<path d="M259.413 106.554C259.413 106.554 260.197 119.536 263.3 129.79C263.55 130.637 263.821 131.47 264.112 132.268C266.85 133.337 269.485 134.652 271.985 136.197C271.985 136.197 273.942 185.847 273.908 188.957C273.776 200.495 276.726 256.684 276.726 256.684L305.411 256.407C305.411 256.407 302.454 192.845 302.454 188.617C302.454 181.828 296.435 106.568 296.435 106.568L259.413 106.554Z" fill="#AD6359"/>
<path d="M258.524 106.568H296.4C299.436 115.348 300.134 124.767 298.427 133.899L303.71 205.125C303.71 205.125 278.129 208.978 262.426 208.978C246.723 208.978 235.601 203.799 235.601 203.799C235.601 203.799 235.497 191.762 235.941 187.34C236.386 182.918 258.524 106.568 258.524 106.568Z" fill="#263238"/>
<path d="M285.036 150.401V150.498H285.925V150.401H285.036ZM283.169 149.262C283.466 149.257 283.763 149.233 284.057 149.193V148.589C283.763 148.638 283.466 148.665 283.169 148.672V149.262Z" fill="#C7C7C7"/>
<path d="M287.577 146.992V150.463H285.925V150.401H285.036V150.498H283.169V149.262C283.466 149.257 283.763 149.233 284.057 149.193V149.609H286.688V147.881H284.057V148.575C283.763 148.624 283.466 148.651 283.169 148.658V146.978L287.577 146.992Z" fill="#C7C7C7"/>
<path d="M285.925 150.401H285.036V160.307H285.925V150.401Z" fill="#C7C7C7"/>
<path d="M285.48 159.599H283.28V160.321H285.48V159.599Z" fill="#C7C7C7"/>
<path d="M285.48 158.433H283.28V159.155H285.48V158.433Z" fill="#C7C7C7"/>
<path d="M279.35 149.651L279.309 149.741L280.128 150.102L280.163 150.019L279.35 149.651ZM278.24 147.568C278.469 147.756 278.719 147.936 278.969 148.103L279.219 147.554C278.971 147.387 278.739 147.199 278.524 146.992L278.24 147.568Z" fill="#8FDEBE"/>
<path d="M280.163 150.019L280.121 150.102L276.115 159.064L275.303 158.703V158.697L275.595 158.044L275.775 157.634L276.074 156.982L279.309 149.741L279.35 149.651L280.163 150.019Z" fill="#8FDEBE"/>
<path d="M276.026 158.213L274.017 157.315L273.722 157.974L275.731 158.872L276.026 158.213Z" fill="#8FDEBE"/>
<path d="M276.495 157.152L274.486 156.253L274.191 156.912L276.2 157.811L276.495 157.152Z" fill="#8FDEBE"/>
<path d="M282.953 134.496C281.434 134.497 279.952 134.965 278.709 135.839C277.465 136.712 276.522 137.948 276.006 139.377C275.491 140.806 275.429 142.36 275.829 143.826C276.228 145.292 277.07 146.598 278.24 147.568C278.469 147.756 278.719 147.936 278.969 148.103C279.717 148.58 280.545 148.921 281.412 149.109L281.655 148.554C280.785 148.384 279.957 148.044 279.219 147.554C278.971 147.387 278.739 147.199 278.524 146.992C277.48 146.084 276.738 144.878 276.397 143.536C276.057 142.194 276.134 140.78 276.619 139.483C277.104 138.186 277.974 137.069 279.111 136.28C280.249 135.491 281.6 135.068 282.985 135.068C284.369 135.068 285.721 135.491 286.858 136.28C287.996 137.069 288.865 138.186 289.35 139.483C289.835 140.78 289.913 142.194 289.572 143.536C289.232 144.878 288.49 146.084 287.445 146.992H287.605V147.624C288.797 146.667 289.662 145.364 290.082 143.894C290.501 142.424 290.454 140.86 289.946 139.419C289.439 137.977 288.496 136.728 287.248 135.845C286.001 134.962 284.51 134.489 282.981 134.489L282.953 134.496ZM284.057 148.589C283.763 148.638 283.466 148.665 283.169 148.672H282.579L282.315 149.241C282.53 149.241 282.738 149.241 282.953 149.241H283.169C283.466 149.236 283.763 149.213 284.057 149.172C284.986 149.026 285.879 148.705 286.688 148.228V147.86H286.133C285.487 148.219 284.785 148.465 284.057 148.589Z" fill="#EBEBEB"/>
<path d="M283.057 147.582L282.578 148.672L282.315 149.241L281.62 150.776L280.121 150.081L280.156 149.998L279.343 149.63L279.302 149.72L277.601 148.957L278.233 147.568C278.462 147.756 278.712 147.936 278.962 148.103L278.774 148.526L281.176 149.602L281.405 149.109L281.648 148.554L281.884 148.027L279.482 146.93L279.218 147.534C278.971 147.367 278.739 147.178 278.524 146.971L279.066 145.763L283.057 147.582Z" fill="#8FDEBE"/>
<path d="M255.379 81.0699C255.782 81.0699 257.677 81.0282 260.44 80.9866C261.822 78.0737 262.259 74.8019 261.69 71.6286C261.579 70.9344 263.474 75.0372 263.016 80.9519C268.361 80.8686 275.636 80.7575 281.988 80.5978C281.988 78.1126 282.155 75.8147 282.155 75.8147C282.417 77.433 282.823 79.0245 283.37 80.5701L285.911 80.5006C285.735 76.978 285.753 73.4484 285.966 69.9278C286.571 73.5859 287.772 77.1201 289.521 80.3896C293.554 80.2438 296.199 80.0772 296.025 79.8897C289.653 73.1351 293.943 68.9351 291.985 62.8469C289.611 55.5438 283.203 54.5996 283.176 49.0459C283.141 44.5336 283.384 36.328 277.622 34.8007C276.02 33.3532 274.028 32.4094 271.893 32.0871C269.759 31.7649 267.576 32.0785 265.619 32.9889C256.754 36.7862 260.857 50.5593 260.357 53.4056C259.663 57.4806 257.774 58.9593 256.518 63.6452C255.261 68.3311 257.483 71.3787 257.844 74.5374C258.205 77.696 254.366 81.0977 255.379 81.0699Z" fill="#263238"/>
<path d="M296.164 78.897C295.292 77.7122 294.591 76.4105 294.082 75.0303C293.666 73.6555 293.614 72.1967 293.929 70.7956C294.195 69.3114 294.385 67.8146 294.498 66.311C294.598 64.7414 294.386 63.1676 293.873 61.6806C293.322 60.2 292.438 58.8655 291.291 57.7791C290.177 56.755 288.978 55.8262 287.709 55.0023C286.483 54.2019 285.368 53.2451 284.39 52.156C283.449 51.0213 282.837 49.6503 282.62 48.1921C282.617 49.7267 283.082 51.2257 283.953 52.4892C284.861 53.7146 285.947 54.7979 287.174 55.7034C288.347 56.5875 289.462 57.5452 290.513 58.5705C291.508 59.5757 292.275 60.7832 292.763 62.111C293.21 63.4521 293.408 64.8639 293.346 66.2763C293.346 67.7202 293.11 69.185 292.971 70.6845C292.896 71.4504 292.878 72.2207 292.915 72.9893C292.981 73.7758 293.185 74.5444 293.519 75.2594C294.178 76.6194 295.073 77.8512 296.164 78.897Z" fill="#263238"/>
<path d="M260.732 38.3898C260.172 40.1508 259.831 41.9742 259.718 43.8186C259.558 45.6513 259.489 47.4979 259.44 49.3306L259.357 52.0658C259.336 52.9484 259.231 53.827 259.045 54.6899C258.58 56.3998 257.808 58.0111 256.768 59.4452C256.252 60.238 255.788 61.0635 255.379 61.9166C254.977 62.7888 254.677 63.7042 254.484 64.6449C254.317 65.5804 254.222 66.5273 254.199 67.4773C254.169 68.431 254.258 69.3847 254.463 70.3166C254.664 71.2538 254.963 72.1285 255.22 72.9893C255.477 73.8479 255.654 74.7288 255.747 75.6204C255.809 76.5155 255.657 77.4125 255.304 78.2371C254.95 79.0617 254.405 79.7901 253.713 80.3618C254.507 79.8456 255.161 79.1403 255.616 78.3091C256.07 77.4779 256.311 76.5468 256.316 75.5995C256.294 74.6646 256.178 73.7343 255.969 72.8227C255.775 71.9063 255.511 71.0386 255.372 70.1639C255.124 68.4113 255.197 66.6282 255.587 64.9017C255.785 64.0513 256.069 63.2232 256.434 62.4303C256.828 61.6271 257.273 60.8502 257.767 60.1047C258.246 59.3342 258.753 58.5358 259.156 57.675C259.591 56.8129 259.913 55.8983 260.114 54.9537C260.292 54.0204 260.376 53.0714 260.364 52.1213C260.364 51.1911 260.364 50.2747 260.364 49.3445C260.329 47.5118 260.273 45.686 260.287 43.8602C260.246 42.0263 260.395 40.1931 260.732 38.3898Z" fill="#263238"/>
<path d="M262.238 66.8594C247.035 78.064 226.139 103.375 228.291 109.526C230.714 116.377 252.589 100.501 252.179 99.4595C251.825 98.5918 261.204 82.7985 268.028 71.219C274.852 59.6396 266.001 64.0964 262.238 66.8594Z" fill="#AD6359"/>
<path d="M262.238 66.8594C247.035 78.064 226.139 103.375 228.291 109.526C230.714 116.377 252.589 100.501 252.179 99.4595C251.825 98.5918 261.204 82.7985 268.028 71.219C274.852 59.6396 266.001 64.0964 262.238 66.8594Z" fill="#8FDEBE"/>
<path d="M256.358 96.8146L253.505 119.647C253.505 119.647 290.61 119.446 299.809 118.613C299.809 118.613 291.437 76.2104 281.322 65.6584C276.261 60.3824 270.451 60.8961 266.82 64.7351C265.904 65.7001 255.018 80.7019 253.949 86.3875C253.019 91.3928 256.358 96.8146 256.358 96.8146Z" fill="#8FDEBE"/>
<path d="M254.067 85.4018C254.508 83.9156 255.138 82.4923 255.942 81.1671C256.511 80.1535 257.101 79.1539 257.698 78.1542C257.885 77.814 258.038 77.46 258.205 77.1059C258.371 76.7519 258.503 76.502 258.656 76.1965C258.975 75.544 259.315 74.8984 259.656 74.2527C259.656 74.218 259.732 74.2527 259.718 74.2527C259.461 74.9053 259.184 75.5509 258.871 76.1826C259.76 74.7387 260.634 73.2739 261.586 71.8647C261.586 71.8647 261.634 71.8647 261.62 71.8647C259.704 75.4398 257.511 78.8623 255.754 82.5208C254.891 84.2329 254.377 86.0994 254.241 88.012C254.105 89.9456 254.34 91.8874 254.935 93.7323C254.935 93.8087 254.859 93.8642 254.831 93.7948C254.258 92.4693 253.888 91.0652 253.734 89.6295C253.584 88.2118 253.697 86.7785 254.067 85.4018Z" fill="#263238"/>
<path d="M228.291 109.526C230.575 114.211 238.468 116.287 257.865 123.41C260.551 124.396 272.582 107.318 269.77 106.117C266.223 104.611 252.151 99.5289 251.075 99.2929C242.002 97.2311 226.785 106.346 228.291 109.526Z" fill="#AD6359"/>
<path d="M265.911 104.583C265.911 104.583 274.186 107.214 278.108 109.942C283.363 113.594 286.39 118.904 287.528 121.209C289.896 126.02 292.304 139.259 288.604 140.647C285.251 141.876 283.481 128.193 283.481 128.193C283.481 128.193 287.591 141.841 283.287 142.584C278.983 143.327 277.823 127.311 277.823 127.311C277.823 127.311 281.732 141.432 277.171 141.494C273.7 141.536 271.86 127.103 271.86 127.103C271.86 127.103 275.137 139.266 271.596 139.467C267.681 139.689 265.126 126.471 265.126 126.471C256.039 125.465 252.124 121.265 249.687 117.953C249.104 117.127 265.911 104.583 265.911 104.583Z" fill="#AD6359"/>
<path d="M282.356 123.326C282.898 124.916 283.46 126.513 283.856 128.144C284.251 129.776 284.599 131.421 284.842 133.08C285.206 135.24 285.318 137.434 285.175 139.62C285.14 135.725 283.786 129.866 283.405 128.242C283.023 126.617 282.71 124.965 282.294 123.34C282.322 123.327 282.322 123.326 282.356 123.326Z" fill="#263238"/>
<path d="M276.449 124.673C277.053 126.756 277.726 128.748 278.24 130.831C278.753 132.914 279.052 134.913 279.42 137.016C279.42 137.176 279.35 137.141 279.316 136.975C278.864 134.892 278.288 132.997 277.816 130.914C277.344 128.832 276.948 126.749 276.428 124.666C276.393 124.652 276.442 124.639 276.449 124.673Z" fill="#263238"/>
<path d="M271.173 124.902C272.174 128.032 272.851 131.256 273.193 134.524C273.193 134.691 273.096 134.628 273.061 134.462C272.45 131.247 271.999 128.727 271.068 124.937C271.055 124.882 271.152 124.84 271.173 124.902Z" fill="#263238"/>
<path d="M268.653 105.034L250.187 122.049C250.187 122.049 229.138 113.969 228.215 109.442C227.34 105.124 242.731 97.1964 249.971 98.7653C257.212 100.334 268.653 105.034 268.653 105.034Z" fill="#EBEBEB"/>
<path d="M265.251 103.271L244.341 120.626C244.341 120.626 228.173 112.691 228.173 108.998C228.173 105.124 241.176 97.488 248.507 98.3141C254.629 99.0291 265.251 103.271 265.251 103.271Z" fill="#8FDEBE"/>
<path d="M241.842 99.9593C243.328 99.3484 247.444 98.0364 251.054 99.2651C251.096 99.2651 251.054 99.3346 251.054 99.3276C248 98.7722 243.363 99.5706 241.877 100.022C241.828 100.029 241.807 99.9732 241.842 99.9593Z" fill="#263238"/>
<path d="M273.815 82.4786L247.668 85.2775L251.311 119.315L277.459 116.516L273.815 82.4786Z" fill="#455A64"/>
<path d="M254.648 86.5562L267.037 85.2169L266.631 81.4622L254.242 82.8015L254.648 86.5562Z" fill="#A6A6A6"/>
<path d="M257.052 82.5208L258.58 82.3542L258.392 80.6256L262.099 80.223L262.287 81.9515L263.814 81.7849L263.474 78.6332L256.691 79.3691L257.052 82.5208Z" fill="#A6A6A6"/>
<path d="M284.21 67.9771C298.094 83.7287 308.806 115.808 301.746 118.523C295.296 121.008 276.365 118.8 268.167 116.523C265.758 115.829 269.152 96.0787 271.728 96.7938C274.845 97.6546 283.918 99.1888 284.224 99.1749C284.918 99.1749 279.045 80.6395 276.983 72.4686C274.13 61.0836 278.996 62.0624 284.21 67.9771Z" fill="#AD6359"/>
<path d="M246.077 96.0787C245.848 96.641 245.797 97.2602 245.931 97.8524C246.065 98.4446 246.378 98.9814 246.827 99.3901C245.969 99.9677 245.34 100.827 245.049 101.82C244.619 103.583 247.202 105.034 247.202 105.034C246.438 105.816 245.927 106.811 245.737 107.887C245.494 109.623 247.889 111.462 247.889 111.462C247.585 112.568 247.689 113.745 248.18 114.781C249.61 117.502 254.283 117.849 257.254 118.106C260.225 118.363 268.882 116.294 270.569 116.065L272.353 97.0298C272.353 97.0298 259.364 92.1079 255.831 92.3022C252.859 92.4689 247.028 93.9545 246.077 96.0787Z" fill="#AD6359"/>
<path d="M246.986 99.0986C250.103 98.1614 253.338 98.203 256.56 98.0573C256.629 98.0573 256.636 98.1614 256.56 98.1683C253.345 98.2724 250.201 99.0153 247.007 99.2513C246.987 99.2541 246.966 99.2487 246.95 99.2363C246.934 99.2239 246.923 99.2056 246.92 99.1853C246.918 99.1651 246.923 99.1446 246.935 99.1283C246.948 99.112 246.966 99.1013 246.986 99.0986Z" fill="#263238"/>
<path d="M247.285 104.791C248.016 104.648 248.763 104.601 249.506 104.652C250.291 104.652 251.075 104.652 251.867 104.701C253.442 104.763 255.011 104.854 256.58 104.999C256.657 104.999 256.664 105.11 256.58 105.11C255.011 105.055 253.442 105.02 251.867 105.027L249.513 105.062C248.771 105.123 248.023 105.104 247.285 105.006C247.261 105 247.24 104.986 247.225 104.967C247.209 104.947 247.201 104.923 247.201 104.899C247.201 104.874 247.209 104.85 247.225 104.831C247.24 104.811 247.261 104.797 247.285 104.791Z" fill="#263238"/>
<path d="M247.958 111.462C248.619 111.344 249.296 111.344 249.958 111.462L252.11 111.574C253.547 111.643 254.984 111.712 256.421 111.726C256.435 111.726 256.449 111.732 256.46 111.742C256.47 111.753 256.476 111.767 256.476 111.782C256.476 111.796 256.47 111.811 256.46 111.821C256.449 111.831 256.435 111.837 256.421 111.837C254.963 111.837 253.505 111.837 252.047 111.837L249.895 111.789C249.24 111.83 248.582 111.757 247.951 111.574C247.917 111.525 247.93 111.469 247.958 111.462Z" fill="#263238"/>
<path d="M273.935 96.8285L271.402 118.127C271.402 118.127 300.614 122.438 303.731 117.377C307.896 110.678 295.539 80.6742 285.827 69.5876C275.72 58.0568 274.72 65.2002 276.851 73.5724C278.934 81.778 283.425 98.2794 283.439 98.564C283.453 98.8486 273.935 96.8285 273.935 96.8285Z" fill="#EBEBEB"/>
<path d="M277.754 97.3144L276.456 119.855C276.456 119.855 301.051 122.035 304.009 117.724C306.966 113.413 299.691 83.9509 283.981 67.4148C276.678 59.7368 274.789 64.7143 276.247 71.1496C277.636 77.2864 282.877 97.8004 282.877 98.0294C282.877 98.2585 277.754 97.3144 277.754 97.3144Z" fill="#8FDEBE"/>
<path d="M297.823 102.035C294.652 100.651 291.368 99.5436 288.007 98.7237C286.362 98.3349 284.765 98.0295 283.092 97.8004C283.009 97.1409 282.794 96.2662 282.648 95.5372C282.474 94.6903 282.266 93.8503 282.058 93.0173C281.669 91.3928 281.266 89.7822 280.857 88.1578C280.447 86.5333 280.045 84.9228 279.628 83.2983C279.413 82.4653 279.205 81.6322 278.934 80.7992C278.663 79.9661 278.49 79.1261 278.177 78.3347C278.177 78.2931 278.087 78.2931 278.094 78.3347C278.326 79.9949 278.662 81.6388 279.1 83.2567C279.156 83.4788 279.205 83.7079 279.26 83.9509L279.156 83.6801C278.885 83.0276 278.614 82.375 278.323 81.7294C278.317 81.7176 278.307 81.7084 278.294 81.7034C278.282 81.6984 278.269 81.6979 278.256 81.7021C278.243 81.7063 278.233 81.7149 278.226 81.7262C278.219 81.7376 278.217 81.751 278.219 81.7641C278.462 82.4236 278.719 83.0762 278.982 83.7357C279.142 84.1314 279.316 84.5271 279.496 84.9228C279.753 86.0266 280.017 87.1234 280.281 88.2272C280.676 89.8725 281.072 91.5247 281.482 93.17C281.69 94.003 281.891 94.843 282.127 95.6691C282.328 96.3634 282.578 97.4324 282.689 97.7518C281.863 97.6338 281.148 97.5366 280.315 97.4602C279.482 97.3839 278.573 97.3838 277.712 97.3005C277.643 97.3005 277.643 97.3977 277.712 97.4047C278.621 97.4949 279.531 97.7171 280.433 97.8629C281.336 98.0086 282.051 98.1336 282.856 98.2933C284.543 98.6195 286.23 98.9875 287.903 99.3693C291.221 100.161 294.533 101.035 297.761 102.146C297.837 102.139 297.872 102.056 297.823 102.035Z" fill="#263238"/>
<path d="M276.331 63.8743C276.074 64.5685 272.04 68.8448 268.75 68.2825C267.681 68.102 268.43 62.2082 268.43 62.2082L268.382 61.7639L267.771 55.516L275.498 51.8019L276.608 51.3229C276.608 51.3229 276.664 53.0515 276.712 55.1966C276.712 55.3008 276.712 55.398 276.712 55.5021C276.712 55.6062 276.712 55.7381 276.712 55.8561C276.712 56.1755 276.712 56.5017 276.712 56.828C276.712 57.1543 276.712 57.3209 276.712 57.5778V58.3622C276.711 60.2061 276.583 62.0478 276.331 63.8743Z" fill="#AD6359"/>
<path d="M276.712 55.1758C275.884 56.8116 274.71 58.248 273.271 59.3855C271.833 60.5229 270.165 61.3345 268.382 61.7639L267.771 55.516L275.498 51.8019L276.608 51.3229C276.608 51.3229 276.664 53.0307 276.712 55.1758Z" fill="#263238"/>
<path d="M259.663 45.8526C258.857 56.8697 265.362 58.5983 267.743 58.7649C269.895 58.9176 277.261 59.1745 279.198 48.2962C281.135 37.4179 276.268 33.565 271.353 32.9472C266.438 32.3293 260.468 34.8354 259.663 45.8526Z" fill="#AD6359"/>
<path d="M263.009 43.638C263.261 43.6029 263.511 43.5542 263.758 43.4923C264.03 43.4816 264.289 43.3787 264.494 43.2007C264.547 43.1318 264.575 43.0477 264.575 42.9612C264.575 42.8747 264.547 42.7905 264.494 42.7217C264.37 42.6004 264.216 42.5141 264.048 42.4715C263.88 42.4288 263.703 42.4313 263.536 42.4787C263.184 42.5245 262.861 42.6973 262.627 42.9647C262.578 43.0305 262.55 43.1091 262.545 43.1909C262.54 43.2727 262.559 43.3542 262.599 43.4255C262.639 43.4968 262.7 43.5548 262.772 43.5925C262.845 43.6302 262.927 43.6461 263.009 43.638Z" fill="#263238"/>
<path d="M270.631 44.124C270.381 44.0793 270.133 44.0214 269.888 43.9504C269.628 43.9219 269.385 43.8098 269.194 43.6311C269.142 43.5622 269.113 43.4781 269.113 43.3916C269.113 43.3051 269.142 43.2209 269.194 43.1521C269.322 43.0344 269.478 42.9529 269.648 42.9163C269.818 42.8797 269.994 42.8892 270.159 42.9438C270.509 43.0029 270.825 43.1881 271.048 43.4645C271.099 43.532 271.128 43.6136 271.132 43.6984C271.136 43.7831 271.113 43.8669 271.068 43.9386C271.023 44.0102 270.957 44.0664 270.879 44.0995C270.8 44.1327 270.714 44.1412 270.631 44.124Z" fill="#263238"/>
<path d="M268.75 46.887C268.75 46.887 268.812 46.887 268.805 46.9564C268.75 47.7061 268.805 48.5739 269.499 48.8516V48.8932C268.653 48.7405 268.576 47.5881 268.75 46.887Z" fill="#263238"/>
<path d="M269.458 46.1303C270.666 46.0817 270.666 48.5114 269.541 48.553C268.417 48.5947 268.437 46.165 269.458 46.1303Z" fill="#263238"/>
<path d="M269.93 46.2691C270.145 46.4079 270.353 46.6509 270.624 46.6787C270.895 46.7064 271.145 46.4496 271.318 46.2066H271.36C271.36 46.6717 271.186 47.1507 270.666 47.2202C270.145 47.2896 269.888 46.8661 269.77 46.401C269.77 46.3316 269.826 46.1997 269.93 46.2691Z" fill="#263238"/>
<path d="M264.446 46.4982C264.446 46.4982 264.39 46.4982 264.39 46.5607C264.39 47.3104 264.217 48.1712 263.522 48.3795V48.4212C264.362 48.3517 264.55 47.2132 264.446 46.4982Z" fill="#263238"/>
<path d="M263.821 45.6721C262.62 45.5124 262.384 47.9283 263.502 48.081C264.619 48.2337 264.834 45.8109 263.821 45.6721Z" fill="#263238"/>
<path d="M263.307 45.7832C263.099 45.8943 262.891 46.1095 262.662 46.1025C262.432 46.0956 262.224 45.8109 262.078 45.5471C262.078 45.5471 262.078 45.5471 262.037 45.5471C261.981 46.0053 262.085 46.5052 262.523 46.6371C262.96 46.769 263.217 46.3871 263.411 45.9428C263.439 45.8734 263.384 45.7415 263.307 45.7832Z" fill="#263238"/>
<path d="M268.437 53.0099C268.264 53.1904 268.097 53.4403 267.826 53.475C267.546 53.4837 267.266 53.4316 267.007 53.3223C267.007 53.3223 266.959 53.3223 267.007 53.3639C267.122 53.5067 267.272 53.6162 267.443 53.6809C267.614 53.7456 267.799 53.7632 267.979 53.7319C268.13 53.683 268.264 53.5914 268.363 53.4682C268.463 53.3449 268.525 53.1954 268.542 53.0377C268.521 52.996 268.437 52.9821 268.437 53.0099Z" fill="#263238"/>
<path d="M265.063 50.1151C265.063 50.1151 264.89 51.2327 264.883 51.7673C264.883 51.8159 265.008 51.8367 265.188 51.8506C265.641 51.9413 266.111 51.905 266.544 51.7457C266.978 51.5865 267.359 51.3104 267.646 50.9481C267.652 50.9375 267.655 50.925 267.654 50.9126C267.652 50.9002 267.647 50.8887 267.638 50.8798C267.629 50.871 267.618 50.8654 267.605 50.864C267.593 50.8625 267.58 50.8652 267.57 50.8717C266.89 51.3261 266.081 51.5456 265.265 51.4965C265.265 51.3507 265.619 49.5875 265.536 49.5805C265.123 49.6115 264.717 49.6979 264.328 49.8374C264.612 47.4909 265.279 45.2139 265.529 42.8953C265.528 42.8792 265.523 42.8637 265.513 42.851C265.503 42.8383 265.49 42.8289 265.474 42.8243C265.459 42.8197 265.442 42.8201 265.427 42.8253C265.412 42.8306 265.399 42.8405 265.39 42.8536C264.608 45.2773 264.069 47.7724 263.779 50.3025C263.751 50.5871 264.848 50.1984 265.063 50.1151Z" fill="#263238"/>
<path d="M265.341 51.7603C265.646 52.183 266.055 52.52 266.528 52.7392C266.789 52.8482 267.078 52.8749 267.354 52.8155C267.958 52.6767 267.986 52.1213 267.896 51.6562C267.843 51.4015 267.759 51.1543 267.646 50.9203C266.988 51.4404 266.18 51.7349 265.341 51.7603Z" fill="#263238"/>
<path d="M266.528 52.7391C266.789 52.8482 267.078 52.8748 267.354 52.8155C267.958 52.6766 267.986 52.1213 267.896 51.6562C267.579 51.6531 267.27 51.759 267.021 51.956C266.772 52.1531 266.598 52.4295 266.528 52.7391Z" fill="#FF9BBC"/>
<path d="M278.788 48.2129C277.601 48.1365 274.512 44.8598 274.435 39.1187C274.435 39.1187 274.866 44.2698 275.248 45.0265C275.629 45.7832 273.526 43.1799 273.394 38.5495C271.934 39.5871 270.332 40.41 268.639 40.9931C266.452 41.604 265.112 41.5762 264.959 41.4166C264.807 41.2569 268.021 40.2572 268.896 39.2576C268.896 39.2576 262.724 41.8956 260.044 42.0969C259.732 42.0969 259.725 35.7796 263.883 33.0722C268.042 30.3647 274.595 33.3221 276.379 35.0368C276.379 35.0368 278.462 35.3353 280.697 38.4106C282.932 41.486 280.065 48.2962 278.788 48.2129Z" fill="#263238"/>
<path d="M277.462 49.4833C277.462 49.4833 279.822 46.0122 281.398 46.8384C282.974 47.6645 281.232 52.6975 279.406 53.4125C279.178 53.5201 278.93 53.5803 278.677 53.5894C278.425 53.5985 278.174 53.5564 277.938 53.4655C277.703 53.3747 277.488 53.237 277.307 53.0609C277.126 52.8847 276.983 52.6737 276.886 52.4406L277.462 49.4833Z" fill="#AD6359"/>
<path d="M280.871 48.2684C280.871 48.2684 280.871 48.3031 280.871 48.317C279.593 48.8585 278.934 50.0595 278.476 51.3021C278.549 51.1728 278.649 51.0608 278.77 50.974C278.89 50.8871 279.028 50.8275 279.174 50.7991C279.32 50.7707 279.47 50.7743 279.614 50.8096C279.759 50.8449 279.894 50.9111 280.01 51.0036C280.045 51.0036 280.01 51.08 280.01 51.073C279.782 51.0012 279.538 51.0028 279.311 51.0776C279.084 51.1523 278.887 51.2964 278.747 51.4896C278.511 51.8084 278.313 52.1531 278.156 52.517C278.094 52.635 277.886 52.5795 277.927 52.4406C277.865 50.7745 279.107 48.4559 280.871 48.2684Z" fill="#263238"/>
<path d="M276.893 52.4407C277.088 52.8667 277.424 53.2125 277.844 53.4195C277.951 53.4776 278.065 53.5197 278.184 53.5445C278.456 53.603 278.738 53.603 279.01 53.5445C279.137 53.5152 279.262 53.4781 279.385 53.4334C281.211 52.7392 282.96 47.7061 281.377 46.8661C279.795 46.0262 277.434 49.5111 277.434 49.5111L276.893 52.4407Z" fill="#AD6359"/>
<path d="M280.871 48.2684C280.871 48.2684 280.871 48.3031 280.871 48.317C279.593 48.8585 278.934 50.0595 278.476 51.3021C278.549 51.1728 278.649 51.0608 278.77 50.974C278.89 50.8871 279.028 50.8275 279.174 50.7991C279.32 50.7707 279.47 50.7743 279.614 50.8096C279.759 50.8449 279.894 50.9111 280.01 51.0036C280.045 51.0036 280.01 51.08 280.01 51.073C279.782 51.0012 279.538 51.0028 279.311 51.0776C279.084 51.1523 278.887 51.2964 278.747 51.4896C278.511 51.8084 278.313 52.1531 278.156 52.517C278.094 52.635 277.886 52.5795 277.927 52.4406C277.865 50.7745 279.107 48.4559 280.871 48.2684Z" fill="#263238"/>
<path d="M268.437 62.2359L269.437 67.3592L276.504 62.465L277.809 64.7143C277.809 64.7143 270.173 73.1836 270.249 72.7463L269.069 68.2686L265.709 70.5665L267.306 63.4369L268.437 62.2359Z" fill="#EBEBEB"/>
<path d="M266.299 66.9843C266.605 65.8181 266.875 64.631 267.23 63.4786C267.23 63.4369 267.313 63.43 267.313 63.4786C267.313 64.6657 266.154 69.1225 265.924 70.2055C266.063 70.1013 269.028 68.1923 269.048 68.2339C269.347 68.9698 270.215 72.2326 270.263 72.5172C271.471 71.1774 276.511 65.9222 277.851 64.6865C277.893 64.6518 277.948 64.6865 277.913 64.742C276.803 66.1929 270.277 73.1489 270.208 73.1142C269.717 71.5611 269.309 69.9831 268.986 68.3866C268.458 68.824 265.418 71.0385 265.438 70.858C265.659 69.553 265.946 68.26 266.299 66.9843Z" fill="#263238"/>
</svg>
