<svg width="330" height="263" viewBox="0 0 330 263" fill="none" xmlns="http://www.w3.org/2000/svg">
<path d="M139.927 252.34C141.134 252.416 141.802 250.915 140.888 250.041L140.797 249.679C140.809 249.65 140.821 249.621 140.833 249.593C142.055 246.68 146.194 246.7 147.405 249.617C148.48 252.206 149.849 254.799 150.186 257.536C150.337 258.745 150.269 259.975 150.001 261.161C152.519 255.66 153.845 249.652 153.845 243.61C153.845 242.092 153.762 240.574 153.592 239.06C153.452 237.822 153.259 236.591 153.01 235.371C151.662 228.778 148.743 222.499 144.533 217.254C142.509 216.148 140.821 214.418 139.802 212.345C139.436 211.597 139.149 210.793 139.013 209.974C139.243 210.004 139.881 206.496 139.707 206.281C140.028 205.794 140.603 205.552 140.953 205.076C142.697 202.712 145.099 203.125 146.353 206.338C149.032 207.69 149.058 209.932 147.414 212.088C146.368 213.46 146.225 215.317 145.307 216.786C145.402 216.906 145.5 217.024 145.594 217.144C147.325 219.365 148.822 221.751 150.085 224.258C149.728 221.472 150.255 218.115 151.152 215.951C152.174 213.486 154.09 211.409 155.777 209.278C157.803 206.718 161.958 207.835 162.315 211.08C162.319 211.112 162.322 211.143 162.326 211.175C162.075 211.316 161.83 211.466 161.59 211.625C160.222 212.529 160.695 214.649 162.315 214.9L162.352 214.905C162.261 215.808 162.107 216.703 161.88 217.582C164.044 225.952 159.372 229 152.701 229.137C152.553 229.212 152.41 229.288 152.263 229.36C152.938 231.263 153.478 233.215 153.879 235.194C154.237 236.942 154.487 238.709 154.626 240.484C154.8 242.723 154.785 244.973 154.596 247.209L154.607 247.13C155.087 244.668 156.424 242.368 158.365 240.775C161.256 238.399 165.341 237.525 168.46 235.616C169.961 234.697 171.886 235.884 171.623 237.625L171.611 237.708C171.146 237.897 170.693 238.116 170.255 238.362C170.005 238.503 169.759 238.653 169.519 238.812C168.152 239.716 168.624 241.837 170.245 242.087L170.282 242.092C170.308 242.096 170.331 242.1 170.357 242.104C169.56 243.995 168.45 245.751 167.061 247.265C165.707 254.572 159.896 255.265 153.679 253.137H153.675C152.995 256.098 152.002 258.99 150.726 261.746H140.191C140.153 261.629 140.119 261.509 140.085 261.391C141.059 261.452 142.041 261.395 143 261.218C142.218 260.259 141.437 259.292 140.655 258.333C140.636 258.314 140.621 258.295 140.606 258.276C140.21 257.785 139.809 257.298 139.413 256.807L139.413 256.807C139.388 255.3 139.569 253.798 139.927 252.34Z" fill="#F2F2F2"/>
<path d="M0 261.955C0 262.34 0.309867 262.65 0.695735 262.65H236.468C236.854 262.65 237.163 262.34 237.163 261.955C237.163 261.569 236.854 261.259 236.468 261.259H0.695735C0.309867 261.259 0 261.569 0 261.955Z" fill="#CCCCCC"/>
<path d="M318.469 262.495H197.714C191.356 262.495 186.183 257.322 186.183 250.964V11.5314C186.183 5.1731 191.356 0 197.714 0H318.469C324.827 0 330 5.1731 330 11.5314V250.964C330 257.322 324.827 262.495 318.469 262.495ZM197.714 1.16924C191.991 1.16924 187.352 5.80843 187.352 11.5311V250.964C187.352 256.687 191.992 261.326 197.714 261.326H318.469C324.191 261.326 328.831 256.687 328.831 250.964V88.1053C328.831 40.0918 289.908 1.16924 241.895 1.16924H197.714Z" fill="#E6E6E6"/>
<path d="M220.481 118.163C228.23 118.163 234.512 111.881 234.512 104.132C234.512 96.3826 228.23 90.1008 220.481 90.1008C212.732 90.1008 206.45 96.3826 206.45 104.132C206.45 111.881 212.732 118.163 220.481 118.163Z" fill="#E6E6E6"/>
<path d="M295.702 118.163C303.451 118.163 309.733 111.881 309.733 104.132C309.733 96.3826 303.451 90.1008 295.702 90.1008C287.953 90.1008 281.671 96.3826 281.671 104.132C281.671 111.881 287.953 118.163 295.702 118.163Z" fill="#E6E6E6"/>
<path d="M258.091 118.163C265.84 118.163 272.122 111.881 272.122 104.132C272.122 96.3826 265.84 90.1008 258.091 90.1008C250.342 90.1008 244.06 96.3826 244.06 104.132C244.06 111.881 250.342 118.163 258.091 118.163Z" fill="#E6E6E6"/>
<path d="M220.481 158.502C228.23 158.502 234.512 152.22 234.512 144.471C234.512 136.722 228.23 130.44 220.481 130.44C212.732 130.44 206.45 136.722 206.45 144.471C206.45 152.22 212.732 158.502 220.481 158.502Z" fill="#E6E6E6"/>
<path d="M295.702 158.502C303.451 158.502 309.733 152.22 309.733 144.471C309.733 136.722 303.451 130.44 295.702 130.44C287.953 130.44 281.671 136.722 281.671 144.471C281.671 152.22 287.953 158.502 295.702 158.502Z" fill="#E6E6E6"/>
<path d="M258.091 158.502C265.84 158.502 272.122 152.22 272.122 144.471C272.122 136.722 265.84 130.44 258.091 130.44C250.342 130.44 244.06 136.722 244.06 144.471C244.06 152.22 250.342 158.502 258.091 158.502Z" fill="#E6E6E6"/>
<path d="M220.481 198.84C228.23 198.84 234.512 192.559 234.512 184.809C234.512 177.06 228.23 170.779 220.481 170.779C212.732 170.779 206.45 177.06 206.45 184.809C206.45 192.559 212.732 198.84 220.481 198.84Z" fill="#E6E6E6"/>
<path d="M295.415 239.11C303.164 239.11 309.446 232.828 309.446 225.079C309.446 217.33 303.164 211.048 295.415 211.048C287.666 211.048 281.384 217.33 281.384 225.079C281.384 232.828 287.666 239.11 295.415 239.11Z" fill="#E6E6E6"/>
<path d="M239.584 239.11C257.826 239.11 272.615 232.828 272.615 225.079C272.615 217.33 257.826 211.048 239.584 211.048C221.341 211.048 206.553 217.33 206.553 225.079C206.553 232.828 221.341 239.11 239.584 239.11Z" fill="#E6E6E6"/>
<path d="M295.702 198.84C303.451 198.84 309.733 192.559 309.733 184.809C309.733 177.06 303.451 170.779 295.702 170.779C287.953 170.779 281.671 177.06 281.671 184.809C281.671 192.559 287.953 198.84 295.702 198.84Z" fill="#E6E6E6"/>
<path d="M258.091 198.84C265.84 198.84 272.122 192.559 272.122 184.809C272.122 177.06 265.84 170.779 258.091 170.779C250.342 170.779 244.06 177.06 244.06 184.809C244.06 192.559 250.342 198.84 258.091 198.84Z" fill="#8FDEBE"/>
<path d="M260.849 16.3694H126.658C122.68 16.3694 119.444 19.6049 119.444 23.5838V72.8787C119.444 76.8577 122.68 80.0932 126.658 80.0932H260.849C264.828 80.0932 268.063 76.8577 268.063 72.8787V23.5838C268.063 19.6049 264.828 16.3694 260.849 16.3694Z" fill="white"/>
<path d="M260.849 16.3694H126.658C122.68 16.3694 119.444 19.6049 119.444 23.5838V72.8787C119.444 76.8577 122.68 80.0932 126.658 80.0932H260.849C264.828 80.0932 268.063 76.8577 268.063 72.8787V23.5838C268.063 19.6049 264.828 16.3694 260.849 16.3694ZM267.305 72.8787C267.305 76.4404 264.41 79.3345 260.849 79.3345H126.658C123.097 79.3345 120.203 76.4404 120.203 72.8787V23.5838C120.203 20.0221 123.097 17.128 126.658 17.128H260.849C264.41 17.128 267.305 20.0221 267.305 23.5838V72.8787Z" fill="#3F3D56"/>
<path d="M253.385 46.1851H134.122C132.992 46.1851 132.076 47.1012 132.076 48.2313C132.076 49.3614 132.992 50.2775 134.122 50.2775H253.385C254.515 50.2775 255.431 49.3614 255.431 48.2313C255.431 47.1012 254.515 46.1851 253.385 46.1851Z" fill="#8FDEBE"/>
<path d="M39.7262 105.478L38.531 112.596L49.1306 138.38L54.8176 135.456L49.2824 111.328L48.4868 102.119L39.7262 105.478Z" fill="#A0616A"/>
<path d="M51.4268 65.4359C51.4268 65.4359 45.8773 62.7476 41.571 71.831C37.2647 80.9144 37.7979 100.837 37.7979 100.837C37.7979 100.837 36.2299 102.33 37.2253 103.375C38.2207 104.42 39.1486 106.079 38.1332 107.992C37.5981 109 36.3595 110.971 38.3878 111.531C40.416 112.092 49.9036 109.445 49.9036 109.445C49.9036 109.445 53.4513 107.856 51.4355 106.786C49.4198 105.716 52.2587 99.2411 52.2587 99.2411L54.6045 80.5382L51.4268 65.4359Z" fill="#8FDEBE"/>
<path d="M55.7843 148.231C58.0118 147.547 58.8837 143.951 57.7317 140.2C56.5796 136.448 53.8399 133.961 51.6124 134.645C49.3849 135.329 48.5131 138.925 49.6651 142.677C50.8172 146.428 53.5568 148.915 55.7843 148.231Z" fill="#A0616A"/>
<path d="M108.317 258.736L113.629 257.31L110.658 236.142L102.818 238.246L108.317 258.736Z" fill="#A0616A"/>
<path d="M126.485 253.732C126.725 253.966 127.054 254.842 127.141 255.166C127.408 256.161 126.817 257.185 125.822 257.452L109.37 261.867C108.691 262.049 107.993 261.646 107.81 260.967L107.627 260.282C107.627 260.282 106.26 258.442 107.255 255.455C107.255 255.455 109.871 256.883 112.147 252.936L112.619 251.028L120.565 254.103L124.368 253.568C125.2 253.451 125.884 253.145 126.485 253.732Z" fill="#2F2E41"/>
<path d="M56.2472 258.614L61.7473 258.613L64.3637 237.398L56.2461 237.399L56.2472 258.614Z" fill="#A0616A"/>
<path d="M75.0911 258.489C75.2623 258.777 75.3527 259.708 75.3527 260.044C75.3527 261.075 74.517 261.911 73.486 261.911H56.4529C55.7496 261.911 55.1794 261.34 55.1794 260.637V259.928C55.1794 259.928 54.3368 257.797 56.0716 255.17C56.0716 255.17 58.2277 257.227 61.4495 254.005L62.3996 252.284L69.2768 257.313L73.0888 257.782C73.9227 257.885 74.6621 257.767 75.0911 258.489Z" fill="#2F2E41"/>
<path d="M92.8512 132.244L107.314 194.584L114.296 244.954L103.324 246.45L72.9025 160.671L65.9205 246.45L53.4526 247.448C53.4526 247.448 43.4783 145.71 47.9667 133.242L92.8512 132.244Z" fill="#2F2E41"/>
<path d="M110.066 58.5292L115.056 53.315L120.787 26.0326L114.44 25.2532L105.452 48.3192L100.933 56.3817L110.066 58.5292Z" fill="#A0616A"/>
<path d="M77.8775 85.0655C77.8775 85.0655 82.5476 93.6766 91.2157 88.5858C99.8839 83.495 109.051 63.4519 109.051 63.4519C109.051 63.4519 110.882 58.3568 112.797 57.3462C113.806 56.8136 116.403 56.2392 115.04 54.6356C113.678 53.0321 103.88 49.5264 103.88 49.5264C103.88 49.5264 100.053 48.8462 101.118 50.8646C102.183 52.8831 98.6846 51.6327 99.0378 53.7689C99.391 55.9051 96.1954 56.6412 96.1954 56.6412L77.8775 85.0655Z" fill="#8FDEBE"/>
<path d="M122.761 22.1787C123.917 18.4285 123.049 14.8317 120.823 14.145C118.596 13.4583 115.853 15.9419 114.697 19.6921C113.54 23.4423 114.408 27.0391 116.635 27.7258C118.861 28.4125 121.604 25.929 122.761 22.1787Z" fill="#A0616A"/>
<path d="M78.4974 55.2313H64.8428L64.2903 59.5365C64.2903 59.5365 47.0694 64.2722 47.4999 66.8553C47.9305 69.4385 50.5136 112.491 50.5136 112.491L48.361 134.017C48.361 134.017 87.1079 150.376 93.1351 131.003L90.1215 108.616C90.1215 108.616 97.4404 70.2995 95.7183 68.5774C93.9962 66.8553 79.789 59.967 79.789 59.967L78.4974 55.2313Z" fill="#8FDEBE"/>
<path d="M70.566 55.2849C77.3348 55.2849 82.822 49.7977 82.822 43.0289C82.822 36.2601 77.3348 30.7729 70.566 30.7729C63.7972 30.7729 58.31 36.2601 58.31 43.0289C58.31 49.7977 63.7972 55.2849 70.566 55.2849Z" fill="#A0616A"/>
<path d="M79.6427 37.9874C81.2086 37.855 82.7745 37.7226 84.3404 37.5903C83.8022 37.3434 83.2416 37.0792 82.8829 36.6079C82.5243 36.1367 82.4502 35.3921 82.8834 34.9883C83.3896 34.5165 84.228 34.7665 84.7813 35.1821C84.4767 33.5914 83.5272 32.1339 82.1953 31.2125C80.5682 30.0869 76.5431 31.4291 74.5816 31.1707C72.3183 30.8725 72.0359 28.943 69.7726 28.6448C68.9196 28.5325 67.9596 28.4477 67.2888 28.9866C66.5448 29.5842 66.4613 30.7143 65.8049 31.4069C64.8677 32.396 63.2614 32.1042 61.9277 32.3825C60.0386 32.7767 58.6146 34.4331 57.9569 36.2474C57.2991 38.0616 57.2749 40.0349 57.2581 41.9647C57.2394 44.1274 57.2326 46.631 58.7968 48.1247C59.7497 49.0347 62.3455 52.1569 62.6261 53.4444C62.8254 54.3588 70.9474 55.4724 72.7078 55.4218L78.7078 53.4444C79.2974 50.8479 78.322 45.7114 76.9201 43.4477C77.3818 44.0575 79.5168 45.8933 79.8432 45.2016C80.1696 44.5099 80.0215 42.3418 80.4278 41.6939C80.9407 40.8761 78.6808 38.0687 79.6427 37.9874Z" fill="#2F2E41"/>
</svg>
