<svg width="330" height="240" viewBox="0 0 330 240" fill="none" xmlns="http://www.w3.org/2000/svg">
<path d="M72.8888 129.663C70.4657 116.695 74.2806 101.941 84.8838 94.0912C84.2829 108.425 88.7715 122.51 97.5556 133.853C100.959 138.216 105.199 142.713 105.067 148.245C104.985 151.687 103.124 154.893 100.671 157.309C98.2178 159.724 95.1961 161.466 92.2105 163.18L91.7458 163.903C82.9937 154.031 75.3119 142.632 72.8888 129.663Z" fill="#F0F0F0"/>
<path d="M85.0769 94.2895C80.6222 104.259 79.4221 115.38 81.6471 126.07C82.0853 128.38 82.8848 130.607 84.0162 132.668C85.1833 134.64 86.8572 136.264 88.8639 137.37C90.7143 138.439 92.7309 139.318 94.2891 140.819C95.0754 141.599 95.6879 142.536 96.0865 143.569C96.4851 144.602 96.6608 145.708 96.6021 146.814C96.5275 149.573 95.4659 152.141 94.3404 154.616C93.0909 157.364 91.7494 160.199 91.8305 163.288C91.8403 163.663 91.2589 163.656 91.249 163.282C91.1081 157.907 94.9943 153.59 95.8602 148.432C96.2643 146.025 95.9455 143.482 94.2534 141.616C92.7738 139.985 90.6951 139.076 88.8122 138.01C86.8387 136.959 85.1525 135.442 83.9009 133.589C82.6681 131.592 81.7841 129.4 81.2868 127.107C80.0848 121.962 79.6993 116.66 80.1443 111.395C80.619 105.383 82.1185 99.4968 84.578 93.9907C84.7303 93.65 85.2283 93.951 85.0769 94.2895Z" fill="white"/>
<path d="M80.7282 122.67C78.8838 122.8 77.0533 122.27 75.5637 121.175C74.074 120.08 73.0222 118.49 72.596 116.691C72.511 116.327 73.0732 116.178 73.1583 116.543C73.552 118.219 74.532 119.699 75.9212 120.716C77.3105 121.733 79.0175 122.22 80.7342 122.089C81.1073 122.061 81.0991 122.642 80.7282 122.67Z" fill="white"/>
<path d="M87.8543 136.951C90.3581 134.12 91.7027 130.449 91.62 126.67C91.6115 126.296 92.193 126.303 92.2015 126.676C92.2801 130.609 90.8731 134.426 88.2611 137.367C88.012 137.647 87.6065 137.23 87.8543 136.951Z" fill="white"/>
<path d="M81.3003 105.744C82.0243 105.842 82.7616 105.76 83.4457 105.503C84.1298 105.246 84.7394 104.823 85.2198 104.272C85.4653 103.989 85.8705 104.407 85.6266 104.688C85.0931 105.294 84.4192 105.76 83.664 106.045C82.9088 106.331 82.0951 106.427 81.2941 106.325C81.2178 106.322 81.1456 106.29 81.0922 106.235C81.0388 106.181 81.0081 106.108 81.0065 106.032C81.0077 105.955 81.0392 105.881 81.0942 105.827C81.1492 105.774 81.2233 105.744 81.3003 105.744Z" fill="white"/>
<path d="M128.245 104.818C128.097 104.999 127.948 105.18 127.801 105.366C125.821 107.812 124.042 110.415 122.483 113.148C122.359 113.358 122.237 113.572 122.119 113.785C118.434 120.411 116.01 127.664 114.972 135.175C114.562 138.164 114.379 141.181 114.427 144.197C114.492 148.364 114.895 152.876 113.617 156.708C113.489 157.109 113.335 157.502 113.158 157.885L92.6638 164.414C92.6098 164.406 92.557 164.402 92.5027 164.393L91.6964 164.692C91.6831 164.536 91.6726 164.375 91.6593 164.219C91.6512 164.129 91.6477 164.037 91.6396 163.947C91.6357 163.887 91.6319 163.826 91.6249 163.772C91.6235 163.752 91.6223 163.731 91.6224 163.716C91.6154 163.661 91.6147 163.61 91.6091 163.56C91.5482 162.658 91.4918 161.754 91.445 160.847C91.4435 160.842 91.4435 160.842 91.4466 160.836C91.0948 153.928 91.3166 146.93 92.5936 140.188C92.6321 139.985 92.6689 139.778 92.7167 139.572C93.3092 136.536 94.1488 133.554 95.2271 130.655C95.8227 129.07 96.4981 127.515 97.2508 125.998C99.2033 122.082 101.76 118.497 104.826 115.375C110.94 109.152 118.976 104.954 127.587 104.822C127.807 104.818 128.023 104.817 128.245 104.818Z" fill="#F0F0F0"/>
<path d="M128.282 105.093C118.722 110.371 111.069 118.527 106.409 128.403C105.368 130.511 104.666 132.77 104.328 135.097C104.073 137.374 104.432 139.679 105.368 141.77C106.202 143.738 107.282 145.654 107.623 147.79C107.781 148.886 107.706 150.003 107.402 151.068C107.099 152.133 106.573 153.122 105.861 153.97C104.14 156.128 101.746 157.539 99.3573 158.838C96.7051 160.279 93.9274 161.735 92.1319 164.251C91.9143 164.556 91.4541 164.2 91.6713 163.896C94.7951 159.519 100.497 158.412 104.294 154.815C106.066 153.136 107.342 150.914 107.115 148.406C106.915 146.212 105.803 144.235 104.941 142.25C103.998 140.223 103.566 137.996 103.682 135.763C103.9 133.427 104.513 131.144 105.497 129.014C107.635 124.182 110.52 119.716 114.045 115.781C118.043 111.266 122.784 107.469 128.063 104.554C128.39 104.374 128.606 104.914 128.282 105.093Z" fill="white"/>
<path d="M107.722 125.135C106.171 124.128 105.029 122.603 104.499 120.831C103.969 119.06 104.086 117.158 104.829 115.465C104.98 115.123 105.519 115.342 105.367 115.685C104.673 117.26 104.564 119.032 105.061 120.68C105.558 122.329 106.628 123.745 108.077 124.674C108.392 124.876 108.035 125.336 107.722 125.135Z" fill="white"/>
<path d="M104.814 140.828C108.518 140.075 111.801 137.953 114.01 134.887C114.229 134.583 114.689 134.938 114.471 135.241C112.166 138.429 108.744 140.629 104.889 141.405C104.521 141.478 104.448 140.901 104.814 140.828Z" fill="white"/>
<path d="M118.37 111.965C118.889 112.479 119.527 112.857 120.228 113.064C120.929 113.271 121.67 113.3 122.385 113.15C122.752 113.071 122.824 113.649 122.46 113.726C121.669 113.889 120.851 113.855 120.076 113.628C119.301 113.402 118.593 112.989 118.015 112.425C117.956 112.377 117.918 112.308 117.908 112.232C117.898 112.156 117.917 112.08 117.962 112.018C118.009 111.957 118.079 111.917 118.155 111.907C118.231 111.897 118.309 111.918 118.37 111.965Z" fill="white"/>
<path d="M160.437 33.902C160.505 34.2038 160.55 34.5106 160.571 34.8194L184.599 48.6814L190.44 45.3192L196.666 53.4703L186.905 60.4274C186.116 60.9894 185.167 61.2805 184.199 61.2569C183.231 61.2333 182.296 60.8963 181.536 60.2966L156.758 40.7493C155.64 41.1632 154.423 41.2269 153.267 40.9319C152.112 40.6368 151.074 39.9971 150.291 39.0976C149.508 38.1982 149.018 37.0818 148.885 35.8969C148.752 34.7119 148.983 33.5146 149.548 32.4642C150.112 31.4138 150.983 30.5601 152.044 30.0166C153.105 29.4731 154.307 29.2656 155.489 29.4217C156.671 29.5778 157.777 30.09 158.661 30.8904C159.545 31.6907 160.164 32.7411 160.437 33.902Z" fill="#FFB6B6"/>
<path d="M184.933 47.151C185.009 46.7974 185.16 46.4644 185.377 46.1747C185.594 45.8851 185.87 45.6456 186.188 45.4726L197.282 39.4282C198.759 38.3132 200.618 37.8296 202.451 38.0834C204.285 38.3372 205.943 39.3077 207.061 40.7821C208.18 42.2565 208.669 44.1145 208.42 45.9485C208.171 47.7825 207.204 49.4429 205.733 50.5656L196.842 59.598C196.588 59.8558 196.282 60.0558 195.944 60.1845C195.606 60.3132 195.244 60.3675 194.883 60.3438C194.522 60.3201 194.17 60.2188 193.852 60.0469C193.534 59.8751 193.256 59.6366 193.038 59.3478L185.383 49.1982C185.165 48.9095 185.012 48.5771 184.934 48.2238C184.857 47.8705 184.856 47.5046 184.933 47.151Z" fill="#3F3D56"/>
<path d="M204.752 12.0111C206.348 6.9243 209.977 2.25883 214.997 0.539202C220.017 -1.18042 227.368 1.43913 231.142 5.20032C238.045 12.0803 239.73 35.7155 234.987 43.1844C234.044 43.1345 230.788 43.0976 229.834 43.0618L228.483 38.5601V43.0175C221.03 42.7871 213.272 42.9313 205.509 43.0805C204.813 37.7924 203.155 17.098 204.752 12.0111Z" fill="#2F2E41"/>
<path d="M202.616 225.53H195.819L192.585 199.311L202.617 199.312L202.616 225.53Z" fill="#FFB6B6"/>
<path d="M262.12 221.303L255.542 223.018L245.8 198.462L255.508 195.933L262.12 221.303Z" fill="#FFB6B6"/>
<path d="M224.661 64.4992L226.201 68.5037L225.893 72.5081L195.75 82.9485L197.246 65.4233L200.634 61.4184L224.661 64.4992Z" fill="#FFB6B6"/>
<path d="M215.13 28.4626C221.076 28.4626 225.896 23.6425 225.896 17.6967C225.896 11.7508 221.076 6.93066 215.13 6.93066C209.184 6.93066 204.364 11.7508 204.364 17.6967C204.364 23.6425 209.184 28.4626 215.13 28.4626Z" fill="#FFB7B7"/>
<path d="M207.733 3.67739C209.801 2.41628 212.171 1.7341 214.593 1.70216C217.016 1.67023 219.402 2.28971 221.504 3.49584C223.605 4.70198 225.343 6.45046 226.537 8.55847C227.732 10.6665 228.337 13.0566 228.292 15.4789C222.423 16.9788 216.169 17.6062 209.542 15.8401L208.027 12.1325L207.134 15.8429C205.106 17.2691 203.149 17.2665 201.263 15.8352C201.183 13.4197 201.738 11.0256 202.874 8.89205C204.009 6.75854 205.685 4.96041 207.733 3.67739Z" fill="#2F2E41"/>
<path d="M205.657 238.437H200.833L199.972 233.883L197.767 238.437H184.975C184.362 238.437 183.764 238.241 183.271 237.878C182.777 237.514 182.412 237.002 182.229 236.417C182.047 235.832 182.056 235.203 182.256 234.624C182.456 234.044 182.836 233.543 183.341 233.195L193.557 226.139V221.536L204.302 222.177L205.657 238.437Z" fill="#2F2E41"/>
<path d="M268.914 232.87L264.247 234.087L262.265 229.898L261.28 234.86L248.901 238.087C248.307 238.242 247.68 238.203 247.11 237.976C246.541 237.749 246.059 237.345 245.734 236.825C245.41 236.305 245.261 235.694 245.308 235.083C245.355 234.471 245.597 233.891 245.997 233.427L254.103 224.023L252.942 219.568L263.502 217.478L268.914 232.87Z" fill="#2F2E41"/>
<path d="M261.286 204.815L241.361 163.864L235.106 114.022C239.419 106.013 231.41 89.7162 231.41 89.7162V82.8738L200.385 88.7268C194.04 106.034 190.963 124.369 191.31 142.8L192.56 209.055H192.168C191.518 209.055 190.893 209.313 190.433 209.773C189.973 210.233 189.715 210.858 189.715 211.508C189.715 212.159 189.973 212.783 190.433 213.243C190.893 213.703 191.518 213.962 192.168 213.962H204.437C205.088 213.962 205.712 213.703 206.172 213.243C206.632 212.783 206.89 212.159 206.89 211.508C206.89 210.858 206.632 210.233 206.172 209.773C205.712 209.313 205.088 209.055 204.437 209.055H204.12L212.928 124.767L223.168 166.361L247.916 204.658C247.285 204.707 246.697 204.999 246.277 205.472C245.856 205.946 245.635 206.563 245.661 207.196C245.686 207.829 245.956 208.427 246.413 208.865C246.87 209.303 247.479 209.547 248.112 209.545H260.381C260.952 209.546 261.504 209.347 261.944 208.984C262.384 208.621 262.684 208.115 262.791 207.555C262.898 206.994 262.807 206.414 262.532 205.914C262.257 205.414 261.816 205.025 261.286 204.815Z" fill="#2F2E41"/>
<path d="M234.215 93.9111C234.113 93.5107 233.887 93.1528 233.569 92.8888C233.251 92.6248 232.858 92.4682 232.446 92.4414C232.037 87.766 229.335 57.7812 229.232 56.9015L229.228 56.8643L228.446 40.1508C228.417 39.5438 228.166 38.9686 227.741 38.5349C227.315 38.1013 226.744 37.8397 226.138 37.8L222.006 37.5299C221.949 37.528 221.895 37.5042 221.856 37.4634C221.816 37.4226 221.794 37.3681 221.794 37.3114C221.794 36.855 221.704 36.4032 221.53 35.9815C221.355 35.5599 221.099 35.1768 220.776 34.8541C220.454 34.5314 220.071 34.2755 219.649 34.1008C219.227 33.9262 218.776 33.8363 218.319 33.8363H206.085C205.292 33.8366 204.527 34.1261 203.933 34.6505C203.339 35.1749 202.956 35.8982 202.858 36.6844C202.852 36.7386 202.827 36.7887 202.786 36.8247C202.745 36.8607 202.692 36.8801 202.638 36.8788L202.636 36.8788C201.246 36.8502 199.892 37.3208 198.819 38.2054C197.746 39.09 197.026 40.3298 196.789 41.7C195.116 51.4318 191.764 73.5194 193.422 85.7988C193.998 90.0735 193.736 96.5026 193.518 100.079C193.496 100.425 193.543 100.771 193.656 101.099C193.768 101.426 193.944 101.729 194.174 101.988C193.686 102.129 193.271 102.453 193.018 102.893C192.765 103.333 192.692 103.855 192.816 104.347C192.943 104.852 193.266 105.286 193.713 105.553C194.16 105.82 194.694 105.898 195.199 105.771L232.791 96.2943C233.296 96.167 233.73 95.8445 233.997 95.3975C234.264 94.9506 234.342 94.4159 234.215 93.9111Z" fill="#3F3D56"/>
<path d="M172.085 164.176C172.078 163.079 171.682 162.019 170.969 161.186C170.255 160.352 169.269 159.798 168.186 159.622L101.536 148.677C100.897 148.571 100.243 148.6 99.6158 148.762L83.9961 152.801L75.034 155.121L58.4948 159.397C57.4964 159.656 56.6123 160.239 55.9811 161.055C55.3498 161.871 55.0072 162.873 55.007 163.905V233.744C55.0119 234.809 55.3798 235.84 56.0499 236.667C56.72 237.495 57.6522 238.069 58.6927 238.295L126.58 237.526C126.898 237.595 127.224 237.628 127.55 237.627C128.025 237.628 128.497 237.556 128.95 237.414L169.284 238.417C170.235 238.12 171.066 237.524 171.653 236.718C172.239 235.911 172.55 234.937 172.539 233.94L172.085 164.176Z" fill="white"/>
<path d="M172.085 164.176C172.078 163.079 171.682 162.019 170.969 161.186C170.255 160.352 169.269 159.798 168.186 159.622L101.536 148.677C100.897 148.571 100.243 148.6 99.6158 148.762L83.9961 152.801L75.034 155.121L58.4948 159.397C57.4964 159.656 56.6123 160.239 55.9811 161.055C55.3498 161.871 55.0072 162.873 55.007 163.905V233.744C55.0119 234.809 55.3798 235.84 56.0499 236.667C56.72 237.495 57.6522 238.069 58.6927 238.295L126.58 237.526C126.898 237.595 127.224 237.628 127.55 237.627C128.025 237.628 128.497 237.556 128.95 237.414L169.284 238.417C170.235 238.12 171.066 237.524 171.653 236.718C172.239 235.911 172.55 234.937 172.539 233.94L172.085 164.176ZM168.934 237.308L128.601 238.267C128.026 238.446 127.414 238.476 126.824 238.352L58.9332 237.158C58.1532 236.988 57.4544 236.557 56.9522 235.936C56.45 235.316 56.1744 234.542 56.1709 233.744V163.905C56.1714 163.19 56.3911 162.492 56.8004 161.906C57.2097 161.32 57.7889 160.873 58.4599 160.626C58.5665 160.587 58.6753 160.553 58.7858 160.526L76.2833 156.002L86.6304 153.325L99.9068 149.891C100.191 149.815 100.485 149.778 100.78 149.779C100.969 149.779 101.159 149.794 101.346 149.825L167.996 160.77C168.532 160.858 169.04 161.07 169.481 161.388C169.921 161.707 170.281 162.123 170.533 162.605C170.785 163.094 170.918 163.635 170.921 164.184L171.375 233.948C171.383 234.696 171.15 235.426 170.711 236.032C170.271 236.637 169.648 237.084 168.934 237.308Z" fill="#CCCCCC"/>
<path d="M170.533 162.605C170.488 162.635 170.438 162.657 170.386 162.671L150.781 167.971L144.679 169.62L127.321 174.31C127.271 174.322 127.221 174.329 127.17 174.33C127.134 174.329 127.1 174.326 127.065 174.322L57.0749 161.562L56.8421 161.519C56.6905 161.49 56.5563 161.403 56.4689 161.276C56.3815 161.149 56.348 160.992 56.3757 160.84C56.4034 160.689 56.49 160.554 56.6167 160.466C56.7434 160.378 56.8997 160.344 57.0517 160.37L58.46 160.626L127.146 173.15L142.106 169.108L150.475 166.846L169.776 161.627L170.083 161.546C170.215 161.511 170.356 161.524 170.48 161.582C170.604 161.64 170.704 161.74 170.762 161.864C170.777 161.894 170.789 161.925 170.797 161.957C170.829 162.079 170.82 162.208 170.773 162.325C170.725 162.442 170.641 162.54 170.533 162.605Z" fill="#CCCCCC"/>
<path d="M127.751 237.763C127.432 237.763 127.173 237.506 127.169 239.149L126.588 175.716C126.585 173.432 126.843 173.169 127.164 173.166H127.169C127.489 173.166 127.748 173.423 127.751 175.705L128.333 239.138C128.336 237.497 128.078 237.76 127.757 237.763H127.751Z" fill="#CCCCCC"/>
<path d="M150.946 238.499L144.678 238.565L142.106 169.108L76.4733 156.048C76.409 156.037 76.3455 156.022 76.2832 156.002C75.779 155.858 75.3386 155.548 75.0339 155.121L83.996 152.801L86.6304 153.325L148.907 165.713C149.235 165.777 149.544 165.912 149.815 166.108C150.086 166.303 150.311 166.555 150.475 166.846C150.669 167.183 150.942 238.095 150.946 238.499Z" fill="#CCCCCC"/>
<path d="M201.15 37.0456C201.145 36.2184 200.847 35.4199 200.309 34.7915C199.771 34.1631 199.028 33.7456 198.212 33.6129L147.981 25.3644C147.499 25.2847 147.006 25.3066 146.534 25.4287L134.762 28.4726L128.008 30.2211L115.543 33.4433C114.79 33.6387 114.124 34.0783 113.648 34.6932C113.173 35.3081 112.914 36.0635 112.914 36.8409V78.0101C112.918 78.8125 113.195 79.5897 113.7 80.2132C114.205 80.8368 114.908 81.2695 115.692 81.4399L166.855 92.3258C167.095 92.3774 167.341 92.4029 167.586 92.4018C167.944 92.4025 168.3 92.3483 168.642 92.241L199.039 82.6417C199.757 82.4178 200.383 81.9686 200.825 81.3608C201.266 80.753 201.501 80.0189 201.492 79.2674L201.15 37.0456Z" fill="white"/>
<path d="M147.412 28.3877C147.376 28.3877 147.339 28.3924 147.304 28.4017L116.312 36.4163C116.218 36.4406 116.135 36.4955 116.076 36.5722C116.016 36.649 115.984 36.7433 115.984 36.8403V78.0089C115.984 78.1092 116.019 78.2063 116.082 78.2843C116.145 78.3622 116.233 78.4163 116.331 78.4375L167.494 89.3233C167.568 89.3388 167.645 89.3351 167.717 89.3124L198.115 79.7133C198.205 79.6854 198.283 79.6293 198.338 79.5533C198.393 79.4774 198.422 79.3857 198.421 79.2919L198.081 37.0702C198.08 36.9669 198.043 36.8672 197.975 36.7887C197.908 36.7103 197.815 36.6582 197.713 36.6416L147.483 28.3934C147.46 28.3897 147.436 28.3878 147.412 28.3877Z" fill="#8FDEBE"/>
<path d="M201.15 37.0456C201.145 36.2184 200.847 35.4199 200.309 34.7915C199.771 34.1631 199.028 33.7456 198.212 33.6129L147.981 25.3644C147.499 25.2847 147.006 25.3066 146.534 25.4287L134.762 28.4726L128.008 30.2211L115.543 33.4433C114.79 33.6387 114.124 34.0783 113.648 34.6932C113.173 35.3081 112.914 36.0635 112.914 36.8409V78.0101C112.918 78.8125 113.195 79.5897 113.7 80.2132C114.205 80.8368 114.908 81.2695 115.692 81.4399L166.855 92.3258C167.095 92.3774 167.341 92.4029 167.586 92.4018C167.944 92.4025 168.3 92.3483 168.642 92.241L199.039 82.6417C199.757 82.4178 200.383 81.9686 200.825 81.3608C201.266 80.753 201.501 80.0189 201.492 79.2674L201.15 37.0456ZM198.776 81.8054L168.379 91.4047C167.945 91.5398 167.484 91.562 167.039 91.4691L115.873 80.5832C115.285 80.455 114.759 80.1303 114.38 79.6625C114.002 79.1947 113.794 78.6119 113.791 78.0101V36.8409C113.792 36.3021 113.957 35.7764 114.266 35.3346C114.574 34.8928 115.011 34.5562 115.516 34.3702C115.597 34.34 115.679 34.3147 115.762 34.2942L128.949 30.8848L136.747 28.8673L146.753 26.2796C146.968 26.2224 147.189 26.1938 147.411 26.1948C147.554 26.1948 147.697 26.2065 147.838 26.2299L198.068 34.4784C198.473 34.5447 198.856 34.7042 199.188 34.9443C199.52 35.1843 199.791 35.4983 199.981 35.8614C200.17 36.2296 200.271 36.6373 200.273 37.0515L200.615 79.2733C200.621 79.837 200.446 80.3877 200.115 80.8438C199.783 81.2999 199.314 81.6371 198.776 81.8054Z" fill="#3F3D56"/>
<path d="M199.981 35.8614C199.947 35.8838 199.909 35.9006 199.87 35.9111L185.095 39.9052L180.495 41.1479L167.414 44.683C167.376 44.6921 167.338 44.697 167.3 44.6976C167.273 44.6971 167.247 44.6951 167.221 44.6917L114.473 35.0749L114.297 35.0427C114.183 35.0213 114.082 34.9555 114.016 34.8597C113.95 34.7638 113.924 34.6458 113.945 34.5314C113.966 34.4169 114.031 34.3154 114.127 34.249C114.223 34.1827 114.341 34.1568 114.455 34.1772L115.516 34.3702L167.282 43.8087L178.557 40.7619L184.864 39.0573L199.41 35.1246L199.641 35.0632C199.741 35.0368 199.847 35.0464 199.941 35.0902C200.034 35.1341 200.109 35.2093 200.153 35.3029C200.164 35.3253 200.173 35.3488 200.179 35.3731C200.204 35.465 200.197 35.5623 200.161 35.6504C200.126 35.7384 200.062 35.8125 199.981 35.8614Z" fill="#3F3D56"/>
<path d="M167.738 92.5042C167.623 92.5042 167.512 92.4585 167.429 92.3771C167.347 92.2957 167.301 92.1852 167.3 92.0696L166.861 44.263C166.86 44.1467 166.905 44.0347 166.987 43.9517C167.068 43.8687 167.179 43.8215 167.296 43.8204H167.3C167.415 43.8204 167.526 43.866 167.608 43.9474C167.69 44.0288 167.737 44.1394 167.738 44.255L168.177 92.0616C168.178 92.1779 168.133 92.2899 168.051 92.3729C167.97 92.4559 167.858 92.5031 167.742 92.5042H167.738Z" fill="#3F3D56"/>
<path d="M185.095 86.6884L180.495 87.9311L178.557 40.7619L129.092 30.9199C129.044 30.9113 128.996 30.8996 128.949 30.8848C128.569 30.7766 128.237 30.5426 128.007 30.2211L134.762 28.4726L136.747 28.8673L183.682 38.2035C183.929 38.2522 184.163 38.3538 184.367 38.5011C184.57 38.6485 184.74 38.8382 184.864 39.0573C185.01 39.3117 185.092 86.3844 185.095 86.6884Z" fill="#3F3D56"/>
<path d="M183.034 59.7945C183.269 59.9957 183.488 60.2152 183.689 60.4508L211.242 57.2329L213.922 51.0494L223.782 53.8738L220.102 65.2814C219.805 66.203 219.217 67.0033 218.426 67.5621C217.635 68.121 216.684 68.4082 215.716 68.3807L184.169 67.4839C183.519 68.4833 182.58 69.2612 181.477 69.7139C180.374 70.1667 179.159 70.2729 177.994 70.0184C176.829 69.7639 175.77 69.1608 174.956 68.2893C174.142 67.4178 173.613 66.3192 173.439 65.1396C173.265 63.96 173.454 62.7554 173.981 61.6859C174.508 60.6164 175.348 59.7328 176.39 59.1526C177.432 58.5723 178.625 58.3229 179.812 58.4376C180.999 58.5523 182.123 59.0256 183.034 59.7945Z" fill="#FFB6B6"/>
<path d="M91.1334 20.7479C89.5988 15.8573 86.1092 11.3719 81.2832 9.71858C76.4568 8.0653 69.3898 10.5838 65.7615 14.1998C59.1245 20.8143 57.5048 43.5376 62.0647 50.7183C62.9717 50.6703 66.1013 50.6348 67.0192 50.6004L68.3178 46.2724V50.5578C75.4827 50.3364 82.9421 50.475 90.4055 50.6184C91.0744 45.5343 92.668 25.6384 91.1334 20.7479Z" fill="#2F2E41"/>
<path d="M93.1869 226.028H99.7218L102.831 200.821L93.1855 200.822L93.1869 226.028Z" fill="#FFB6B6"/>
<path d="M35.9789 221.965L42.3025 223.613L51.6692 200.005L42.336 197.573L35.9789 221.965Z" fill="#FFB6B6"/>
<path d="M81.1553 36.5646C75.4388 36.5646 70.8047 31.9305 70.8047 26.214C70.8047 20.4975 75.4388 15.8634 81.1553 15.8634C86.8717 15.8634 91.5059 20.4975 91.5059 26.214C91.5059 31.9305 86.8717 36.5646 81.1553 36.5646Z" fill="#FFB7B7"/>
<path d="M88.2674 12.7357C86.2786 11.5232 84.0006 10.8674 81.6716 10.8367C79.3425 10.806 77.048 11.4015 75.0279 12.5611C73.0079 13.7207 71.3364 15.4018 70.1884 17.4284C69.0403 19.4551 68.4578 21.753 68.5019 24.0818C74.144 25.5239 80.1565 26.127 86.5281 24.4291L87.9845 20.8645L88.8432 24.4318C90.7925 25.8029 92.6739 25.8005 94.4875 24.4243C94.5644 22.1021 94.0304 19.8003 92.9389 17.7491C91.8473 15.6979 90.2365 13.9692 88.2674 12.7357Z" fill="#2F2E41"/>
<path d="M90.2634 238.437H94.9006L95.7283 234.059L97.8482 238.437H110.147C110.737 238.437 111.311 238.249 111.786 237.899C112.261 237.55 112.611 237.058 112.787 236.495C112.962 235.932 112.953 235.328 112.761 234.771C112.569 234.213 112.203 233.732 111.718 233.397L101.897 226.614V222.188L91.566 222.804L90.2634 238.437Z" fill="#2F2E41"/>
<path d="M29.4469 233.085L33.9341 234.255L35.8394 230.227L36.7865 234.998L48.6878 238.101C49.2583 238.249 49.8613 238.212 50.409 237.994C50.9566 237.775 51.4201 237.388 51.7319 236.887C52.0436 236.387 52.1872 235.8 52.1418 235.212C52.0963 234.624 51.8642 234.067 51.4792 233.62L43.6861 224.579L44.8026 220.296L34.6504 218.287L29.4469 233.085Z" fill="#2F2E41"/>
<path d="M36.7807 206.112L55.9365 166.742L61.9499 118.822C57.8038 111.122 65.5037 95.4546 65.5037 95.4546V88.8763L95.3313 94.5034C101.432 111.143 104.39 128.771 104.056 146.49L102.854 210.188H103.231C103.857 210.188 104.457 210.437 104.899 210.879C105.342 211.322 105.59 211.922 105.59 212.547C105.59 213.173 105.342 213.773 104.899 214.215C104.457 214.658 103.857 214.906 103.231 214.906H91.4362C90.8106 214.906 90.2106 214.658 89.7682 214.215C89.3258 213.773 89.0772 213.173 89.0772 212.547C89.0772 211.922 89.3258 211.322 89.7682 210.879C90.2106 210.437 90.8106 210.188 91.4362 210.188H91.7404L83.2729 129.153L73.4273 169.142L49.6345 205.961C50.2414 206.008 50.8063 206.289 51.2107 206.744C51.615 207.199 51.8272 207.793 51.8028 208.402C51.7784 209.01 51.5192 209.585 51.0797 210.006C50.6402 210.427 50.0545 210.662 49.4458 210.66H37.6507C37.1021 210.661 36.5705 210.47 36.1475 210.121C35.7245 209.771 35.4367 209.285 35.3336 208.746C35.2306 208.208 35.3187 207.65 35.5829 207.169C35.847 206.688 36.2706 206.314 36.7807 206.112Z" fill="#2F2E41"/>
<path d="M62.8069 99.4876C62.9049 99.1027 63.1223 98.7587 63.4279 98.5048C63.7334 98.251 64.1115 98.1004 64.5079 98.0747C64.901 93.5797 67.4988 64.7518 67.5976 63.9061L67.6015 63.8703L68.3537 47.8018C68.381 47.2182 68.6223 46.6651 69.0316 46.2482C69.4409 45.8313 69.9894 45.5798 70.5723 45.5417L74.5453 45.282C74.5998 45.2802 74.6515 45.2572 74.6894 45.218C74.7273 45.1788 74.7485 45.1264 74.7485 45.0719C74.7485 44.6332 74.8349 44.1987 75.0028 43.7933C75.1707 43.388 75.4168 43.0197 75.727 42.7094C76.0373 42.3992 76.4056 42.1531 76.8109 41.9852C77.2163 41.8173 77.6507 41.7309 78.0895 41.7309H89.8521C90.6139 41.7312 91.3495 42.0095 91.9207 42.5137C92.492 43.0179 92.8595 43.7132 92.9545 44.4691C92.9597 44.5212 92.9844 44.5693 93.0235 44.604C93.0627 44.6386 93.1135 44.6572 93.1658 44.656L93.1672 44.656C94.5038 44.6285 95.8059 45.081 96.8374 45.9314C97.8688 46.7818 98.5613 47.9739 98.789 49.2911C100.397 58.6475 103.62 79.8828 102.026 91.6884C101.472 95.7981 101.724 101.979 101.934 105.418C101.954 105.75 101.91 106.083 101.801 106.398C101.693 106.713 101.524 107.003 101.303 107.253C101.773 107.388 102.171 107.7 102.414 108.123C102.658 108.547 102.727 109.048 102.609 109.521C102.486 110.007 102.176 110.423 101.746 110.68C101.317 110.937 100.803 111.012 100.317 110.89L64.1756 101.779C63.6903 101.657 63.2734 101.346 63.0168 100.917C62.7601 100.487 62.6846 99.973 62.8069 99.4876Z" fill="#3F3D56"/>
<path d="M112.013 66.6875C111.787 66.8809 111.576 67.0919 111.383 67.3184L84.8933 64.2247L82.3171 58.2798L72.837 60.9952L76.375 71.9627C76.6608 72.8487 77.2263 73.6181 77.9867 74.1554C78.747 74.6927 79.6611 74.9688 80.5917 74.9423L110.922 74.0801C111.547 75.041 112.45 75.7889 113.51 76.2242C114.571 76.6594 115.738 76.7615 116.858 76.5169C117.978 76.2722 118.997 75.6924 119.78 74.8545C120.562 74.0166 121.071 72.9604 121.238 71.8263C121.405 70.6923 121.224 69.5341 120.717 68.5059C120.21 67.4777 119.402 66.6282 118.401 66.0703C117.399 65.5124 116.252 65.2727 115.111 65.3829C113.97 65.4932 112.889 65.9482 112.013 66.6875Z" fill="#FFB6B6"/>
<path d="M210.597 55.8057C210.447 55.4765 210.37 55.1188 210.371 54.7571C210.372 54.3954 210.451 54.0382 210.602 53.7098L215.896 42.2391C216.416 40.4629 217.619 38.9654 219.242 38.075C220.864 37.1846 222.774 36.974 224.551 37.4893C226.329 38.0045 227.83 39.2037 228.724 40.8238C229.619 42.4439 229.835 44.3527 229.324 46.1316L227.581 58.6855C227.531 59.0438 227.405 59.3871 227.21 59.6921C227.016 59.9971 226.758 60.2566 226.454 60.453C226.15 60.6494 225.808 60.7779 225.45 60.83C225.092 60.882 224.727 60.8563 224.38 60.7546L212.18 57.1794C211.833 57.0778 211.512 56.9025 211.238 56.6654C210.965 56.4284 210.746 56.1351 210.597 55.8057Z" fill="#3F3D56"/>
<path d="M303.022 239.01H0.582617C0.427941 239.009 0.279748 238.948 0.170533 238.838C0.0613187 238.728 0 238.58 0 238.425C0 238.271 0.0613187 238.122 0.170533 238.013C0.279748 237.903 0.427941 237.842 0.582617 237.841H303.022C303.177 237.841 303.325 237.903 303.435 238.012C303.545 238.122 303.606 238.27 303.606 238.425C303.606 238.58 303.545 238.729 303.435 238.839C303.325 238.948 303.177 239.01 303.022 239.01Z" fill="#CACACA"/>
<path d="M133.771 66.0045C133.716 66.0045 133.662 65.9984 133.609 65.9863L118.396 62.5512C118.205 62.508 118.04 62.3911 117.936 62.2261C117.832 62.0611 117.798 61.8615 117.84 61.6713C117.883 61.481 118 61.3155 118.165 61.2112C118.33 61.1069 118.529 61.0722 118.72 61.1149L133.932 64.5501C134.109 64.59 134.265 64.6936 134.37 64.841C134.475 64.9885 134.522 65.1695 134.502 65.3495C134.482 65.5295 134.396 65.6958 134.262 65.8166C134.127 65.9374 133.952 66.0043 133.771 66.0045Z" fill="white"/>
<path d="M75.2228 204.263C75.1693 204.274 75.1147 204.279 75.06 204.278L59.4663 204.016C59.2714 204.012 59.0858 203.931 58.9504 203.791C58.815 203.651 58.7408 203.463 58.744 203.268C58.7472 203.073 58.8277 202.887 58.9677 202.751C59.1077 202.615 59.2958 202.541 59.4908 202.544L75.0845 202.806C75.2655 202.809 75.4391 202.879 75.572 203.002C75.7049 203.125 75.7878 203.293 75.8049 203.473C75.8221 203.653 75.7722 203.833 75.6648 203.979C75.5574 204.125 75.4 204.226 75.2228 204.263Z" fill="#E6E6E6"/>
<path d="M80.6209 212.606C80.5674 212.617 80.5128 212.622 80.4581 212.621L64.8644 212.358C64.6695 212.355 64.4839 212.274 64.3485 212.134C64.2131 211.993 64.1388 211.805 64.1421 211.61C64.1453 211.415 64.2258 211.229 64.3658 211.094C64.5058 210.958 64.6939 210.883 64.8889 210.886L80.4826 211.149C80.6636 211.152 80.8372 211.222 80.9701 211.345C81.103 211.468 81.1859 211.635 81.203 211.815C81.2201 211.996 81.1702 212.176 81.0628 212.322C80.9555 212.468 80.7981 212.569 80.6209 212.606Z" fill="#E6E6E6"/>
<path d="M315.432 98.6274C315.31 98.9632 315.189 99.299 315.068 99.6349C315.045 99.699 315.021 99.7623 314.999 99.8264C314.69 100.682 314.381 101.538 314.071 102.394C313.974 102.443 313.875 102.491 313.776 102.539C313.694 102.579 313.612 102.618 313.53 102.657C313.507 102.668 313.485 102.679 313.462 102.689C313.394 102.721 313.326 102.753 313.257 102.785C313.183 102.82 313.108 102.854 313.034 102.888C312.95 102.926 312.867 102.963 312.784 103C312.74 102.887 312.716 102.767 312.71 102.646C312.707 102.456 312.729 102.267 312.777 102.083C312.85 101.779 312.967 101.481 313.044 101.176C313.048 101.162 313.051 101.147 313.055 101.133C313.226 100.405 313.147 99.6416 312.83 98.9649C312.64 98.5616 312.366 98.1946 312.247 97.7642C312.144 97.3602 312.19 96.9324 312.376 96.5593C312.446 96.4147 312.533 96.2792 312.635 96.156C312.66 96.1248 312.686 96.0953 312.713 96.0657C312.961 95.7931 313.291 95.6081 313.653 95.5384C314.346 95.4152 315.07 95.7839 315.457 96.3627C315.616 96.5953 315.712 96.8645 315.738 97.1449C315.78 97.652 315.605 98.149 315.432 98.6274Z" fill="#E4E4E4"/>
<path d="M313.519 102.055C313.36 101.762 313.094 101.505 313.044 101.176C312.879 100.12 312.482 99.3623 311.825 98.9329C311.634 98.8088 311.604 98.5346 311.487 98.3372C311.434 98.2486 311.381 98.16 311.326 98.0731C311.238 97.9288 311.146 97.7873 311.05 97.6487C310.868 97.3806 310.667 97.1257 310.45 96.8859C310.36 96.7855 310.264 96.6885 310.165 96.5965L310.165 96.5956C310.103 96.5366 310.041 96.48 309.976 96.4252C309.95 96.4033 309.924 96.3813 309.897 96.3594L309.895 96.3577C309.781 96.2589 309.662 96.1665 309.538 96.0809C309.252 95.8877 308.928 95.7536 308.597 95.8607C308.467 95.9054 308.341 95.9631 308.222 96.0329C308.162 96.0674 308.102 96.1037 308.042 96.14C308.001 96.1645 307.961 96.1889 307.92 96.2143C307.887 96.2337 307.854 96.2531 307.821 96.2716C307.567 96.4185 307.311 96.5625 307.054 96.7036C307.017 96.7247 306.979 96.745 306.941 96.7652H306.941C306.914 96.7804 306.887 96.7948 306.86 96.8091C306.809 96.8378 306.757 96.8665 306.705 96.8943C306.551 96.9779 306.396 97.0606 306.241 97.1424C306.162 97.1846 306.082 97.2251 306.001 97.2656C305.964 97.2841 305.927 97.3027 305.891 97.3221H305.89C305.877 97.3289 305.864 97.3356 305.85 97.3424C305.741 97.3989 305.633 97.4571 305.528 97.5204C305.225 97.7032 304.961 97.9451 304.753 98.2317C304.712 98.2874 304.673 98.3448 304.638 98.4038C304.591 98.4802 304.549 98.5591 304.511 98.6401C304.485 98.6949 304.461 98.7498 304.439 98.8055V98.8063C304.231 99.3396 304.202 99.9258 304.356 100.477V100.478C304.366 100.516 304.377 100.553 304.39 100.59C304.41 100.652 304.433 100.715 304.458 100.776C304.486 100.843 304.518 100.91 304.553 100.974V100.975C304.74 101.295 304.975 101.586 305.248 101.837L305.256 101.846C305.29 101.878 305.325 101.912 305.359 101.945C305.377 101.963 305.396 101.981 305.417 101.997C305.709 102.248 306.18 102.438 306.447 102.695C306.59 102.833 306.673 102.989 306.64 103.184C306.552 103.701 306.572 104.036 306.661 104.251C306.904 104.838 307.667 104.54 308.189 104.655C308.245 104.64 308.301 104.624 308.356 104.608C309.537 104.272 310.698 103.87 311.834 103.405C312.152 103.275 312.47 103.14 312.784 103C312.867 102.963 312.95 102.926 313.033 102.888C313.108 102.854 313.183 102.82 313.257 102.785C313.325 102.753 313.394 102.721 313.462 102.689C313.485 102.679 313.507 102.668 313.53 102.657C313.611 102.618 313.694 102.579 313.776 102.539C313.692 102.376 313.605 102.215 313.519 102.055Z" fill="#E4E4E4"/>
<path d="M307.345 93.863C307.523 93.3274 307.279 92.974 306.651 92.7865C306.63 92.7671 306.604 92.7534 306.576 92.7466C306.548 92.7398 306.518 92.7401 306.49 92.7476C306.462 92.7551 306.437 92.7695 306.416 92.7895C306.395 92.8094 306.379 92.8343 306.37 92.8619L305.822 94.4854C305.249 94.3388 304.829 94.4392 304.738 95.006C304.964 94.4287 304.751 94.0665 304.115 93.912C304.094 93.8914 304.069 93.8763 304.041 93.8682C304.012 93.8602 303.983 93.8593 303.954 93.8658C303.926 93.8722 303.9 93.8857 303.878 93.9051C303.856 93.9245 303.839 93.9491 303.83 93.9766L303.469 95.4388C303.03 96.0999 302.815 96.8841 302.854 97.6766C302.894 98.469 303.186 99.228 303.688 99.8422C304.191 100.456 304.876 100.894 305.645 101.09C306.414 101.286 307.225 101.23 307.96 100.931C308.696 100.633 309.315 100.106 309.729 99.4292C310.143 98.7524 310.33 97.9607 310.261 97.1702C310.192 96.3798 309.872 95.6321 309.347 95.037C308.822 94.4418 308.121 94.0304 307.345 93.863Z" fill="#E4E4E4"/>
<path d="M306.997 98.4899C306.922 98.5295 306.836 98.5382 306.755 98.5139C306.675 98.4897 306.607 98.4345 306.568 98.3605C306.562 98.35 306.561 98.3376 306.564 98.3261C306.568 98.3147 306.576 98.3051 306.586 98.2994C306.597 98.2937 306.609 98.2925 306.621 98.2959C306.632 98.2994 306.642 98.3072 306.647 98.3177C306.676 98.3705 306.724 98.4099 306.781 98.4271C306.839 98.4444 306.901 98.4382 306.954 98.4098C307.006 98.3815 307.046 98.3333 307.063 98.2759C307.081 98.2185 307.074 98.1566 307.046 98.1037C307.04 98.0932 307.039 98.0808 307.043 98.0693C307.046 98.0579 307.054 98.0483 307.065 98.0426C307.075 98.0369 307.088 98.0357 307.099 98.0391C307.111 98.0426 307.12 98.0504 307.126 98.0609C307.166 98.135 307.174 98.2217 307.15 98.3022C307.126 98.3826 307.07 98.4501 306.997 98.4899Z" fill="white"/>
<path d="M306.665 97.8242C306.841 97.7297 306.955 97.5981 306.918 97.5303C306.882 97.4625 306.709 97.4843 306.533 97.5788C306.357 97.6734 306.244 97.805 306.28 97.8727C306.316 97.9405 306.489 97.9188 306.665 97.8242Z" fill="white"/>
<path d="M304.792 97.939C304.816 97.8235 304.865 97.7146 304.935 97.62C305.006 97.5254 305.096 97.4475 305.2 97.3917C305.304 97.3359 305.419 97.3037 305.537 97.2972C305.655 97.2907 305.773 97.3101 305.882 97.3542C305.937 97.1858 305.941 97.0049 305.893 96.8343C305.845 96.6637 305.748 96.5111 305.614 96.3958C305.479 96.2805 305.314 96.2076 305.138 96.1865C304.962 96.1653 304.784 96.1968 304.626 96.2769C304.468 96.357 304.337 96.4822 304.25 96.6366C304.163 96.791 304.124 96.9676 304.138 97.1443C304.151 97.3209 304.217 97.4895 304.326 97.6289C304.436 97.7682 304.584 97.872 304.752 97.927C304.765 97.9313 304.779 97.9353 304.792 97.939Z" fill="white"/>
<path d="M305.06 97.6139C305.23 97.6139 305.368 97.4759 305.368 97.3058C305.368 97.1356 305.23 96.9977 305.06 96.9977C304.889 96.9977 304.751 97.1356 304.751 97.3058C304.751 97.4759 304.889 97.6139 305.06 97.6139Z" fill="#3F3D56"/>
<path d="M306.925 96.8303C306.949 96.7147 306.997 96.6058 307.068 96.5112C307.139 96.4167 307.229 96.3387 307.333 96.283C307.437 96.2272 307.552 96.1949 307.67 96.1884C307.787 96.1819 307.905 96.2014 308.015 96.2454C308.07 96.077 308.074 95.8961 308.026 95.7255C307.978 95.5549 307.881 95.4023 307.746 95.287C307.612 95.1717 307.446 95.0989 307.27 95.0777C307.094 95.0565 306.916 95.088 306.758 95.1681C306.6 95.2482 306.47 95.3734 306.383 95.5278C306.296 95.6822 306.257 95.8589 306.27 96.0355C306.284 96.2121 306.35 96.3808 306.459 96.5201C306.568 96.6594 306.717 96.7632 306.885 96.8183C306.898 96.8226 306.911 96.8266 306.925 96.8303Z" fill="white"/>
<path d="M307.306 96.4879C307.476 96.4879 307.614 96.35 307.614 96.1798C307.614 96.0096 307.476 95.8717 307.306 95.8717C307.135 95.8717 306.997 96.0096 306.997 96.1798C306.997 96.35 307.135 96.4879 307.306 96.4879Z" fill="#3F3D56"/>
<path d="M308.852 96.1585L307.8 97.2305L307.906 97.3347L308.958 96.2627L308.852 96.1585Z" fill="white"/>
<path d="M309.186 96.6772L307.915 97.4774L307.994 97.6033L309.265 96.8031L309.186 96.6772Z" fill="white"/>
<path d="M305.543 98.4415L304.068 98.7255L304.096 98.8716L305.571 98.5876L305.543 98.4415Z" fill="white"/>
<path d="M305.685 98.674L304.315 99.2908L304.377 99.4264L305.746 98.8097L305.685 98.674Z" fill="white"/>
<path d="M262.253 75.79C259.368 73.1937 257.621 69.0649 258.695 65.3352C261.118 68.7913 264.685 71.2791 268.765 72.3585C270.34 72.769 272.135 73.0617 273.093 74.3774C273.689 75.1961 273.828 76.278 273.686 77.2809C273.545 78.2839 273.151 79.231 272.76 80.1654L272.781 80.4174C268.971 79.6761 265.138 78.3864 262.253 75.79Z" fill="#E6E6E6"/>
<path d="M258.775 65.3469C259.509 68.4399 261.235 71.3187 263.657 73.3847C264.18 73.8313 264.75 74.2389 265.39 74.5023C266.015 74.7544 266.696 74.8344 267.363 74.734C267.987 74.653 268.615 74.4978 269.247 74.5697C269.914 74.6455 270.47 75.019 270.859 75.5567C271.335 76.2146 271.546 77.0043 271.726 77.7838C271.926 78.6492 272.119 79.5513 272.69 80.2586C272.76 80.3443 272.623 80.4467 272.553 80.3611C271.559 79.1305 271.695 77.4271 270.975 76.0673C270.639 75.4328 270.11 74.8957 269.381 74.7624C268.744 74.6459 268.096 74.8053 267.465 74.8928C266.803 74.9848 266.163 74.9625 265.528 74.7382C264.878 74.5087 264.291 74.1226 263.758 73.6913C262.557 72.7042 261.519 71.5345 260.682 70.2249C259.718 68.7356 259.015 67.0924 258.605 65.3664C258.58 65.2595 258.75 65.2408 258.775 65.3469Z" fill="white"/>
<path d="M262.834 72.7547C262.426 73.1148 261.904 73.3182 261.36 73.3287C260.816 73.3392 260.287 73.1561 259.865 72.812C259.78 72.7421 259.885 72.6067 259.97 72.6767C260.362 72.9979 260.855 73.1684 261.362 73.1576C261.868 73.1468 262.354 72.9553 262.732 72.6177C262.814 72.5445 262.916 72.6818 262.834 72.7547Z" fill="white"/>
<path d="M267.052 74.8168C267.131 73.7076 266.789 72.6096 266.094 71.7416C266.025 71.6557 266.162 71.5533 266.231 71.6391C266.952 72.5437 267.306 73.6871 267.222 74.8411C267.214 74.9511 267.044 74.9262 267.052 74.8168Z" fill="white"/>
<path d="M259.941 68.6982C260.128 68.5917 260.285 68.4405 260.399 68.2582C260.513 68.0759 260.58 67.8681 260.594 67.6535C260.6 67.5435 260.77 67.5685 260.763 67.6779C260.747 67.9148 260.673 68.1442 260.547 68.3459C260.422 68.5476 260.249 68.7156 260.044 68.8351C260.025 68.848 260.003 68.8534 259.98 68.8502C259.958 68.847 259.938 68.8354 259.924 68.8179C259.911 68.7997 259.905 68.7769 259.908 68.7545C259.911 68.7321 259.923 68.7118 259.941 68.6982Z" fill="white"/>
<path d="M270.743 60.088C270.74 60.1568 270.738 60.2257 270.737 60.2954C270.712 61.2209 270.762 62.1469 270.886 63.0643C270.895 63.1354 270.904 63.2073 270.915 63.278C271.239 65.4851 271.969 67.6128 273.07 69.5532C273.508 70.3249 274.005 71.0621 274.556 71.7584C275.316 72.72 276.217 73.7022 276.604 74.8258C276.645 74.9425 276.68 75.0618 276.707 75.1828L273.086 80.3726C273.072 80.3803 273.059 80.3888 273.045 80.3965L272.91 80.6103C272.879 80.5764 272.848 80.5406 272.817 80.5066C272.799 80.487 272.782 80.4663 272.764 80.4466C272.752 80.4332 272.74 80.4197 272.729 80.4083C272.725 80.4038 272.721 80.3993 272.718 80.3957C272.707 80.3842 272.697 80.3723 272.687 80.3617C272.512 80.1618 272.337 79.9603 272.164 79.7572C272.163 79.7563 272.163 79.7563 272.162 79.7544C270.845 78.2034 269.645 76.5289 268.738 74.7256C268.711 74.6713 268.683 74.6163 268.657 74.5597C268.252 73.7445 267.915 72.8977 267.649 72.0277C267.505 71.5508 267.384 71.0669 267.289 70.5779C267.045 69.3138 267.001 68.0193 267.159 66.7416C267.475 64.1947 268.602 61.777 270.59 60.2065C270.64 60.1664 270.691 60.1273 270.743 60.088Z" fill="#E6E6E6"/>
<path d="M270.8 60.1456C269.524 63.0566 269.169 66.3944 269.859 69.5022C270.008 70.1741 270.217 70.8427 270.569 71.438C270.917 72.0157 271.413 72.4898 272.005 72.811C272.552 73.1217 273.147 73.3761 273.609 73.8142C274.095 74.276 274.315 74.9094 274.302 75.5729C274.286 76.3848 273.979 77.1424 273.653 77.8729C273.291 78.684 272.902 79.5207 272.933 80.4295C272.937 80.5396 272.765 80.5388 272.762 80.4289C272.709 78.8479 273.843 77.5697 274.087 76.0505C274.201 75.3416 274.102 74.5941 273.6 74.0489C273.161 73.5721 272.548 73.3092 271.992 72.9994C271.408 72.6742 270.909 72.2708 270.537 71.7092C270.157 71.1348 269.92 70.473 269.755 69.8079C269.39 68.2968 269.266 66.7378 269.385 65.188C269.512 63.4185 269.941 61.6837 270.653 60.0588C270.697 59.9582 270.844 60.0457 270.8 60.1456Z" fill="white"/>
<path d="M269.581 68.5038C269.039 68.5459 268.499 68.3939 268.058 68.0748C267.618 67.7558 267.305 67.2905 267.176 66.7622C267.15 66.6552 267.315 66.6101 267.341 66.7172C267.46 67.2095 267.752 67.6428 268.163 67.9391C268.573 68.2353 269.077 68.375 269.581 68.3328C269.691 68.3237 269.69 68.4948 269.581 68.5038Z" fill="white"/>
<path d="M271.707 72.6901C272.438 71.8518 272.826 70.7691 272.793 69.6576C272.79 69.5475 272.961 69.5482 272.965 69.6582C272.996 70.8148 272.59 71.9408 271.828 72.8114C271.755 72.8943 271.635 72.7725 271.707 72.6901Z" fill="white"/>
<path d="M269.713 63.5233C269.927 63.5507 270.143 63.5248 270.344 63.4478C270.545 63.3708 270.723 63.2451 270.863 63.0821C270.935 62.9983 271.055 63.1202 270.984 63.2035C270.828 63.3828 270.631 63.5214 270.409 63.6069C270.188 63.6925 269.949 63.7225 269.713 63.6943C269.69 63.6936 269.669 63.6842 269.653 63.6683C269.638 63.6524 269.628 63.631 269.628 63.6085C269.628 63.5859 269.637 63.5642 269.653 63.5483C269.669 63.5323 269.691 63.5233 269.713 63.5233Z" fill="white"/>
<path d="M303.814 60.4341C304.317 57.6526 303.481 54.4965 301.2 52.828C301.346 55.8983 300.402 58.9215 298.535 61.3627C297.811 62.3016 296.908 63.2705 296.943 64.4554C296.965 65.1927 297.368 65.8774 297.896 66.3918C298.425 66.9063 299.075 67.2756 299.716 67.6392L299.817 67.7935C301.68 65.6676 303.311 63.2156 303.814 60.4341Z" fill="#E6E6E6"/>
<path d="M301.159 52.8707C302.125 55.0011 302.396 57.3821 301.933 59.6753C301.842 60.1708 301.674 60.6488 301.434 61.0918C301.186 61.5158 300.83 61.8657 300.401 62.1052C300.006 62.3366 299.575 62.5276 299.243 62.851C299.076 63.019 298.946 63.2206 298.861 63.4424C298.777 63.6643 298.741 63.9014 298.755 64.1383C298.774 64.7293 299.005 65.2782 299.249 65.807C299.52 66.3942 299.811 66.9999 299.798 67.6619C299.796 67.7421 299.921 67.74 299.922 67.6599C299.946 66.508 299.108 65.588 298.916 64.484C298.826 63.9689 298.891 63.4236 299.252 63.0218C299.567 62.6704 300.011 62.4731 300.413 62.2423C300.834 62.0148 301.194 61.6875 301.46 61.289C301.721 60.8597 301.908 60.3889 302.012 59.897C302.263 58.7931 302.339 57.6567 302.237 56.5292C302.127 55.2418 301.799 53.9826 301.265 52.8061C301.232 52.7333 301.126 52.7983 301.159 52.8707Z" fill="white"/>
<path d="M302.126 58.9457C302.521 58.9712 302.913 58.8553 303.23 58.6188C303.548 58.3823 303.772 58.0406 303.861 57.6546C303.878 57.5764 303.758 57.5452 303.74 57.6234C303.658 57.983 303.45 58.3013 303.153 58.521C302.857 58.7406 302.492 58.8471 302.124 58.8211C302.044 58.8156 302.046 58.9402 302.126 58.9457Z" fill="white"/>
<path d="M300.617 62.0143C300.077 61.4109 299.784 60.626 299.797 59.8164C299.799 59.7362 299.674 59.7383 299.673 59.8184C299.661 60.661 299.967 61.4771 300.53 62.1038C300.584 62.1635 300.67 62.0737 300.617 62.0143Z" fill="white"/>
<path d="M301.982 55.3201C301.827 55.3421 301.669 55.3252 301.522 55.271C301.375 55.2169 301.244 55.1271 301.14 55.0097C301.087 54.9493 301.001 55.0392 301.054 55.0992C301.169 55.2283 301.314 55.3274 301.476 55.3876C301.638 55.4478 301.813 55.4674 301.984 55.4446C302 55.4438 302.016 55.4368 302.027 55.4251C302.039 55.4133 302.045 55.3977 302.045 55.3813C302.045 55.3648 302.038 55.3491 302.026 55.3377C302.014 55.3262 301.998 55.3199 301.982 55.3201Z" fill="white"/>
<path d="M291.923 55.1804C291.955 55.219 291.987 55.2577 292.019 55.2973C292.446 55.8188 292.831 56.3742 293.168 56.958C293.195 57.0027 293.221 57.0484 293.247 57.0938C294.045 58.5089 294.573 60.0598 294.805 61.6677C294.897 62.3076 294.939 62.9536 294.933 63.6C294.924 64.4927 294.844 65.46 295.122 66.2794C295.15 66.3652 295.184 66.4492 295.222 66.5308L299.621 67.9041C299.632 67.9022 299.644 67.9014 299.655 67.8995L299.829 67.9623C299.831 67.929 299.833 67.8944 299.836 67.8611C299.837 67.8418 299.838 67.8221 299.84 67.8028C299.841 67.7899 299.841 67.7769 299.843 67.7652C299.843 67.7609 299.843 67.7565 299.843 67.7532C299.845 67.7416 299.845 67.7306 299.846 67.7199C299.858 67.5265 299.868 67.3326 299.878 67.1383C299.878 67.1373 299.878 67.1373 299.877 67.136C299.944 65.6556 299.888 64.1566 299.606 62.7137C299.597 62.6703 299.589 62.6259 299.578 62.5819C299.448 61.9322 299.264 61.2944 299.029 60.6746C298.9 60.3357 298.753 60.0035 298.59 59.6794C298.167 58.8428 297.615 58.0779 296.954 57.4129C295.636 56.0873 293.909 55.1979 292.064 55.1804C292.017 55.1799 291.971 55.1798 291.923 55.1804Z" fill="#E6E6E6"/>
<path d="M291.916 55.2393C293.97 56.3582 295.62 58.0961 296.631 60.2061C296.857 60.6565 297.01 61.1396 297.085 61.6377C297.143 62.1253 297.069 62.6194 296.871 63.0686C296.695 63.4913 296.465 63.9032 296.395 64.3613C296.362 64.5963 296.38 64.8355 296.446 65.0633C296.513 65.2911 296.627 65.5022 296.78 65.6829C297.152 66.1432 297.666 66.4425 298.18 66.7177C298.75 67.0233 299.347 67.3317 299.735 67.8684C299.782 67.9335 299.88 67.8568 299.833 67.7918C299.158 66.858 297.935 66.6279 297.117 65.8621C296.735 65.5047 296.459 65.0301 296.505 64.4924C296.545 64.0223 296.781 63.5973 296.963 63.1709C297.162 62.7355 297.252 62.2578 297.224 61.7796C297.175 61.2793 297.04 60.791 296.827 60.3358C296.363 59.3033 295.739 58.3501 294.979 57.5113C294.117 56.5492 293.096 55.7416 291.962 55.1236C291.892 55.0854 291.846 55.2013 291.916 55.2393Z" fill="white"/>
<path d="M296.345 59.5075C296.676 59.2899 296.919 58.9617 297.031 58.5815C297.142 58.2013 297.115 57.794 296.953 57.4322C296.92 57.3591 296.805 57.4067 296.838 57.4799C296.989 57.8166 297.014 58.196 296.91 58.5498C296.806 58.9036 296.578 59.2085 296.269 59.4093C296.202 59.453 296.279 59.551 296.345 59.5075Z" fill="white"/>
<path d="M296.988 62.8661C296.194 62.7094 295.488 62.259 295.01 61.6047C294.963 61.5398 294.865 61.6165 294.912 61.6813C295.41 62.3612 296.146 62.8285 296.973 62.9898C297.052 63.0051 297.067 62.8814 296.988 62.8661Z" fill="white"/>
<path d="M294.048 56.6992C293.937 56.8101 293.801 56.8918 293.651 56.937C293.501 56.9822 293.342 56.9894 293.189 56.9581C293.11 56.9418 293.096 57.0655 293.174 57.0817C293.343 57.1156 293.519 57.1074 293.684 57.0578C293.85 57.0082 294.001 56.9189 294.124 56.7974C294.137 56.787 294.145 56.7721 294.147 56.7559C294.149 56.7396 294.145 56.7232 294.135 56.71C294.125 56.6971 294.11 56.6887 294.094 56.6866C294.077 56.6846 294.061 56.6891 294.048 56.6992Z" fill="white"/>
<path d="M269.452 70.1308C270.061 70.1308 270.645 70.3727 271.076 70.8034C271.506 71.234 271.748 71.8181 271.748 72.4271C271.748 72.9598 271.563 73.4758 271.224 73.887C270.886 74.2981 270.415 74.5788 269.892 74.6808V78.4365H268.426V70.1308H269.452Z" fill="#3F3D56"/>
<path d="M325.699 92.131V92.9174C325.365 93.3435 325.022 93.7612 324.668 94.1704C324.63 94.2151 324.592 94.259 324.552 94.3037C324.492 94.3737 324.43 94.4429 324.369 94.5121V92.131H325.699Z" fill="#CACACA"/>
<path d="M321.797 90.4907C321.503 90.4911 321.221 90.608 321.013 90.8158C320.806 91.0237 320.689 91.3055 320.688 91.5994V93.195C320.689 93.4889 320.806 93.7707 321.013 93.9786C321.221 94.1864 321.503 94.3033 321.797 94.3037H324.552C324.592 94.259 324.63 94.2151 324.668 94.1704C325.022 93.7612 325.365 93.3435 325.699 92.9174C325.721 92.8895 325.742 92.8617 325.764 92.8339C325.954 92.59 326.142 92.3419 326.326 92.0922C326.469 91.8964 326.612 91.699 326.751 91.4999C326.752 91.499 326.752 91.499 326.752 91.4982C326.985 91.1674 327.212 90.8316 327.433 90.4907H321.797Z" fill="#3F3D56"/>
<path d="M328.891 76.8336C328.721 76.7751 328.543 76.7454 328.364 76.7458H327.911C327.746 76.7459 327.582 76.7707 327.424 76.8192C327.091 76.9238 326.801 77.1316 326.594 77.4126C326.388 77.6936 326.276 78.0331 326.276 78.3819V91.6922C326.276 91.742 326.278 91.7909 326.283 91.839C326.29 91.9245 326.304 92.0091 326.326 92.0922C326.469 91.8964 326.612 91.699 326.751 91.4998C326.752 91.499 326.752 91.499 326.752 91.4982C326.985 91.1674 327.212 90.8316 327.433 90.4907C327.552 90.3076 327.67 90.1228 327.786 89.9372C328.621 88.597 329.361 87.1997 330 85.7555V78.3819C330 78.0403 329.893 77.7074 329.694 77.4298C329.495 77.1522 329.214 76.9437 328.891 76.8336Z" fill="#3F3D56"/>
<path d="M273.045 92.131V93.7198C272.666 93.2659 272.299 92.8018 271.944 92.3276C271.895 92.2626 271.847 92.1968 271.799 92.131H273.045Z" fill="#CACACA"/>
<path d="M275.617 90.4907H270.661C270.818 90.7312 270.977 90.9689 271.138 91.2037C271.353 91.5167 271.573 91.8258 271.799 92.131C271.847 92.1968 271.895 92.2626 271.944 92.3276C272.299 92.8018 272.666 93.2659 273.045 93.7198C273.116 93.8059 273.188 93.8911 273.26 93.9763C273.353 94.086 273.447 94.1951 273.543 94.3037H275.617C275.911 94.3033 276.192 94.1864 276.4 93.9785C276.608 93.7706 276.725 93.4888 276.725 93.195V91.5994C276.725 91.3056 276.608 91.0238 276.4 90.8159C276.192 90.6081 275.911 90.4911 275.617 90.4907Z" fill="#3F3D56"/>
<path d="M270.258 76.9306C270.025 76.8095 269.765 76.7461 269.502 76.7458H269.05C268.836 76.7455 268.624 76.7877 268.426 76.8698C268.127 76.9935 267.871 77.2032 267.691 77.4723C267.511 77.7414 267.414 78.058 267.414 78.3819V84.1C268.266 86.3398 269.355 88.4822 270.662 90.4907C270.818 90.7312 270.977 90.9688 271.138 91.2037V78.3819C271.138 78.0827 271.056 77.7892 270.901 77.5334C270.746 77.2776 270.523 77.0691 270.258 76.9306Z" fill="#3F3D56"/>
<path d="M288.691 101.643L290.178 101.302L289.57 95.4064L287.376 95.9097L288.691 101.643Z" fill="#9E616A"/>
<path d="M290.044 96.5278C290.013 96.424 289.993 96.3175 289.982 96.2097C289.97 96.0824 289.945 95.9567 289.908 95.8343C289.866 95.7229 289.813 95.6156 289.752 95.5136C289.722 95.4596 289.691 95.4056 289.663 95.3508C289.635 95.296 289.611 95.2393 289.591 95.1812C288.721 92.6119 287.506 89.1204 286.664 87.0768C286.169 85.8745 283.123 85.4745 280.249 85.3724C279.899 85.3598 279.551 85.3513 279.211 85.3471C279.094 85.3454 278.978 85.3437 278.862 85.3429C278.567 85.3412 278.279 85.3412 278.002 85.3446C277.966 85.3446 277.93 85.3446 277.893 85.3454C277.692 85.3471 277.496 85.3499 277.307 85.3539C276.006 85.3792 275.05 85.4383 274.88 85.4492L273.362 84.4949L273.065 84.3085L273.034 84.4949L272.795 85.9175L272.388 88.345L273.41 88.6319L274.073 88.8175L278.002 89.9195L278.838 90.154L278.843 90.1557L280.249 90.1532L284.095 90.1465L284.281 90.6384C284.214 90.7419 284.17 90.8584 284.152 90.9802C284.134 91.102 284.142 91.2262 284.176 91.3447C284.209 91.4631 284.268 91.573 284.347 91.6672C284.426 91.7613 284.525 91.8374 284.636 91.8905L284.78 91.9589L286.538 96.6097C286.543 97.0304 286.675 97.4398 286.915 97.785C286.945 97.8281 286.977 97.8703 287.01 97.9116L287.049 97.958L287.725 99.2802L288.127 99.1874L289.84 98.795L289.849 98.7781C289.85 98.7756 289.872 98.7292 289.904 98.6482V98.6457C290.038 98.3107 290.335 97.3952 290.044 96.5278Z" fill="#2F2E41"/>
<path d="M294.22 102.035C294.156 101.752 294.036 101.484 293.868 101.247C293.7 101.01 293.487 100.808 293.241 100.654C292.995 100.499 292.72 100.395 292.434 100.347C292.147 100.299 291.854 100.309 291.571 100.375L290.384 99.8388L290.051 100.072L288.673 101.039L288.559 101.066L288.189 101.15L288.7 103.375L294.236 102.105L294.22 102.035Z" fill="#2F2E41"/>
<path d="M286.875 98.6043L286.373 102.675L286.356 102.808L286.282 103.415C285.993 103.296 285.704 103.174 285.419 103.048C285.152 102.931 284.888 102.81 284.625 102.686V98.6052L286.875 98.6043Z" fill="#9E616A"/>
<path d="M275.981 70.6224C277.662 70.6224 279.025 69.2597 279.025 67.5787C279.025 65.8977 277.662 64.535 275.981 64.535C274.3 64.535 272.937 65.8977 272.937 67.5787C272.937 69.2597 274.3 70.6224 275.981 70.6224Z" fill="#9E616A"/>
<path d="M287.198 100.158C287.114 100.042 287.026 99.9214 287.021 99.8059C287.002 99.3983 286.982 98.995 286.961 98.6001C286.945 98.3242 286.93 98.0517 286.915 97.785C286.913 97.7513 286.911 97.7175 286.909 97.6846C286.883 97.2433 287.014 96.7776 287.139 96.3262C287.181 96.1785 287.222 96.0292 287.259 95.8798C287.352 95.547 287.391 95.2015 287.375 94.8563C287.159 92.1234 286.194 89.5533 285.761 89.1204C285.103 88.4623 282.127 86.9418 280.249 86.0171C279.916 85.8525 279.617 85.7074 279.373 85.5893C279.156 85.4838 278.981 85.4003 278.862 85.3429C278.771 85.2999 278.712 85.272 278.692 85.2619L278.682 85.2569L278.002 85.3328L277.893 85.3454L277.294 85.4129L273.397 85.85L272.795 85.9175L271.944 86.0137L271.175 86.0998L271.147 86.1023L271.142 86.131C271.142 86.1318 271.14 86.1377 271.138 86.1487C271.006 86.9828 271.006 87.8324 271.138 88.6665C271.238 89.2327 271.426 89.8081 271.76 90.2924C271.806 90.3582 271.853 90.4215 271.904 90.4823C271.905 90.4855 271.908 90.4883 271.91 90.4907C271.921 90.5042 271.932 90.5177 271.944 90.5312V90.5321C272.326 90.9766 272.839 91.2887 273.41 91.4239C273.494 91.4467 273.58 91.4653 273.669 91.4804C274.613 91.6475 275.679 91.8011 276.725 91.9361C277.158 91.9918 277.587 92.0441 278.002 92.093C278.833 92.1909 279.61 92.2736 280.249 92.3394C281.145 92.4305 281.775 92.4871 281.915 92.4989L283.48 99.8008C283.357 100.009 283.308 100.252 283.341 100.491C283.374 100.73 283.486 100.951 283.661 101.118L283.789 101.242L283.937 101.937L284.427 102.592L284.488 102.675H286.648L286.659 102.66C286.667 102.65 287.426 101.675 287.375 100.513C287.37 100.393 287.286 100.279 287.198 100.158Z" fill="#2F2E41"/>
<path d="M287.14 75.6856C286.976 75.6409 286.805 75.6326 286.638 75.6613C286.471 75.69 286.312 75.7549 286.173 75.8516C286.033 75.9482 285.917 76.0743 285.832 76.2208C285.746 76.3672 285.694 76.5307 285.679 76.6995L283.15 77.4899L283.256 79.1439L286.811 77.9775C287.097 77.9844 287.374 77.8864 287.592 77.7021C287.81 77.5177 287.953 77.2599 287.993 76.9774C288.034 76.6949 287.969 76.4073 287.812 76.1693C287.655 75.9312 287.415 75.7591 287.14 75.6856Z" fill="#9E616A"/>
<path d="M285.489 78.4227L283.599 79.138L283.551 79.2318C283.494 79.3431 283.415 79.442 283.319 79.5229C283.224 79.6038 283.113 79.665 282.994 79.7032C282.874 79.7413 282.749 79.7556 282.624 79.7452C282.499 79.7348 282.378 79.6999 282.266 79.6425L278.018 81.2504C278.018 81.2504 276.121 79.3518 274.77 77.6575L275.23 74.8259C275.337 74.1689 275.564 73.5371 275.899 72.9622C278.669 73.5696 280.259 77.4421 280.259 77.4421L285.252 76.4895L285.489 78.4227Z" fill="#8FDEBE"/>
<path d="M275.549 70.4597C274.787 70.6655 273.947 70.3919 273.352 69.8729C272.757 69.3539 272.385 68.6185 272.171 67.8588C272.014 67.3025 271.939 66.6849 272.187 66.1626C272.435 65.6403 273.102 65.288 273.616 65.5518C273.299 65.1821 273.457 64.5707 273.828 64.2544C274.198 63.9382 274.707 63.8475 275.192 63.798C275.895 63.726 276.622 63.718 277.291 63.9459C277.96 64.1737 278.568 64.6719 278.778 65.3472C278.992 65.4468 279.233 65.4726 279.463 65.4207C279.693 65.3687 279.9 65.2418 280.05 65.06C280.089 65.2688 280.058 65.4847 279.961 65.6741C279.865 65.8635 279.709 66.0159 279.518 66.1077L280.543 65.7752C280.719 66.1485 280.41 66.6105 280.015 66.7301C279.62 66.8496 279.193 66.719 278.818 66.5462C278.443 66.3735 278.08 66.1552 277.673 66.0878C277.265 66.0205 276.787 66.1514 276.598 66.5187C276.5 66.7111 276.495 66.9365 276.437 67.145C276.38 67.3535 276.235 67.5697 276.019 67.5868C275.883 67.5976 275.75 67.525 275.614 67.5398C275.531 67.5563 275.454 67.5966 275.393 67.656C275.332 67.7154 275.29 67.7911 275.272 67.8741C275.238 68.0405 275.238 68.2121 275.271 68.3787L275.531 70.3698L275.549 70.4597Z" fill="#2F2E41"/>
<path d="M279.373 85.5893L279.211 85.3471L278.035 83.5828L278.012 83.5482L278.375 81.6616L278.488 81.0726L278.736 79.7909L278.664 76.8572L278.612 74.7815L278.605 74.4558L278.344 73.661C278.22 73.2893 278.022 72.9469 277.761 72.6551C277.499 72.3632 277.181 72.1281 276.825 71.9642L275.07 71.1609C274.864 71.0669 274.628 71.0588 274.416 71.1383C274.203 71.2179 274.031 71.3786 273.937 71.5852C273.929 71.6024 273.922 71.6199 273.915 71.6377C273.675 71.6706 272.631 71.8461 271.746 72.5329C271.126 73.0047 270.693 73.6809 270.524 74.4415C270.522 74.4474 270.521 74.4533 270.52 74.4592C270.403 74.9832 270.315 75.8101 270.258 76.9306C270.22 77.6714 270.196 78.5394 270.187 79.5344C270.171 81.1931 270.264 82.851 270.466 84.4974C270.485 84.6544 270.505 84.8105 270.527 84.9674C270.544 85.099 270.671 85.2248 270.793 85.3454C270.905 85.456 271.021 85.5707 271.037 85.6745C271.051 85.7656 270.993 85.861 270.924 85.9605C270.916 85.9732 270.906 85.9858 270.898 85.9985C270.812 86.1208 270.723 86.2483 270.746 86.3824C270.799 86.6845 270.83 86.9916 270.86 87.2886C270.893 87.6976 270.952 88.104 271.037 88.5053C271.067 88.6285 271.1 88.7525 271.138 88.8766C271.227 89.1677 271.334 89.4579 271.439 89.7414C271.529 89.9878 271.623 90.2409 271.702 90.4907C271.717 90.5371 271.731 90.5827 271.745 90.6282L271.752 90.6519L271.776 90.6561H271.778C271.811 90.5968 271.851 90.5414 271.896 90.4907C271.898 90.4875 271.901 90.4846 271.904 90.4823C271.915 90.4679 271.929 90.4527 271.944 90.4367C272.129 90.235 272.53 89.8731 273.41 89.263C273.606 89.1272 273.827 88.9795 274.073 88.8175C274.977 88.226 276.239 87.4557 278.002 86.4609C278.444 86.2111 278.919 85.947 279.426 85.6686L279.373 85.5893Z" fill="#8FDEBE"/>
<path d="M288.837 104.15C288.632 103.945 288.388 103.781 288.12 103.67C287.852 103.559 287.564 103.502 287.274 103.503L286.356 102.808L286.236 102.716L285.419 103.048C285.704 103.174 285.993 103.296 286.282 103.415C287.187 103.784 288.112 104.114 289.056 104.405C288.989 104.315 288.916 104.23 288.837 104.15Z" fill="#2F2E41"/>
<path d="M309.208 101.585L308.059 101.036L309.637 96.2347L311.333 97.0455L309.208 101.585Z" fill="#FFB6B6"/>
<path d="M316.909 100.812C316.575 101.02 316.237 101.223 315.894 101.419V101.422L315.889 101.422L315.887 101.423L315.757 101.455L315.571 100.963L315.14 99.8261L313.968 96.7295L315.791 96.2798L315.894 96.6974L316.665 99.8253L316.886 100.72L316.909 100.812Z" fill="#FFB6B6"/>
<path d="M312.259 80.7164C312.422 80.9825 312.684 81.174 312.987 81.2501C313.29 81.3261 313.611 81.2807 313.881 81.1234C313.935 81.0906 313.987 81.0532 314.035 81.0119L317.666 83.096L317.509 80.9566L314.084 79.3055C313.898 79.1183 313.655 78.9983 313.393 78.9642C313.131 78.93 312.865 78.9838 312.637 79.117C312.376 79.2737 312.188 79.5278 312.114 79.8232C312.04 80.1186 312.087 80.4313 312.244 80.6923C312.249 80.7004 312.254 80.7085 312.259 80.7164Z" fill="#FFB6B6"/>
<path d="M316.105 82.3112L316.747 82.7024L319.63 84.4605C319.819 84.5789 320.03 84.6589 320.25 84.6958C320.47 84.7328 320.696 84.726 320.913 84.676C321.131 84.6259 321.336 84.5334 321.518 84.4039C321.7 84.2744 321.854 84.1103 321.973 83.921L321.974 83.9195C322.187 83.5678 322.263 83.1495 322.186 82.7453L320.904 76.3434C320.857 76.0921 320.756 75.854 320.608 75.6453C320.46 75.4367 320.269 75.2624 320.048 75.1344C319.826 75.0064 319.58 74.9277 319.325 74.9037C319.071 74.8798 318.814 74.911 318.573 74.9954C318.167 75.138 317.831 75.4298 317.632 75.8115C317.434 76.1932 317.389 76.6361 317.505 77.05L318.845 81.5934L316.791 80.6358L316.105 82.3112Z" fill="#8FDEBE"/>
<path d="M327.927 88.6235C327.926 88.6209 327.924 88.6116 327.922 88.5973L327.919 88.588C327.913 88.5576 327.907 88.5239 327.899 88.4868C327.727 87.6319 327.506 86.7875 327.237 85.958C327.077 85.45 326.866 84.9597 326.606 84.4949C326.598 84.4797 326.589 84.4646 326.579 84.4494L326.548 84.3987L326.286 84.4949L326.276 84.4983L322.286 85.9605L321.133 86.3833L321.097 86.3968L320.9 87.1983L318.142 86.8414L315.894 86.5503L315.249 86.4668C314.969 86.4303 314.684 86.4499 314.412 86.5244C314.14 86.5988 313.885 86.7267 313.663 86.9005C313.431 87.0803 313.237 87.3046 313.093 87.5601C312.948 87.8157 312.856 88.0974 312.822 88.3889C312.813 88.453 312.808 88.518 312.806 88.5821L312.611 95.8528V95.8621L312.701 96.0427L314.587 99.8261H315.894L316.665 99.8253H317.292L315.989 96.527L316.018 96.4823C316.141 96.2942 316.218 96.0803 316.244 95.8573C316.27 95.6343 316.244 95.4084 316.167 95.1972L316.314 94.772C316.619 93.8936 316.475 93.4717 316.292 92.9385C316.129 92.5049 316.032 92.0487 316.007 91.5859L315.977 90.9843C316.742 91.1185 317.455 91.2678 318.142 91.418C318.371 91.4678 318.599 91.5181 318.824 91.569C319.464 91.7116 320.082 91.8492 320.688 91.9639C321.915 92.1976 323.09 92.3402 324.298 92.2516C324.322 92.25 324.345 92.2483 324.369 92.2457C324.662 92.2221 324.958 92.1841 325.256 92.131C325.424 92.1006 325.593 92.066 325.764 92.0255C325.811 92.0137 325.859 92.0019 325.906 91.9901C326.037 91.9555 326.164 91.9048 326.282 91.839C326.451 91.7448 326.609 91.6309 326.751 91.4998C326.752 91.499 326.752 91.499 326.752 91.4982C326.985 91.1674 327.212 90.8316 327.433 90.4907C327.552 90.3076 327.67 90.1228 327.786 89.9372C327.955 89.474 328.019 89.0065 327.927 88.6235Z" fill="#2F2E41"/>
<path d="M327.955 87.2574C327.942 87.2034 327.926 87.1485 327.909 87.0954C327.775 86.6928 327.619 86.2979 327.442 85.9124C327.243 85.4737 327.004 85.0037 326.719 84.4949C326.582 84.2485 326.434 83.9923 326.276 83.7262C326.196 83.5929 326.114 83.4571 326.028 83.3187C326.025 83.3123 326.021 83.3061 326.017 83.3001L325.993 83.2596L322.046 83.7878L320.576 83.9844L320.488 84.7168L320.467 84.8982C320.466 84.8982 320.466 84.8982 320.467 84.8991L320.408 85.3935V85.3944L320.33 86.0474L320.323 86.0466L318.142 85.7639L315.894 85.4728L314.687 85.3167C314.407 85.2803 314.122 85.2998 313.85 85.3743C313.578 85.4488 313.323 85.5766 313.101 85.7504C312.869 85.9303 312.675 86.1545 312.531 86.4101C312.386 86.6656 312.294 86.9473 312.26 87.2388C312.252 87.2979 312.247 87.3586 312.245 87.4186L311.106 90.1177C310.424 91.732 309.99 93.4399 309.818 95.1837L308.983 97.8542L309.102 97.8652L310.872 98.0297L311.339 98.0736L312.369 96.5708C312.486 96.3996 312.597 96.2232 312.701 96.0426C312.872 95.7477 313.024 95.4422 313.156 95.128L315.383 89.8292C315.555 89.8587 315.725 89.8868 315.894 89.9136C316.674 90.0401 317.424 90.1433 318.142 90.2232C320.476 90.4839 322.498 90.5042 324.298 90.2831C324.803 90.2215 325.292 90.1405 325.763 90.0401C325.936 90.0038 326.107 89.9647 326.276 89.9228C326.315 89.9136 326.354 89.9043 326.393 89.8942C326.742 89.8042 327.062 89.6283 327.325 89.3824C327.588 89.1365 327.786 88.8286 327.899 88.4868C328.034 88.0906 328.054 87.6641 327.955 87.2574Z" fill="#2F2E41"/>
<path d="M319.561 71.3213C321.069 71.3213 322.292 70.0717 322.292 68.5302C322.292 66.9887 321.069 65.7391 319.561 65.7391C318.054 65.7391 316.831 66.9887 316.831 68.5302C316.831 70.0717 318.054 71.3213 319.561 71.3213Z" fill="#FFB6B6"/>
<path d="M326.044 83.4124C326.04 83.3812 326.035 83.3499 326.028 83.3187C325.963 82.9762 325.795 82.6403 325.632 82.3146C325.477 82.0041 325.329 81.7105 325.268 81.4186C325.208 81.1308 325.244 80.8423 325.278 80.5638C325.315 80.2618 325.354 79.9496 325.267 79.6467C324.827 78.0997 324.221 76.6044 323.462 75.1865C323.27 74.5631 322.903 74.0081 322.404 73.5881C321.904 73.1682 321.295 72.9011 320.648 72.8189C320.723 72.6779 320.755 72.5174 320.738 72.3582C320.727 72.2554 320.697 72.1557 320.647 72.0649C320.598 71.9741 320.531 71.894 320.45 71.8292C320.373 71.7668 320.284 71.7204 320.189 71.6926C320.093 71.6648 319.993 71.6562 319.894 71.6672L318.625 71.8098C318.422 71.8353 318.237 71.9402 318.11 72.1015C317.984 72.2628 317.926 72.4676 317.949 72.6713C317.957 72.734 317.971 72.7957 317.992 72.8552C316.814 74.3554 316.209 75.7223 316.153 77.015V77.0158C316.146 77.1651 316.147 77.3146 316.156 77.4638C316.182 77.9464 316.287 78.4215 316.466 78.8704C316.677 79.3891 316.96 79.8756 317.306 80.3158C317.377 80.4052 317.451 80.493 317.527 80.579C317.598 80.6634 317.677 80.752 317.765 80.8448L317.987 81.1924L318.193 81.5173L319.299 84.068L319.861 84.0494L319.94 84.6105L319.958 84.7413L320.323 86.0466L320.35 86.1445L320.849 85.9074L323.824 84.4949L326.048 83.4385L326.044 83.4124Z" fill="#8FDEBE"/>
<path opacity="0.2" d="M316.5 78.8569C316.753 79.4782 317.11 80.0524 317.554 80.5552C317.631 80.6461 317.711 80.7354 317.795 80.8249L318.227 81.5026C319.819 80.3092 321.109 75.6104 321.109 75.6104L319.313 75.261L316.5 78.8569Z" fill="black"/>
<path d="M315.412 71.5821C315.569 71.8523 315.615 72.1732 315.539 72.4765C315.464 72.7799 315.273 73.0417 315.007 73.2063C314.952 73.239 314.895 73.267 314.836 73.2902L314.963 77.4755L313.151 76.3346L313.308 72.535C313.231 72.2822 313.239 72.0109 313.333 71.7636C313.426 71.5162 313.598 71.3067 313.823 71.1677C314.083 71.0105 314.395 70.9629 314.69 71.0356C314.985 71.1082 315.239 71.295 315.396 71.5549C315.402 71.5639 315.407 71.5729 315.412 71.5821Z" fill="#FFB6B6"/>
<path d="M315.122 75.8956L313.129 76.1791L313.215 80.3066C313.22 80.6011 313.3 80.8893 313.448 81.1441C313.595 81.3988 313.806 81.6115 314.059 81.762C314.368 81.944 314.728 82.0205 315.085 81.98C315.441 81.9395 315.775 81.7842 316.036 81.5376L320.741 77.0114C321.072 76.6973 321.271 76.2683 321.295 75.8126C321.319 75.3569 321.168 74.9092 320.873 74.5615C320.583 74.2186 320.169 74.0049 319.722 73.9673C319.275 73.9297 318.831 74.0712 318.488 74.3608C318.475 74.3722 318.462 74.3837 318.449 74.3955C318.402 74.437 318.358 74.4811 318.316 74.5274L315.209 78.1019L315.122 75.8956Z" fill="#8FDEBE"/>
<path d="M316.96 100.706L316.886 100.72L315.894 100.903L315.571 100.963L315.062 101.056L315.243 101.784C315.46 101.667 315.674 101.547 315.887 101.423L315.889 101.422L315.894 101.422V101.419C316.237 101.223 316.575 101.021 316.909 100.812C316.933 100.797 316.957 100.783 316.98 100.767L316.96 100.706Z" fill="#2F2E41"/>
<path d="M309.575 100.801L308.332 100.206L308.137 100.112L307.826 100.877L305.652 101.355C305.545 101.379 305.448 101.436 305.375 101.519C305.303 101.601 305.258 101.705 305.249 101.815C305.24 101.924 305.265 102.034 305.323 102.128C305.38 102.222 305.466 102.295 305.568 102.336L307.692 103.203L308.366 102.596L308.201 103.41L309 103.737L309.877 100.947L309.575 100.801Z" fill="#2F2E41"/>
<path d="M326.867 67.3197C326.403 66.7785 326.183 66.0604 325.812 65.4459C325.441 64.8313 324.795 64.2812 324.113 64.4243C323.643 64.5229 323.279 64.9377 323.095 65.4003C322.911 65.8629 322.877 66.373 322.845 66.8727C322.856 65.8457 322.18 64.8502 321.248 64.5225C320.316 64.1948 319.2 64.5603 318.615 65.3853C318.359 65.1485 318.025 65.0136 317.677 65.0063C317.329 64.999 316.99 65.1197 316.724 65.3457C316.201 65.8138 316.085 66.7049 316.47 67.3021C316.855 67.8993 317.689 68.1218 318.302 67.7906L318.518 67.9897C318.396 68.4158 318.633 68.9191 319.03 69.0795C319.352 69.2096 319.806 69.1879 319.927 69.5259C320.011 69.7621 319.854 70.0141 319.686 70.1956C319.519 70.3771 319.32 70.5645 319.3 70.8156C319.27 71.1944 319.661 71.4599 320.017 71.5398C320.875 71.7325 321.828 71.3351 322.322 70.5777C322.332 70.5631 322.342 70.5485 322.353 70.5339C322.631 70.1789 322.833 69.7712 322.948 69.3355C323.062 68.8998 323.087 68.4453 323.02 67.9997C322.992 67.8247 323.02 67.6945 323.141 67.653C323.662 67.4738 325.124 67.8499 325.566 68.1898C326.009 68.5297 326.363 68.9795 326.789 69.3414C327.215 69.7032 327.758 69.9823 328.299 69.8838C328.732 69.8049 329.101 69.4903 329.349 69.1109C329.597 68.7315 329.739 68.2892 329.867 67.8497C328.909 68.4032 327.598 68.1715 326.867 67.3197Z" fill="#2F2E41"/>
<path d="M318.141 83.9571V100.005C317.836 100.216 317.527 100.42 317.213 100.619V85.0211C317.213 84.5688 317.061 84.2018 316.875 84.201H302.827C302.64 84.2018 302.489 84.5688 302.488 85.0211V105.732C302.301 105.751 302.113 105.768 301.926 105.784C301.848 105.79 301.77 105.796 301.692 105.802C301.648 105.719 301.604 105.636 301.56 105.552V83.9571C301.56 83.8322 301.565 83.7065 301.573 83.5825C301.649 82.5295 302.026 81.76 302.468 81.7583H317.234C317.287 81.7586 317.34 81.7698 317.389 81.7912C317.758 81.9481 318.05 82.6366 318.124 83.5268C318.136 83.6686 318.142 83.8128 318.141 83.9571Z" fill="#E4E4E4"/>
<path d="M295.602 83.9571V105.668C295.589 105.688 295.577 105.708 295.564 105.728C295.247 105.696 294.931 105.659 294.617 105.617V85.0211C294.617 84.5688 294.455 84.2018 294.257 84.201H279.347C279.149 84.2018 278.988 84.5688 278.988 85.0211V99.3195C278.654 99.074 278.326 98.8222 278.002 98.5643V83.9571C278.002 83.8322 278.007 83.7065 278.016 83.5825C278.097 82.5295 278.497 81.76 278.966 81.7583H294.638C294.694 81.7584 294.75 81.7696 294.802 81.7912C295.195 81.9481 295.505 82.6366 295.584 83.5268C295.596 83.6686 295.602 83.8128 295.602 83.9571Z" fill="#E4E4E4"/>
<path d="M290.605 76.7421L291.582 81.0415L292.207 81.7254H292.657L290.801 73.9083L290.709 75.2363V75.2372L290.605 76.7421Z" fill="#3F3D56"/>
<path d="M293.859 81.9451C293.856 81.9384 293.852 81.9322 293.848 81.9265C293.839 81.9062 293.826 81.8878 293.81 81.8725L293.696 81.7586L293.097 81.1587C293.053 81.1157 292.994 81.0914 292.933 81.0912H292.93L292.507 81.0937L292.144 81.0962L291.636 81.0996L288.176 81.1216L285.902 81.1359C285.841 81.1367 285.782 81.1616 285.739 81.2053C285.695 81.249 285.671 81.308 285.67 81.3696C285.671 81.4037 285.678 81.4373 285.692 81.4683L285.736 81.562L285.828 81.7586L285.948 82.0159L286.007 82.1425C286.026 82.1828 286.056 82.2169 286.093 82.2408C286.131 82.2647 286.174 82.2774 286.219 82.2775H293.645C293.684 82.2768 293.722 82.2664 293.756 82.2474C293.79 82.2283 293.819 82.2012 293.84 82.1684C293.862 82.1355 293.874 82.098 293.878 82.059C293.881 82.0201 293.874 81.981 293.859 81.9451Z" fill="#3F3D56"/>
<path opacity="0.17" d="M285.948 82.0157L286.007 82.1428C286.026 82.1829 286.056 82.2169 286.093 82.2407C286.131 82.2646 286.174 82.2774 286.219 82.2776H293.645C293.684 82.2769 293.722 82.2666 293.757 82.2476C293.791 82.2286 293.82 82.2014 293.841 82.1686C293.862 82.1358 293.875 82.0982 293.878 82.0593C293.881 82.0204 293.875 81.9812 293.859 81.9454C293.857 81.9387 293.853 81.9324 293.848 81.9268L285.948 82.0157Z" fill="black"/>
<path opacity="0.17" d="M290.709 75.2363V75.2372L292.299 81.7254H292.657L290.801 73.9083L290.709 75.2363Z" fill="black"/>
<path d="M293.203 57.0794L292.97 57.0482C292.906 57.0398 292.841 57.0571 292.79 57.0963L292.651 57.2034L291.101 59.1424C291.05 59.1819 291.016 59.2402 291.008 59.3044L290.921 59.9642L288.758 76.4252C288.75 76.4862 288.765 76.5479 288.801 76.5981L289.82 79.4079L289.85 79.4517L289.916 79.5454C289.95 79.593 290 79.627 290.056 79.6416L290.204 79.6787C290.237 79.6871 290.272 79.6883 290.306 79.6822C290.34 79.6761 290.373 79.6628 290.401 79.6433C290.43 79.624 290.454 79.5989 290.472 79.5694C290.49 79.54 290.502 79.5071 290.506 79.4728L290.77 77.4664V77.4655L290.939 76.1779L291.081 75.092V75.0912L293.414 57.3528C293.422 57.2887 293.405 57.2239 293.365 57.1727C293.326 57.1215 293.268 57.0879 293.204 57.0795L293.203 57.0794Z" fill="#3F3D56"/>
<path opacity="0.17" d="M292.651 57.2035L289.82 79.4082L289.851 79.4517L289.916 79.5451C289.95 79.5927 290 79.6268 290.056 79.6414L290.204 79.6785C290.238 79.6868 290.273 79.688 290.307 79.6819C290.34 79.6758 290.373 79.6626 290.401 79.6432C290.43 79.6238 290.454 79.5986 290.472 79.5692C290.49 79.5398 290.502 79.507 290.506 79.4728L293.413 57.353C293.422 57.2888 293.404 57.2238 293.365 57.1725C293.326 57.1211 293.267 57.0874 293.203 57.079L292.97 57.0483C292.938 57.044 292.906 57.0461 292.875 57.0544C292.844 57.0627 292.815 57.077 292.79 57.0966L292.651 57.2035Z" fill="black"/>
<path d="M292.567 57.8385L291.065 59.9826L289.28 73.5673L290.248 75.4876L292.567 57.8385Z" fill="#8FDEBE"/>
<path d="M307.199 76.7421L306.222 81.0415L305.598 81.7254H305.147L307.004 73.9083L307.096 75.2363V75.2372L307.199 76.7421Z" fill="#3F3D56"/>
<path d="M311.902 81.1359L306.17 81.0996L305.661 81.0962L305.298 81.0937L304.875 81.0912H304.872C304.811 81.0913 304.752 81.1155 304.708 81.1587L303.994 81.8725C303.979 81.8881 303.966 81.9064 303.956 81.9265C303.952 81.9322 303.948 81.9384 303.945 81.9451C303.93 81.981 303.924 82.0201 303.927 82.059C303.93 82.098 303.943 82.1355 303.964 82.1684C303.985 82.2012 304.014 82.2283 304.048 82.2474C304.082 82.2664 304.121 82.2768 304.16 82.2775H311.586C311.63 82.2773 311.674 82.2646 311.712 82.2407C311.749 82.2168 311.779 82.1828 311.798 82.1425L311.857 82.0159L311.976 81.7586L312.112 81.4683C312.127 81.4374 312.134 81.4037 312.134 81.3696C312.134 81.308 312.109 81.249 312.066 81.2053C312.023 81.1616 311.964 81.1367 311.902 81.1359Z" fill="#3F3D56"/>
<path opacity="0.17" d="M311.857 82.0157L311.798 82.1428C311.779 82.1829 311.749 82.2169 311.711 82.2407C311.674 82.2646 311.63 82.2774 311.586 82.2776H304.16C304.121 82.2769 304.082 82.2666 304.048 82.2476C304.014 82.2286 303.985 82.2014 303.964 82.1686C303.943 82.1358 303.93 82.0982 303.927 82.0593C303.924 82.0204 303.93 81.9812 303.946 81.9454C303.948 81.9387 303.952 81.9324 303.956 81.9268L311.857 82.0157Z" fill="black"/>
<path opacity="0.17" d="M307.096 75.2363V75.2372L305.506 81.7254H305.147L307.004 73.9083L307.096 75.2363Z" fill="black"/>
<path d="M309.047 76.4252L306.797 59.3044C306.788 59.2402 306.755 59.182 306.704 59.1424L305.155 57.2034L305.015 57.0963C304.964 57.0572 304.899 57.04 304.835 57.0482L304.602 57.0794C304.538 57.0877 304.479 57.1211 304.44 57.1724C304.4 57.2237 304.383 57.2885 304.391 57.3528L306.723 75.092V75.0929L306.866 76.178L307.035 77.4664V77.4681L307.299 79.4729C307.303 79.5072 307.314 79.5402 307.333 79.5697C307.351 79.5991 307.375 79.6242 307.404 79.6433C307.432 79.6628 307.465 79.6761 307.499 79.6822C307.532 79.6883 307.567 79.6871 307.601 79.6787L307.748 79.6416C307.805 79.6271 307.855 79.593 307.888 79.5454L307.954 79.4518L307.985 79.4079L309.004 76.5982C309.04 76.5481 309.055 76.4862 309.047 76.4252Z" fill="#3F3D56"/>
<path opacity="0.17" d="M305.154 57.2035L307.985 79.4083L307.954 79.4517L307.889 79.5451C307.855 79.5927 307.805 79.6269 307.748 79.6414L307.601 79.6785C307.567 79.6868 307.532 79.688 307.498 79.6819C307.464 79.6758 307.432 79.6626 307.404 79.6432C307.375 79.6238 307.351 79.5986 307.333 79.5692C307.315 79.5399 307.303 79.507 307.299 79.4728L304.391 57.353C304.383 57.2888 304.4 57.2239 304.44 57.1725C304.479 57.1211 304.537 57.0875 304.602 57.079L304.835 57.0483C304.867 57.044 304.899 57.0461 304.93 57.0544C304.961 57.0627 304.99 57.077 305.015 57.0966L305.154 57.2035Z" fill="black"/>
<path d="M305.238 57.8385L306.74 59.9826L308.525 73.5673L307.557 75.4876L305.238 57.8385Z" fill="#8FDEBE"/>
<path d="M277.318 85.2273C277.318 85.2697 277.315 85.3121 277.307 85.3539C277.304 85.3741 277.3 85.3935 277.294 85.4129C277.253 85.5698 277.161 85.7087 277.033 85.8077C276.905 85.9068 276.747 85.9606 276.585 85.9605H273.41V93.5333C273.41 93.6933 273.357 93.849 273.26 93.9763C273.188 93.8911 273.116 93.8058 273.045 93.7198C272.666 93.2658 272.299 92.8018 271.944 92.3276V85.9605H270.527C270.338 85.9604 270.156 85.8873 270.02 85.7564C269.883 85.6255 269.803 85.447 269.795 85.2581C269.787 85.0693 269.853 84.8847 269.978 84.7429C270.103 84.6012 270.278 84.5132 270.466 84.4975C270.486 84.4958 270.506 84.4949 270.527 84.4949H276.585C276.779 84.4949 276.966 84.572 277.103 84.7093C277.241 84.8466 277.318 85.033 277.318 85.2273Z" fill="#3F3D56"/>
<path d="M327.913 85.2273C327.913 85.3757 327.868 85.5207 327.784 85.643C327.7 85.7653 327.58 85.8593 327.442 85.9124C327.376 85.9376 327.307 85.953 327.237 85.958C327.218 85.9597 327.199 85.9605 327.18 85.9605H325.764V92.8338C325.742 92.8617 325.721 92.8895 325.699 92.9174C325.365 93.3435 325.022 93.7611 324.668 94.1704C324.555 94.1068 324.462 94.0142 324.397 93.9022C324.331 93.7902 324.297 93.6629 324.298 93.5333V85.9605H321.122C321.028 85.9608 320.935 85.9428 320.849 85.9074C320.739 85.8637 320.642 85.7942 320.566 85.7049C320.489 85.6156 320.435 85.509 320.408 85.3944V85.3935C320.369 85.2269 320.39 85.0517 320.467 84.8991C320.466 84.8982 320.466 84.8982 320.467 84.8982C320.501 84.8311 320.545 84.7696 320.597 84.716C320.666 84.646 320.747 84.5904 320.837 84.5524C320.927 84.5145 321.024 84.4949 321.122 84.4949H327.18C327.374 84.4949 327.561 84.572 327.698 84.7093C327.835 84.8466 327.913 85.0328 327.913 85.227L327.913 85.2273Z" fill="#3F3D56"/>
<path d="M327.864 71.108C327.562 71.108 327.264 71.1673 326.985 71.2827C326.707 71.3981 326.454 71.5673 326.24 71.7805C326.027 71.9937 325.858 72.2469 325.743 72.5255C325.627 72.8041 325.568 73.1027 325.568 73.4042C325.568 73.9369 325.753 74.453 326.092 74.8641C326.43 75.2753 326.902 75.5559 327.424 75.658V79.4136H328.89V71.108H327.864Z" fill="#3F3D56"/>
<path d="M287.773 79.4928C287.626 79.407 287.463 79.3543 287.294 79.3384C287.126 79.3225 286.956 79.3438 286.796 79.4007C286.636 79.4577 286.491 79.549 286.37 79.6682C286.25 79.7874 286.157 79.9315 286.098 80.0905L283.451 80.1937L283.094 81.427L286.858 81.6197C287.131 81.7008 287.425 81.6787 287.684 81.5575C287.942 81.4364 288.147 81.2248 288.26 80.9626C288.373 80.7004 288.385 80.406 288.296 80.1351C288.206 79.8642 288.02 79.6357 287.773 79.4928Z" fill="#9E616A"/>
<path d="M285.598 81.7527L282.878 81.7188L282.534 81.7141L277.001 81.6444C277.001 81.6444 275.498 80.2109 274.19 78.735L274.373 77.4086C274.552 76.1068 275.198 74.9144 276.19 74.0532C278.064 75.3054 279.151 77.7838 279.151 77.7838L280.973 78.5992C282.255 78.6565 283.505 79.0225 284.616 79.6659L285.215 80.0131L285.598 81.7527Z" fill="#8FDEBE"/>
<path d="M294.143 105.552H303.952C303.283 105.65 302.608 105.727 301.926 105.784H296.169C295.487 105.727 294.812 105.65 294.143 105.552Z" fill="#CCCCCC"/>
<path d="M296.115 100.613C296.305 98.8999 297.342 97.2003 298.966 96.6219C298.346 98.3911 298.372 100.323 299.04 102.075C299.299 102.749 299.658 103.473 299.432 104.159C299.291 104.587 298.936 104.917 298.538 105.125C298.139 105.334 297.695 105.437 297.257 105.538L297.171 105.611C296.452 104.044 295.925 102.327 296.115 100.613Z" fill="#CCCCCC"/>
<path d="M298.983 96.654C298.047 97.7312 297.474 99.0759 297.346 100.497C297.313 100.802 297.329 101.111 297.392 101.412C297.463 101.703 297.61 101.969 297.819 102.184C298.01 102.388 298.229 102.575 298.366 102.821C298.435 102.949 298.476 103.089 298.487 103.233C298.497 103.378 298.477 103.523 298.428 103.659C298.314 104.001 298.083 104.282 297.849 104.548C297.588 104.844 297.313 105.148 297.205 105.537C297.192 105.584 297.12 105.561 297.133 105.514C297.319 104.837 297.969 104.445 298.274 103.833C298.416 103.547 298.472 103.217 298.332 102.92C298.209 102.659 297.983 102.467 297.788 102.262C297.582 102.056 297.429 101.802 297.342 101.523C297.264 101.226 297.237 100.919 297.262 100.613C297.307 99.924 297.46 99.2464 297.716 98.6051C298.004 97.8715 298.415 97.1926 298.932 96.5977C298.964 96.5609 299.015 96.6174 298.983 96.654Z" fill="white"/>
<path d="M297.361 100.037C297.125 99.9831 296.916 99.8473 296.772 99.6538C296.627 99.4602 296.556 99.2216 296.571 98.9805C296.572 98.9707 296.576 98.9615 296.584 98.9549C296.591 98.9483 296.601 98.9449 296.611 98.9452C296.62 98.9456 296.63 98.9497 296.637 98.9568C296.643 98.9639 296.647 98.9734 296.647 98.9833C296.633 99.2078 296.699 99.4301 296.834 99.61C296.969 99.7899 297.164 99.9157 297.384 99.9645C297.431 99.9752 297.408 100.048 297.361 100.037Z" fill="white"/>
<path d="M297.709 102.093C298.13 101.834 298.437 101.427 298.57 100.951C298.584 100.904 298.656 100.927 298.643 100.974C298.503 101.468 298.182 101.892 297.744 102.161C297.702 102.186 297.667 102.119 297.709 102.093Z" fill="white"/>
<path d="M298.075 97.9426C298.162 97.9824 298.257 98 298.353 97.9939C298.448 97.9878 298.54 97.9581 298.621 97.9075C298.663 97.8814 298.698 97.949 298.656 97.9749C298.567 98.0304 298.465 98.0631 298.359 98.0701C298.254 98.077 298.149 98.0581 298.053 98.015C298.043 98.0117 298.035 98.0049 298.031 97.9961C298.026 97.9872 298.025 97.977 298.028 97.9674C298.031 97.9578 298.038 97.9498 298.046 97.9452C298.055 97.9405 298.066 97.9396 298.075 97.9426Z" fill="white"/>
<path d="M303.98 99.6107C303.954 99.6277 303.929 99.6447 303.904 99.6624C303.563 99.8929 303.242 100.151 302.943 100.433C302.92 100.455 302.896 100.477 302.873 100.499C302.161 101.187 301.582 102.002 301.167 102.902C301.002 103.26 300.865 103.63 300.756 104.009C300.606 104.532 300.485 105.112 300.179 105.542C300.148 105.588 300.114 105.631 300.077 105.672L297.267 105.71C297.26 105.706 297.254 105.704 297.247 105.701L297.135 105.707C297.139 105.687 297.144 105.667 297.149 105.647C297.151 105.635 297.154 105.624 297.156 105.612C297.158 105.605 297.16 105.597 297.161 105.59C297.162 105.587 297.162 105.585 297.163 105.583C297.164 105.576 297.166 105.569 297.167 105.563C297.194 105.448 297.222 105.332 297.25 105.217C297.25 105.217 297.25 105.217 297.251 105.216C297.458 104.336 297.77 103.484 298.179 102.678C298.191 102.654 298.204 102.63 298.217 102.606C298.407 102.249 298.625 101.908 298.87 101.586C299.005 101.411 299.148 101.242 299.3 101.081C299.693 100.665 300.149 100.314 300.651 100.041C301.652 99.495 302.816 99.2755 303.897 99.5861C303.925 99.5941 303.952 99.6021 303.98 99.6107Z" fill="#CCCCCC"/>
<path d="M303.974 99.6464C302.578 99.9431 301.311 100.672 300.354 101.73C300.143 101.954 299.97 102.209 299.839 102.487C299.721 102.762 299.678 103.064 299.716 103.361C299.745 103.639 299.807 103.92 299.769 104.2C299.747 104.343 299.695 104.479 299.617 104.601C299.538 104.723 299.435 104.826 299.314 104.905C299.016 105.11 298.663 105.195 298.315 105.267C297.929 105.346 297.526 105.423 297.206 105.669C297.168 105.699 297.124 105.637 297.162 105.607C297.719 105.178 298.474 105.257 299.086 104.951C299.371 104.809 299.615 104.579 299.682 104.257C299.74 103.975 299.676 103.686 299.644 103.405C299.603 103.116 299.634 102.821 299.733 102.546C299.849 102.262 300.012 102 300.216 101.771C300.667 101.248 301.198 100.8 301.788 100.442C302.459 100.029 303.196 99.7347 303.967 99.5708C304.015 99.5606 304.021 99.6364 303.974 99.6464Z" fill="white"/>
<path d="M300.642 101.371C300.486 101.186 300.402 100.952 300.403 100.71C300.404 100.469 300.491 100.235 300.648 100.052C300.68 100.015 300.739 100.063 300.707 100.1C300.56 100.27 300.479 100.488 300.479 100.713C300.478 100.938 300.558 101.156 300.704 101.327C300.736 101.364 300.674 101.408 300.642 101.371Z" fill="white"/>
<path d="M299.682 103.222C300.174 103.269 300.665 103.129 301.058 102.829C301.097 102.799 301.141 102.861 301.102 102.891C300.693 103.202 300.181 103.347 299.67 103.297C299.621 103.293 299.634 103.218 299.682 103.222Z" fill="white"/>
<path d="M302.474 100.129C302.519 100.213 302.584 100.284 302.664 100.337C302.744 100.389 302.835 100.421 302.931 100.43C302.979 100.434 302.967 100.509 302.918 100.505C302.813 100.495 302.712 100.46 302.624 100.402C302.535 100.344 302.463 100.265 302.412 100.173C302.406 100.165 302.404 100.155 302.406 100.145C302.407 100.135 302.413 100.126 302.421 100.12C302.429 100.114 302.439 100.112 302.449 100.114C302.459 100.115 302.468 100.121 302.474 100.129Z" fill="white"/>
<path d="M305.438 101.998C305.931 101.998 306.331 101.598 306.331 101.104C306.331 100.61 305.931 100.21 305.438 100.21C304.944 100.21 304.544 100.61 304.544 101.104C304.544 101.598 304.944 101.998 305.438 101.998Z" fill="#CCCCCC"/>
<path d="M308.356 104.608C308.301 104.624 308.245 104.64 308.189 104.655C307.684 104.797 307.175 104.927 306.662 105.044C306.603 104.925 306.572 104.794 306.57 104.661C306.568 104.528 306.595 104.397 306.651 104.276C306.706 104.155 306.788 104.048 306.89 103.962C306.992 103.877 307.111 103.816 307.24 103.782C307.369 103.749 307.503 103.745 307.634 103.771C307.764 103.796 307.888 103.85 307.995 103.929C308.101 104.009 308.189 104.111 308.252 104.228C308.314 104.345 308.35 104.475 308.356 104.608Z" fill="#CCCCCC"/>
<path d="M313.462 102.689C313.394 102.721 313.325 102.753 313.257 102.785C313.183 102.82 313.108 102.854 313.033 102.888C312.95 102.926 312.867 102.963 312.784 103C312.47 103.14 312.153 103.275 311.834 103.405C311.83 103.398 311.826 103.39 311.822 103.383C311.71 103.174 311.686 102.93 311.755 102.703C311.824 102.476 311.979 102.286 312.188 102.174C312.396 102.063 312.641 102.038 312.867 102.106C313.094 102.174 313.285 102.329 313.397 102.537C313.423 102.586 313.445 102.637 313.462 102.689Z" fill="#CCCCCC"/>
<path d="M308.59 99.8039C309.084 99.8039 309.484 99.4038 309.484 98.9101C309.484 98.4165 309.084 98.0163 308.59 98.0163C308.096 98.0163 307.696 98.4165 307.696 98.9101C307.696 99.4038 308.096 99.8039 308.59 99.8039Z" fill="#CCCCCC"/>
<path d="M300.391 49.9383C295.134 51.3212 289.308 52.1625 283.385 52.3928C282.517 52.4401 281.647 52.4342 280.78 52.3751C278.874 52.2148 277.241 51.6157 275.423 51.2883C274.548 51.1314 273.575 51.0166 272.695 50.847C272.898 50.5947 273.105 50.3456 273.316 50.0995C275.213 50.2598 277.14 50.7846 279.061 51.0284C282.325 51.4436 285.983 50.9803 288.458 49.8379C289.659 49.2835 290.578 48.5917 291.775 48.0348C291.937 47.9512 292.114 47.8972 292.295 47.8753C292.674 47.8407 293.007 47.9934 293.277 48.1301C295.285 49.1435 298.199 49.967 300.904 49.5139C301.106 49.6717 300.723 49.8514 300.391 49.9383Z" fill="white"/>
<path d="M312.362 53.5044C312.387 53.4999 312.411 53.4964 312.436 53.4921C312.332 53.4277 312.234 53.354 312.144 53.2719L312.362 53.5044Z" fill="white"/>
<path d="M328.555 55.5037C327.425 55.594 326.29 55.6612 325.148 55.7054C324.28 55.7523 323.41 55.7463 322.543 55.6877C320.636 55.5265 319.004 54.9283 317.185 54.6009C315.519 54.3014 313.494 54.1571 312.436 53.4922C315.171 53.0189 318.004 53.9824 320.824 54.341C323.105 54.6215 325.417 54.5073 327.659 54.0035C327.971 54.4946 328.27 54.9947 328.555 55.5037Z" fill="white"/>
<path d="M303.122 68.1605C300.476 59.0759 298.918 49.709 298.918 40.2466V39.5608H298.038V40.2466C298.038 49.709 296.48 59.0758 293.834 68.1606C293.706 68.6004 293.641 69.0561 293.641 69.5141C293.641 69.6874 293.675 69.8589 293.742 70.019C293.808 70.179 293.905 70.3244 294.028 70.4469C294.15 70.5694 294.296 70.6666 294.456 70.7329C294.616 70.7992 294.787 70.8333 294.96 70.8333H296.719C296.719 71.0643 296.765 71.293 296.853 71.5064C296.941 71.7198 297.071 71.9137 297.234 72.077C297.398 72.2403 297.592 72.3699 297.805 72.4582C298.018 72.5466 298.247 72.5921 298.478 72.5921C298.709 72.5921 298.938 72.5466 299.151 72.4582C299.365 72.3699 299.558 72.2403 299.722 72.077C299.885 71.9137 300.015 71.7198 300.103 71.5064C300.191 71.293 300.237 71.0643 300.237 70.8333H301.606V74.6242C301.413 74.6298 301.229 74.7091 301.093 74.8458C300.956 74.9825 300.877 75.1663 300.872 75.3593C300.867 75.5524 300.936 75.7402 301.064 75.884C301.193 76.0279 301.372 76.117 301.565 76.1331C301.757 76.1491 301.949 76.0909 302.1 75.9703C302.25 75.8497 302.349 75.6759 302.376 75.4847C302.403 75.2934 302.356 75.0991 302.244 74.9417C302.132 74.7843 301.964 74.6757 301.774 74.6382V70.8333H301.996C302.346 70.8333 302.681 70.6943 302.929 70.4469C303.176 70.1995 303.315 69.864 303.315 69.5141C303.315 69.0561 303.25 68.6003 303.122 68.1605Z" fill="white"/>
<path d="M313.702 178.047H283.135C282.945 178.047 282.764 177.971 282.63 177.837C282.496 177.703 282.42 177.522 282.42 177.332V156.46C282.42 156.27 282.496 156.088 282.63 155.954C282.764 155.82 282.945 155.745 283.135 155.745H313.702C313.891 155.745 314.073 155.82 314.207 155.954C314.341 156.088 314.416 156.27 314.416 156.46V177.332C314.416 177.522 314.341 177.703 314.207 177.837C314.073 177.971 313.891 178.047 313.702 178.047Z" fill="white"/>
<path d="M313.702 178.047H283.135C282.945 178.047 282.764 177.971 282.63 177.837C282.496 177.703 282.42 177.522 282.42 177.332V156.46C282.42 156.27 282.496 156.088 282.63 155.954C282.764 155.82 282.945 155.745 283.135 155.745H313.702C313.891 155.745 314.073 155.82 314.207 155.954C314.341 156.088 314.416 156.27 314.416 156.46V177.332C314.416 177.522 314.341 177.703 314.207 177.837C314.073 177.971 313.891 178.047 313.702 178.047ZM283.135 155.904C282.987 155.904 282.846 155.962 282.742 156.067C282.638 156.171 282.579 156.312 282.579 156.46V177.332C282.579 177.479 282.638 177.621 282.742 177.725C282.846 177.829 282.987 177.888 283.135 177.888H313.702C313.849 177.888 313.99 177.829 314.095 177.725C314.199 177.621 314.257 177.479 314.258 177.332V156.46C314.257 156.312 314.199 156.171 314.095 156.067C313.99 155.962 313.849 155.904 313.702 155.904H283.135Z" fill="#3F3D56"/>
<path d="M301.957 177.921H294.88V166.206C294.88 165.928 294.991 165.661 295.187 165.465C295.384 165.268 295.65 165.158 295.928 165.158H300.909C301.186 165.158 301.453 165.268 301.649 165.465C301.846 165.661 301.956 165.928 301.957 166.206V177.921Z" fill="#E6E6E6"/>
<path d="M312.035 151.296H307.993V144.542C307.994 144.352 308.069 144.171 308.203 144.037C308.337 143.903 308.519 143.827 308.708 143.827H311.32C311.509 143.827 311.691 143.903 311.825 144.037C311.959 144.171 312.034 144.352 312.035 144.542V151.296Z" fill="white"/>
<path d="M312.035 151.296H307.993V144.542C307.994 144.352 308.069 144.171 308.203 144.037C308.337 143.903 308.519 143.827 308.708 143.827H311.32C311.509 143.827 311.691 143.903 311.825 144.037C311.959 144.171 312.034 144.352 312.035 144.542V151.296ZM308.152 151.137H311.876V144.542C311.876 144.394 311.817 144.253 311.713 144.149C311.609 144.045 311.467 143.986 311.32 143.986H308.708C308.561 143.986 308.419 144.045 308.315 144.149C308.211 144.253 308.152 144.394 308.152 144.542V151.137Z" fill="#3F3D56"/>
<path d="M289.249 154.14C293.547 154.14 297.032 150.655 297.032 146.358C297.032 142.06 293.547 138.575 289.249 138.575C284.951 138.575 281.467 142.06 281.467 146.358C281.467 150.655 284.951 154.14 289.249 154.14Z" fill="#F2F2F2"/>
<path d="M310.135 142.643C309.434 142.621 308.81 141.982 308.805 141.281C308.8 140.579 309.415 139.931 310.116 139.899C311.675 139.828 312.952 138.154 312.609 136.631C312.266 135.108 310.394 134.143 308.955 134.748C307.85 135.212 306.735 133.751 307.014 132.586C307.294 131.421 308.353 130.639 309.333 129.951C310.313 129.262 311.362 128.454 311.598 127.28C311.835 126.105 310.624 124.699 309.557 125.243" fill="#E6E6E6"/>
<path d="M291.891 168.561H285.913C285.675 168.561 285.446 168.466 285.277 168.297C285.109 168.128 285.014 167.9 285.014 167.661V162.733C285.014 162.495 285.109 162.266 285.278 162.098C285.446 161.929 285.675 161.834 285.913 161.834H291.891C292.129 161.834 292.358 161.929 292.527 162.098C292.695 162.266 292.79 162.495 292.79 162.733V167.661C292.79 167.9 292.695 168.128 292.527 168.297C292.358 168.466 292.129 168.561 291.891 168.561Z" fill="#E6E6E6"/>
<path d="M311.062 168.561H305.084C304.845 168.561 304.617 168.466 304.448 168.297C304.28 168.128 304.185 167.9 304.185 167.661V162.733C304.185 162.495 304.28 162.266 304.448 162.098C304.617 161.929 304.845 161.834 305.084 161.834H311.062C311.3 161.834 311.529 161.929 311.697 162.098C311.866 162.266 311.961 162.495 311.961 162.733V167.661C311.961 167.9 311.866 168.128 311.697 168.297C311.529 168.466 311.3 168.561 311.062 168.561Z" fill="#E6E6E6"/>
<path d="M280.138 156.174V152.963C280.138 152.716 280.203 152.474 280.327 152.26C280.451 152.047 280.629 151.87 280.843 151.748L298.686 141.55C298.907 141.423 299.159 141.359 299.414 141.366C299.669 141.372 299.918 141.447 300.133 141.585L316.052 151.738C316.25 151.865 316.413 152.039 316.526 152.245C316.639 152.451 316.699 152.683 316.699 152.918V156.174C316.699 156.545 316.551 156.901 316.289 157.164C316.026 157.426 315.67 157.574 315.299 157.574H281.537C281.166 157.574 280.81 157.426 280.548 157.164C280.285 156.901 280.138 156.545 280.138 156.174Z" fill="#8FDEBE"/>
<path opacity="0.2" d="M315.299 156.144H281.537C281.166 156.144 280.81 155.996 280.548 155.734C280.285 155.471 280.138 155.116 280.138 154.744V156.015C280.138 156.386 280.285 156.742 280.548 157.005C280.81 157.267 281.166 157.415 281.537 157.415H315.299C315.67 157.415 316.026 157.267 316.289 157.005C316.551 156.742 316.699 156.386 316.699 156.015V154.744C316.699 155.116 316.551 155.471 316.289 155.734C316.026 155.996 315.67 156.144 315.299 156.144Z" fill="black"/>
<path d="M318.04 167.133C318.04 164.671 320.037 158.827 322.499 158.827C324.962 158.827 326.959 164.671 326.959 167.133C326.959 168.316 326.489 169.45 325.653 170.286C324.816 171.122 323.682 171.592 322.499 171.592C321.317 171.592 320.183 171.122 319.346 170.286C318.51 169.45 318.04 168.316 318.04 167.133Z" fill="#F2F2F2"/>
<path d="M322.499 177.952C322.478 177.952 322.458 177.944 322.443 177.929C322.428 177.914 322.42 177.894 322.42 177.873V161.861C322.42 161.84 322.428 161.82 322.443 161.805C322.458 161.79 322.478 161.782 322.499 161.782C322.521 161.782 322.541 161.79 322.556 161.805C322.571 161.82 322.579 161.84 322.579 161.861V177.873C322.579 177.894 322.571 177.914 322.556 177.929C322.541 177.944 322.521 177.952 322.499 177.952Z" fill="#3F3D56"/>
<path d="M322.499 168.962C322.484 168.962 322.469 168.957 322.456 168.949C322.443 168.94 322.433 168.928 322.426 168.914C322.42 168.899 322.419 168.883 322.421 168.868C322.424 168.853 322.431 168.839 322.442 168.827L324.709 166.449C324.716 166.441 324.725 166.435 324.734 166.431C324.744 166.427 324.754 166.424 324.764 166.424C324.775 166.424 324.785 166.426 324.795 166.43C324.805 166.433 324.813 166.439 324.821 166.446C324.829 166.453 324.835 166.462 324.839 166.471C324.843 166.481 324.845 166.491 324.846 166.502C324.846 166.512 324.844 166.522 324.84 166.532C324.837 166.542 324.831 166.551 324.824 166.558L322.557 168.937C322.55 168.945 322.541 168.951 322.531 168.955C322.521 168.96 322.51 168.962 322.499 168.962Z" fill="#3F3D56"/>
<path d="M322.5 164.951C322.48 164.951 322.461 164.944 322.446 164.93L320.487 163.139C320.479 163.132 320.473 163.124 320.469 163.115C320.464 163.105 320.462 163.095 320.461 163.084C320.461 163.074 320.462 163.064 320.466 163.054C320.469 163.044 320.475 163.035 320.482 163.027C320.489 163.019 320.497 163.013 320.507 163.009C320.516 163.004 320.527 163.002 320.537 163.001C320.547 163.001 320.558 163.003 320.568 163.006C320.578 163.01 320.587 163.015 320.594 163.022L322.553 164.813C322.565 164.824 322.573 164.838 322.577 164.854C322.581 164.869 322.579 164.886 322.574 164.901C322.568 164.916 322.558 164.928 322.544 164.937C322.531 164.946 322.516 164.951 322.5 164.951Z" fill="#3F3D56"/>
<path d="M263.614 162.233C263.614 158.611 266.551 150.014 270.174 150.014C273.796 150.014 276.733 158.611 276.733 162.233C276.733 163.973 276.042 165.641 274.812 166.872C273.582 168.102 271.913 168.793 270.174 168.793C268.434 168.793 266.766 168.102 265.535 166.872C264.305 165.641 263.614 163.973 263.614 162.233Z" fill="#8FDEBE"/>
<path d="M270.174 178.111C270.153 178.111 270.133 178.103 270.118 178.088C270.103 178.073 270.094 178.053 270.094 178.031V154.478C270.094 154.457 270.103 154.437 270.118 154.422C270.133 154.407 270.153 154.399 270.174 154.399C270.195 154.399 270.215 154.407 270.23 154.422C270.245 154.437 270.253 154.457 270.253 154.478V178.031C270.253 178.053 270.245 178.073 270.23 178.088C270.215 178.103 270.195 178.111 270.174 178.111Z" fill="#3F3D56"/>
<path d="M270.174 164.886C270.158 164.886 270.143 164.881 270.13 164.873C270.117 164.864 270.107 164.852 270.101 164.837C270.095 164.823 270.093 164.807 270.096 164.792C270.098 164.777 270.106 164.763 270.116 164.751L273.451 161.252C273.465 161.237 273.485 161.228 273.506 161.228C273.527 161.227 273.548 161.235 273.563 161.25C273.578 161.264 273.587 161.284 273.588 161.305C273.588 161.326 273.58 161.347 273.566 161.362L270.231 164.861C270.224 164.869 270.215 164.875 270.205 164.879C270.195 164.883 270.185 164.886 270.174 164.886Z" fill="#3F3D56"/>
<path d="M270.174 158.986C270.154 158.986 270.135 158.979 270.12 158.965L267.238 156.331C267.223 156.317 267.214 156.297 267.213 156.276C267.212 156.255 267.219 156.234 267.233 156.219C267.248 156.203 267.267 156.194 267.289 156.193C267.31 156.192 267.33 156.199 267.346 156.214L270.227 158.848C270.239 158.859 270.247 158.873 270.251 158.889C270.255 158.904 270.254 158.921 270.248 158.936C270.242 158.95 270.232 158.963 270.219 158.972C270.205 158.981 270.19 158.986 270.174 158.986Z" fill="#3F3D56"/>
<path d="M319.385 177.944C319.392 177.95 319.4 177.955 319.408 177.961H325.865C325.992 177.448 326.036 176.935 325.847 176.489C325.578 175.854 324.781 175.458 324.147 175.731C323.997 175.797 323.867 175.9 323.767 176.031C323.52 175.588 323.076 175.254 322.563 175.254C321.921 175.255 321.387 175.78 321.212 176.387C320.932 175.913 320.377 175.582 319.836 175.724C318.929 175.963 318.643 177.371 319.385 177.944Z" fill="#E6E6E6"/>
<path d="M263.909 178.086C263.924 178.098 263.94 178.108 263.956 178.12H276.991C277.247 177.085 277.337 176.049 276.956 175.149C276.412 173.867 274.803 173.067 273.524 173.617C273.221 173.751 272.957 173.96 272.757 174.224C272.257 173.33 271.36 172.655 270.326 172.656C269.029 172.657 267.951 173.717 267.599 174.942C267.033 173.986 265.914 173.317 264.82 173.605C262.99 174.086 262.413 176.929 263.909 178.086Z" fill="#E6E6E6"/>
<path d="M329.366 177.888L261.865 178.016L261.865 178.175L329.367 178.047L329.366 177.888Z" fill="#3F3D56"/>
</svg>
