<svg width="330" height="219" viewBox="0 0 330 219" fill="none" xmlns="http://www.w3.org/2000/svg">
<path d="M317.101 146.259C314.718 148.863 311.763 150.8 308.556 152.305H308.552C308.25 152.448 307.949 152.588 307.643 152.719H307.639L307.635 152.723L307.631 152.719H307.628L307.627 152.721L307.626 152.722L307.625 152.723L307.624 152.723H307.62L307.616 152.719C307.612 152.723 307.612 152.723 307.608 152.719L307.604 152.723L307.6 152.719H307.597C307.593 152.723 307.593 152.723 307.589 152.719H307.585C305.439 153.647 303.234 154.436 300.986 155.079C287.764 158.83 273.868 159.555 260.328 157.202C260.068 157.156 259.813 157.109 259.554 157.063V125.688C259.809 125.58 260.068 125.472 260.328 125.367C262.018 124.667 263.729 124.024 265.461 123.437C267.952 122.586 270.478 121.856 273.038 121.248C281.393 119.226 290.013 118.529 298.584 119.182C300.143 119.298 301.698 119.466 303.249 119.685C306.494 120.138 309.898 120.927 312.892 122.296H312.896C313.333 122.501 313.762 122.714 314.188 122.942C316.849 124.385 319.093 126.369 320.462 129.088C320.954 130.065 321.308 131.105 321.514 132.179V132.187C321.592 132.558 321.646 132.933 321.688 133.305C322.176 137.885 320.276 142.786 317.101 146.259Z" fill="#F2F2F2"/>
<path d="M321.688 133.305C321.65 133.314 321.611 133.319 321.572 133.32C314.946 133.61 308.329 134.041 301.721 134.612H301.709C301.682 134.616 301.659 134.616 301.632 134.62C294.847 135.208 288.077 135.944 281.32 136.829C281.034 136.867 280.751 136.906 280.469 136.941C275.796 137.564 271.133 138.255 266.478 139.014C264.424 139.351 262.374 139.701 260.328 140.066C260.068 140.113 259.813 140.155 259.554 140.206V139.033C259.813 138.983 260.072 138.941 260.328 138.894C267.143 137.687 273.982 136.634 280.844 135.734C282.57 135.502 284.297 135.283 286.028 135.076C291.025 134.473 296.031 133.952 301.044 133.514C301.411 133.483 301.775 133.452 302.142 133.421C308.56 132.875 314.986 132.461 321.421 132.179C321.453 132.178 321.484 132.18 321.514 132.187C322.133 132.241 322.265 133.169 321.688 133.305Z" fill="white"/>
<path d="M307.928 151.579C299.673 151.64 291.541 148.14 285.702 142.346C284.055 140.705 282.603 138.879 281.376 136.904C280.982 136.272 280.062 136.968 280.452 137.594C284.986 144.867 292.54 150.047 300.867 151.952C303.232 152.488 305.651 152.747 308.076 152.723C308.816 152.718 308.663 151.574 307.928 151.579Z" fill="white"/>
<path d="M273.038 121.248C273.003 121.356 272.94 121.454 272.855 121.531C272.77 121.607 272.667 121.66 272.555 121.685C270.663 122.18 268.835 122.894 267.109 123.812C264.587 125.144 262.297 126.875 260.328 128.938C260.223 129.042 260.123 129.146 260.026 129.255C259.863 129.425 259.709 129.599 259.554 129.777V128.09C259.802 127.827 260.061 127.568 260.328 127.321C261.883 125.832 263.605 124.529 265.461 123.437C267.952 122.586 270.478 121.856 273.038 121.248Z" fill="white"/>
<path d="M313.576 121.991C308.325 124.248 303.932 128.122 301.035 133.048C300.976 133.189 300.976 133.348 301.033 133.489C301.09 133.631 301.201 133.744 301.342 133.804C301.483 133.86 301.64 133.859 301.781 133.802C301.922 133.745 302.035 133.636 302.097 133.498C304.862 128.844 309.034 125.189 314.01 123.06C314.693 122.768 314.26 121.699 313.576 121.991Z" fill="white"/>
<path d="M329.405 89.138C328.508 92.5497 326.787 95.6404 324.648 98.4603L324.644 98.4642C324.446 98.7272 324.241 98.9941 324.029 99.2494V99.2533C322.543 101.083 320.94 102.813 319.228 104.433C313.075 110.296 306.125 115.262 298.584 119.182C286.72 125.379 273.46 129.042 260.328 129.251C260.227 129.255 260.126 129.255 260.026 129.255C259.867 129.259 259.709 129.259 259.554 129.259V111.678C259.805 111.198 260.064 110.719 260.328 110.243C263.74 104.102 267.902 98.4082 272.717 93.2924C272.833 93.1648 272.953 93.0371 273.073 92.9133C274.883 91.0025 276.781 89.1831 278.767 87.4554C286.406 80.7388 295.234 75.5106 304.796 72.0407C307.879 70.9344 311.26 70.0486 314.548 69.8746C315.031 69.8475 315.511 69.8359 315.994 69.8397C319.023 69.8823 321.928 70.5979 324.408 72.3695C325.296 73.0072 326.092 73.7634 326.775 74.6169C327.015 74.9148 327.235 75.2203 327.448 75.5337V75.5375C330.009 79.367 330.604 84.5852 329.405 89.138Z" fill="#F2F2F2"/>
<path d="M327.448 75.5337V75.5376C327.419 75.5625 327.388 75.5846 327.355 75.6033C321.63 78.9338 315.978 82.3855 310.397 85.9584C310.389 85.9623 310.386 85.9661 310.378 85.97C310.355 85.9856 310.332 85.9998 310.308 86.0126C304.572 89.6873 298.916 93.4859 293.342 97.4082C293.11 97.5706 292.874 97.737 292.638 97.9033C288.79 100.623 284.981 103.4 281.212 106.235C274.094 111.597 267.133 117.156 260.328 122.915C260.068 123.131 259.813 123.352 259.554 123.572V122.068C259.809 121.847 260.068 121.627 260.328 121.41C262.935 119.209 265.565 117.039 268.219 114.9C269.012 114.262 269.808 113.624 270.605 112.993C277.684 107.357 284.921 101.931 292.317 96.7158H292.321C293.776 95.6907 295.233 94.6747 296.692 93.6677C300.839 90.813 305.032 88.0266 309.272 85.3086C309.577 85.1113 309.887 84.914 310.196 84.7167C315.623 81.2509 321.121 77.8984 326.69 74.6595C326.717 74.643 326.746 74.6287 326.775 74.6169C327.355 74.3849 327.901 75.1507 327.448 75.5337Z" fill="white"/>
<path d="M323.753 98.1096C316.471 101.998 307.644 102.676 299.782 100.257C297.561 99.5695 295.427 98.6266 293.423 97.4474C292.781 97.0713 292.289 98.1154 292.925 98.4883C300.319 102.822 309.414 103.901 317.674 101.719C320.017 101.095 322.28 100.201 324.416 99.0538C325.069 98.7051 324.402 97.7633 323.753 98.1096Z" fill="white"/>
<path d="M269.271 112.263C268.911 110.238 268.787 108.178 268.903 106.124C269.163 101.441 270.597 96.8982 273.073 92.9141C274.885 91.0039 276.784 89.1843 278.768 87.4553C278.787 87.5683 278.776 87.6843 278.736 87.7918C278.696 87.8994 278.629 87.9946 278.541 88.0683C277.097 89.3862 275.811 90.867 274.707 92.4809C270.766 98.233 269.228 105.297 270.421 112.167C270.44 112.245 270.439 112.326 270.418 112.404C270.396 112.481 270.356 112.552 270.299 112.609C270.217 112.681 270.116 112.73 270.009 112.752C269.901 112.773 269.79 112.766 269.686 112.731C269.582 112.696 269.489 112.634 269.416 112.552C269.343 112.47 269.293 112.37 269.271 112.263Z" fill="white"/>
<path d="M315.011 69.2836C311.409 73.7213 309.318 79.1927 309.041 84.9013C309.055 85.0534 309.128 85.194 309.244 85.2926C309.361 85.3912 309.512 85.44 309.664 85.4282C309.815 85.412 309.954 85.3383 310.052 85.2223C310.15 85.1064 310.2 84.9572 310.191 84.8056C310.478 79.4004 312.474 74.2261 315.891 70.0287C316.361 69.4532 315.481 68.7069 315.011 69.2836Z" fill="white"/>
<path d="M274.953 81.9935V81.9974C274.926 82.3301 274.895 82.6589 274.86 82.9877V82.9954C274.591 85.3358 274.171 87.6564 273.603 89.9426C273.332 91.0644 273.038 92.1784 272.717 93.2924C272.679 93.4356 272.636 93.5787 272.594 93.7179V93.7218C271.649 96.9618 270.52 100.145 269.213 103.257C266.808 108.985 263.831 114.457 260.328 119.588C260.076 119.963 259.817 120.339 259.554 120.71V60.1345C259.813 60.119 260.068 60.1191 260.328 60.1268C260.451 60.1268 260.575 60.1307 260.699 60.1384C261.79 60.1957 262.868 60.4054 263.902 60.7612C264.265 60.8811 264.617 61.0165 264.966 61.1673C269.186 63.0163 272.501 67.0934 273.94 71.5766C275.019 74.9341 275.236 78.4658 274.953 81.9935Z" fill="#F2F2F2"/>
<path d="M264.966 61.1673C264.957 61.2052 264.942 61.2417 264.923 61.2756C263.356 64.3199 261.825 67.3796 260.328 70.4548C260.068 70.9847 259.809 71.5185 259.554 72.0484V69.4181C259.809 68.892 260.067 68.3659 260.328 67.8399C261.484 65.4958 262.66 63.162 263.855 60.8385C263.869 60.8114 263.884 60.7855 263.902 60.7611C264.258 60.2505 265.14 60.5987 264.966 61.1673Z" fill="white"/>
<path d="M275.077 82.6163C275.007 82.7401 274.938 82.8638 274.86 82.9876C273.724 84.9671 272.373 86.8144 270.83 88.4959C267.866 91.7111 264.297 94.3098 260.328 96.1433C260.072 96.267 259.813 96.3831 259.554 96.4914V95.2343C259.813 95.1182 260.072 94.9983 260.328 94.8745C266.074 92.1337 270.847 87.7047 274.009 82.1792C274.055 82.1003 274.117 82.0321 274.191 81.9793C274.266 81.9265 274.35 81.8902 274.44 81.873C274.529 81.8557 274.621 81.8579 274.71 81.8794C274.799 81.9008 274.881 81.9411 274.953 81.9974C275.002 82.0299 275.044 82.0717 275.077 82.1203C275.109 82.169 275.132 82.2237 275.143 82.2812C275.155 82.3387 275.155 82.3979 275.143 82.4554C275.132 82.5129 275.109 82.5675 275.077 82.6163Z" fill="white"/>
<path d="M260.328 12.7649V42.163H259.554V41.8497H0.773633V42.163H0V12.7649C0.00332213 9.38049 1.34926 6.13561 3.74243 3.74243C6.13561 1.34926 9.38049 0.00332213 12.7649 0H247.563C250.947 0.00332213 254.192 1.34926 256.585 3.74243C258.978 6.13561 260.324 9.38049 260.328 12.7649Z" fill="#8FDEBE"/>
<path d="M247.563 0H12.7649C9.38049 0.00332213 6.13561 1.34926 3.74243 3.74243C1.34926 6.13561 0.00332213 9.38049 0 12.7649V180.643C0.00332213 184.028 1.34926 187.273 3.74243 189.666C6.13561 192.059 9.38049 193.405 12.7649 193.408H247.563C250.947 193.405 254.192 192.059 256.585 189.666C258.978 187.273 260.324 184.028 260.328 180.643V12.7649C260.324 9.38049 258.978 6.13561 256.585 3.74243C254.192 1.34926 250.947 0.00332213 247.563 0ZM259.554 180.643C259.55 183.822 258.285 186.87 256.037 189.118C253.789 191.366 250.742 192.631 247.563 192.635H12.7649C9.5859 192.631 6.53821 191.366 4.29028 189.118C2.04236 186.87 0.777689 183.822 0.773633 180.643V12.7649C0.777689 9.5859 2.04236 6.53822 4.29028 4.29029C6.53821 2.04236 9.5859 0.77769 12.7649 0.773633H247.563C250.742 0.777691 253.789 2.04236 256.037 4.29029C258.285 6.53822 259.55 9.5859 259.554 12.7649V180.643Z" fill="#3F3D56"/>
<path d="M52.6071 28.8178C56.8797 28.8178 60.3434 25.3542 60.3434 21.0815C60.3434 16.8088 56.8797 13.3452 52.6071 13.3452C48.3344 13.3452 44.8707 16.8088 44.8707 21.0815C44.8707 25.3542 48.3344 28.8178 52.6071 28.8178Z" fill="white"/>
<path d="M207.721 28.8178C211.993 28.8178 215.457 25.3542 215.457 21.0815C215.457 16.8088 211.993 13.3452 207.721 13.3452C203.448 13.3452 199.984 16.8088 199.984 21.0815C199.984 25.3542 203.448 28.8178 207.721 28.8178Z" fill="white"/>
<path d="M74.9591 107.342H28.9371C26.9874 107.34 25.1182 106.565 23.7395 105.186C22.3609 103.807 21.5854 101.938 21.5832 99.9884V78.2367C21.5854 76.287 22.3609 74.4177 23.7395 73.0391C25.1182 71.6604 26.9874 70.8849 28.9371 70.8827H74.9591C76.9088 70.8849 78.778 71.6604 80.1567 73.0391C81.5354 74.4177 82.3109 76.287 82.3131 78.2367V99.9884C82.3109 101.938 81.5354 103.807 80.1567 105.186C78.778 106.565 76.9088 107.34 74.9591 107.342Z" fill="#8FDEBE"/>
<path d="M153.25 107.342H107.228C105.279 107.34 103.409 106.565 102.031 105.186C100.652 103.807 99.8765 101.938 99.8743 99.9884V78.2367C99.8765 76.287 100.652 74.4177 102.031 73.0391C103.409 71.6604 105.279 70.8849 107.228 70.8827H153.25C155.2 70.8849 157.069 71.6604 158.448 73.0391C159.826 74.4177 160.602 76.287 160.604 78.2367V99.9884C160.602 101.938 159.826 103.807 158.448 105.186C157.069 106.565 155.2 107.34 153.25 107.342Z" fill="#8FDEBE"/>
<path d="M153.25 163.543H107.228C105.219 163.541 103.294 162.742 101.873 161.322C100.453 159.901 99.6537 157.975 99.6515 155.967V134.215C99.6537 132.206 100.453 130.28 101.873 128.86C103.294 127.439 105.219 126.64 107.228 126.638H153.25C155.259 126.64 157.185 127.439 158.605 128.86C160.026 130.28 160.825 132.206 160.827 134.215V155.967C160.825 157.975 160.026 159.901 158.605 161.322C157.185 162.742 155.259 163.541 153.25 163.543Z" fill="#F2F2F2"/>
<path d="M74.8082 163.543H28.7862C26.7774 163.541 24.8515 162.742 23.4311 161.322C22.0107 159.901 21.2117 157.975 21.2094 155.967V134.215C21.2117 132.206 22.0107 130.28 23.4311 128.86C24.8515 127.439 26.7774 126.64 28.7862 126.638H74.8082C76.817 126.64 78.7428 127.439 80.1633 128.86C81.5837 130.28 82.3827 132.206 82.385 134.215V155.967C82.3827 157.975 81.5837 159.901 80.1633 161.322C78.7428 162.742 76.817 163.541 74.8082 163.543Z" fill="#F2F2F2"/>
<path d="M231.541 163.543H185.519C183.511 163.541 181.585 162.742 180.164 161.322C178.744 159.901 177.945 157.975 177.943 155.967V134.215C177.945 132.206 178.744 130.28 180.164 128.86C181.585 127.439 183.511 126.64 185.519 126.638H231.541C233.55 126.64 235.476 127.439 236.896 128.86C238.317 130.28 239.116 132.206 239.118 134.215V155.967C239.116 157.975 238.317 159.901 236.896 161.322C235.476 162.742 233.55 163.541 231.541 163.543Z" fill="#F2F2F2"/>
<path d="M231.541 107.386H185.519C183.511 107.384 181.585 106.585 180.164 105.164C178.744 103.744 177.945 101.818 177.943 99.8093V78.0574C177.945 76.0486 178.744 74.1227 180.164 72.7023C181.585 71.2818 183.511 70.4828 185.519 70.4806H231.541C233.55 70.4828 235.476 71.2818 236.896 72.7023C238.317 74.1227 239.116 76.0486 239.118 78.0574V99.8093C239.116 101.818 238.317 103.744 236.896 105.164C235.476 106.585 233.55 107.384 231.541 107.386Z" fill="#F2F2F2"/>
<path d="M51.9481 101.592C58.8403 101.592 64.4275 96.0047 64.4275 89.1125C64.4275 82.2204 58.8403 76.6331 51.9481 76.6331C45.0559 76.6331 39.4687 82.2204 39.4687 89.1125C39.4687 96.0047 45.0559 101.592 51.9481 101.592Z" fill="white"/>
<path d="M50.7111 93.8731C50.4304 93.8737 50.157 93.7829 49.9324 93.6145L49.9184 93.604L46.9857 91.3586C46.8497 91.2546 46.7355 91.1248 46.6497 90.9767C46.5639 90.8285 46.5081 90.6649 46.4855 90.4952C46.463 90.3254 46.4741 90.1529 46.5183 89.9875C46.5624 89.8221 46.6387 89.667 46.7429 89.5311C46.847 89.3952 46.9769 89.2811 47.1251 89.1955C47.2734 89.1098 47.437 89.0542 47.6068 89.0318C47.7765 89.0094 47.949 89.0207 48.1144 89.065C48.2798 89.1093 48.4348 89.1858 48.5706 89.2901L50.4702 90.7467L54.9593 84.8923C55.0634 84.7565 55.1933 84.6425 55.3414 84.5569C55.4896 84.4713 55.6531 84.4157 55.8228 84.3933C55.9924 84.3709 56.1648 84.3822 56.3301 84.4264C56.4954 84.4706 56.6503 84.547 56.7861 84.6511L56.7582 84.689L56.7868 84.6517C57.0607 84.8622 57.2399 85.1727 57.2851 85.5152C57.3303 85.8577 57.2379 86.2041 57.028 86.4785L51.7477 93.3647C51.6256 93.5233 51.4686 93.6518 51.2888 93.7399C51.109 93.8281 50.9114 93.8737 50.7111 93.8731Z" fill="#8FDEBE"/>
<path d="M130.462 101.413C137.354 101.413 142.941 95.8255 142.941 88.9333C142.941 82.0412 137.354 76.4539 130.462 76.4539C123.57 76.4539 117.983 82.0412 117.983 88.9333C117.983 95.8255 123.57 101.413 130.462 101.413Z" fill="white"/>
<path d="M129.225 93.6939C128.944 93.6945 128.671 93.6037 128.446 93.4353L128.432 93.4248L125.5 91.1794C125.225 90.9692 125.046 90.6587 125 90.3161C124.955 89.9736 125.048 89.627 125.258 89.3527C125.468 89.0784 125.779 88.8988 126.121 88.8535C126.464 88.8081 126.81 88.9007 127.085 89.1109L128.984 90.5675L133.473 84.7131C133.577 84.5773 133.707 84.4633 133.855 84.3777C134.004 84.2921 134.167 84.2365 134.337 84.2141C134.506 84.1917 134.679 84.203 134.844 84.2472C135.009 84.2914 135.164 84.3678 135.3 84.4719L135.272 84.5098L135.301 84.4725C135.575 84.683 135.754 84.9935 135.799 85.336C135.844 85.6785 135.752 86.0249 135.542 86.2993L130.262 93.1855C130.14 93.3442 129.983 93.4726 129.803 93.5608C129.623 93.6489 129.425 93.6945 129.225 93.6939Z" fill="#8FDEBE"/>
<path d="M214.804 147.822C215.214 147.374 215.521 146.841 215.702 146.261C215.884 145.682 215.937 145.069 215.856 144.467C215.776 143.865 215.564 143.288 215.236 142.776C214.909 142.265 214.473 141.831 213.96 141.506L206.993 104.305L198.52 107.447L208.032 143.027C207.544 143.925 207.402 144.972 207.633 145.968C207.865 146.964 208.453 147.841 209.288 148.432C210.123 149.023 211.145 149.287 212.162 149.175C213.179 149.063 214.119 148.581 214.804 147.822Z" fill="#A0616A"/>
<path d="M147.194 91.0568C147.215 91.2878 147.218 91.5201 147.203 91.7515L163.677 104.431L168.349 102.513L172.166 109.185L164.225 113.385C163.584 113.724 162.85 113.846 162.133 113.733C161.416 113.619 160.756 113.276 160.25 112.755L143.783 95.7784C142.911 95.975 142.001 95.9015 141.172 95.5678C140.343 95.2341 139.635 94.6559 139.143 93.9102C138.65 93.1645 138.397 92.2865 138.416 91.3932C138.435 90.4998 138.725 89.6333 139.248 88.909C139.771 88.1847 140.503 87.6369 141.345 87.3384C142.187 87.0399 143.101 87.0049 143.963 87.2381C144.826 87.4712 145.597 87.9615 146.174 88.6436C146.751 89.3258 147.107 90.1675 147.194 91.0568Z" fill="#A0616A"/>
<path d="M185.683 213.851H180.941L178.685 199.428L185.684 199.428L185.683 213.851Z" fill="#A0616A"/>
<path d="M186.892 218.448L171.601 218.448V218.254C171.601 217.473 171.755 216.699 172.054 215.977C172.353 215.255 172.792 214.598 173.345 214.046C173.897 213.493 174.553 213.055 175.275 212.756C175.998 212.457 176.771 212.303 177.553 212.303L186.893 212.303L186.892 218.448Z" fill="#2F2E41"/>
<path d="M203.476 213.851H198.734L196.478 199.428L203.478 199.428L203.476 213.851Z" fill="#A0616A"/>
<path d="M204.686 218.448L189.395 218.448V218.254C189.395 217.473 189.549 216.699 189.848 215.977C190.147 215.255 190.585 214.598 191.138 214.046C191.691 213.493 192.347 213.055 193.069 212.756C193.791 212.457 194.565 212.303 195.347 212.303L204.686 212.303L204.686 218.448Z" fill="#2F2E41"/>
<path d="M179.956 211C179.523 211.001 179.106 210.84 178.785 210.548C178.465 210.257 178.265 209.856 178.225 209.425L174.092 153.844L174.288 153.828L202.727 151.49L202.735 151.692L204.995 209.27C205.004 209.504 204.966 209.738 204.882 209.956C204.799 210.175 204.672 210.374 204.509 210.543C204.347 210.712 204.152 210.846 203.937 210.937C203.721 211.029 203.49 211.076 203.256 211.076H197.68C197.263 211.078 196.86 210.93 196.544 210.659C196.228 210.388 196.021 210.012 195.959 209.6L188.387 163.087C188.379 163.039 188.354 162.996 188.316 162.966C188.278 162.935 188.23 162.92 188.182 162.924C188.133 162.927 188.088 162.949 188.055 162.985C188.021 163.02 188.003 163.067 188.002 163.115L187.659 209.04C187.655 209.483 187.483 209.909 187.176 210.229C186.87 210.55 186.453 210.742 186.01 210.766L180.049 210.998C180.018 211 179.987 211 179.956 211Z" fill="#2F2E41"/>
<path d="M184.81 83.6009C190.057 83.6009 194.311 79.3474 194.311 74.1003C194.311 68.8533 190.057 64.5997 184.81 64.5997C179.563 64.5997 175.31 68.8533 175.31 74.1003C175.31 79.3474 179.563 83.6009 184.81 83.6009Z" fill="#A0616A"/>
<path d="M186.649 157.389C182.497 157.376 178.364 156.811 174.361 155.709C173.975 155.597 173.641 155.355 173.413 155.025C173.185 154.695 173.077 154.296 173.109 153.896C174.388 134.674 174.689 119.757 171.999 109.436C170.853 105.037 171.373 100.404 173.427 96.7252C176.518 91.1887 182.198 87.819 188.258 87.9353C188.547 87.9408 188.84 87.9511 189.135 87.9663C198.331 88.4398 205.496 96.7588 205.108 106.511L203.259 152.994C203.252 153.333 203.145 153.663 202.951 153.941C202.757 154.22 202.485 154.434 202.17 154.558C197.208 156.425 191.951 157.384 186.649 157.389Z" fill="#3F3D56"/>
<path d="M173.563 113.005L166.446 104.284C166.244 104.036 166.097 103.747 166.016 103.437C165.936 103.128 165.923 102.804 165.978 102.489C166.034 102.173 166.157 101.873 166.338 101.61C166.52 101.346 166.757 101.125 167.032 100.961L176.672 95.2167C177.947 94.1876 179.579 93.7064 181.208 93.8784C182.838 94.0505 184.333 94.8618 185.365 96.1344C186.398 97.407 186.883 99.0372 186.715 100.667C186.548 102.297 185.74 103.794 184.47 104.83L176.936 113.098C176.72 113.334 176.456 113.522 176.161 113.647C175.867 113.772 175.548 113.832 175.228 113.824C174.908 113.815 174.594 113.737 174.306 113.596C174.019 113.455 173.765 113.253 173.563 113.005Z" fill="#3F3D56"/>
<path d="M195.95 111.911C195.657 111.78 195.397 111.588 195.185 111.347C194.974 111.106 194.817 110.823 194.726 110.516L191.522 99.7989C190.827 98.3149 190.748 96.6157 191.304 95.0739C191.86 93.5321 193.004 92.2736 194.486 91.5745C195.969 90.8754 197.668 90.7927 199.211 91.3445C200.754 91.8964 202.015 93.0377 202.718 94.5182L208.913 103.875C209.09 104.142 209.207 104.444 209.257 104.76C209.306 105.077 209.287 105.4 209.2 105.708C209.114 106.017 208.962 106.303 208.755 106.547C208.547 106.791 208.29 106.988 208 107.123L197.806 111.895C197.516 112.031 197.2 112.103 196.879 112.106C196.559 112.108 196.242 112.042 195.95 111.911Z" fill="#3F3D56"/>
<path d="M189.505 81.8958L182.463 80.2839C181.736 80.1176 180.863 79.8004 180.763 79.062C180.627 78.0698 182.055 77.3785 181.924 76.3858C181.796 75.4243 180.495 75.3004 179.568 75.0165C178.704 74.7135 177.992 74.0863 177.582 73.2676C177.173 72.4488 177.098 71.5029 177.373 70.6299C176.37 72.0441 174.077 72.1653 172.776 71.0195C171.474 69.8738 171.224 67.7949 172.006 66.247C172.428 65.4867 173.024 64.8368 173.745 64.3502C174.466 63.8635 175.291 63.5538 176.154 63.4463C177.889 63.2495 179.644 63.5766 181.192 64.3854C181.295 63.2894 182.663 62.8451 183.764 62.8353C186.051 62.862 188.272 63.6008 190.119 64.949C191.967 66.2972 193.348 68.1878 194.07 70.3575C195.421 74.71 194.517 79.4811 190.738 82.0277L189.505 81.8958Z" fill="#2F2E41"/>
<path d="M260.439 218.551H113.062C112.959 218.551 112.861 218.511 112.788 218.438C112.716 218.366 112.675 218.267 112.675 218.165C112.675 218.062 112.716 217.964 112.788 217.891C112.861 217.819 112.959 217.778 113.062 217.778H260.439C260.541 217.778 260.64 217.819 260.712 217.891C260.785 217.964 260.826 218.062 260.826 218.165C260.826 218.267 260.785 218.366 260.712 218.438C260.64 218.511 260.541 218.551 260.439 218.551Z" fill="#3F3D56"/>
<path d="M89.7445 26.21C87.0705 26.21 84.7325 24.278 84.7325 21.044C84.7325 17.81 87.1545 15.864 89.7305 15.864C92.2505 15.864 93.7485 17.348 94.1965 19.084L92.6145 19.616C92.3205 18.412 91.3965 17.446 89.7305 17.446C88.0925 17.446 86.4545 18.636 86.4545 21.044C86.4545 23.368 88.0505 24.6 89.7445 24.6C91.4105 24.6 92.3625 23.536 92.6985 22.416L94.2385 22.92C93.7905 24.6 92.2785 26.21 89.7445 26.21ZM97.2912 21.996V26H95.6672V15.864H97.2912V19.84C97.7532 19.238 98.5232 18.986 99.2372 18.986C100.917 18.986 101.729 20.19 101.729 21.688V26H100.105V21.968C100.105 21.128 99.7272 20.456 98.7052 20.456C97.8092 20.456 97.3192 21.128 97.2912 21.996ZM106.702 24.754C107.71 24.754 108.606 24.012 108.606 22.584C108.606 21.17 107.71 20.442 106.702 20.442C105.708 20.442 104.798 21.17 104.798 22.584C104.798 23.998 105.708 24.754 106.702 24.754ZM106.702 18.972C108.746 18.972 110.244 20.498 110.244 22.584C110.244 24.684 108.746 26.21 106.702 26.21C104.672 26.21 103.174 24.684 103.174 22.584C103.174 20.498 104.672 18.972 106.702 18.972ZM114.81 24.754C115.818 24.754 116.714 24.012 116.714 22.584C116.714 21.17 115.818 20.442 114.81 20.442C113.816 20.442 112.906 21.17 112.906 22.584C112.906 23.998 113.816 24.754 114.81 24.754ZM114.81 18.972C116.854 18.972 118.352 20.498 118.352 22.584C118.352 24.684 116.854 26.21 114.81 26.21C112.78 26.21 111.282 24.684 111.282 22.584C111.282 20.498 112.78 18.972 114.81 18.972ZM119.319 24.152L120.733 23.76C120.789 24.376 121.251 24.922 122.119 24.922C122.791 24.922 123.141 24.558 123.141 24.138C123.141 23.774 122.889 23.494 122.343 23.382L121.335 23.158C120.131 22.892 119.501 22.108 119.501 21.17C119.501 19.98 120.593 18.972 122.007 18.972C123.911 18.972 124.527 20.204 124.639 20.876L123.267 21.268C123.211 20.876 122.917 20.246 122.007 20.246C121.433 20.246 121.027 20.61 121.027 21.03C121.027 21.394 121.293 21.66 121.713 21.744L122.749 21.954C124.037 22.234 124.709 23.018 124.709 24.026C124.709 25.062 123.869 26.21 122.133 26.21C120.159 26.21 119.403 24.922 119.319 24.152ZM127.413 21.842H130.759C130.731 21.044 130.199 20.33 129.079 20.33C128.057 20.33 127.469 21.114 127.413 21.842ZM130.941 23.62L132.313 24.054C131.949 25.244 130.871 26.21 129.233 26.21C127.385 26.21 125.747 24.866 125.747 22.556C125.747 20.4 127.343 18.972 129.065 18.972C131.165 18.972 132.397 20.358 132.397 22.514C132.397 22.78 132.369 23.004 132.355 23.032H127.371C127.413 24.068 128.225 24.81 129.233 24.81C130.213 24.81 130.717 24.292 130.941 23.62ZM137.001 24.152C137.001 22.934 137.897 22.262 139.059 22.094L140.809 21.828C141.201 21.772 141.313 21.576 141.313 21.338C141.313 20.764 140.921 20.302 140.025 20.302C139.171 20.302 138.695 20.848 138.625 21.534L137.141 21.198C137.267 20.022 138.331 18.972 140.011 18.972C142.111 18.972 142.909 20.162 142.909 21.52V24.908C142.909 25.524 142.979 25.93 142.993 26H141.481C141.467 25.958 141.411 25.678 141.411 25.132C141.089 25.65 140.417 26.21 139.311 26.21C137.883 26.21 137.001 25.23 137.001 24.152ZM139.619 24.936C140.529 24.936 141.313 24.502 141.313 23.172V22.864L139.535 23.13C139.031 23.214 138.625 23.494 138.625 24.054C138.625 24.516 138.975 24.936 139.619 24.936ZM149.437 22.57C149.437 23.872 150.165 24.74 151.271 24.74C152.335 24.74 153.077 23.858 153.077 22.556C153.077 21.254 152.349 20.442 151.285 20.442C150.221 20.442 149.437 21.268 149.437 22.57ZM154.645 15.864V24.754C154.645 25.37 154.701 25.888 154.715 26H153.161C153.133 25.846 153.091 25.398 153.091 25.118C152.769 25.692 152.055 26.168 151.089 26.168C149.129 26.168 147.813 24.628 147.813 22.57C147.813 20.61 149.143 19 151.061 19C152.251 19 152.853 19.546 153.063 19.98V15.864H154.645ZM156.319 24.152C156.319 22.934 157.215 22.262 158.377 22.094L160.127 21.828C160.519 21.772 160.631 21.576 160.631 21.338C160.631 20.764 160.239 20.302 159.343 20.302C158.489 20.302 158.013 20.848 157.943 21.534L156.459 21.198C156.585 20.022 157.649 18.972 159.329 18.972C161.429 18.972 162.227 20.162 162.227 21.52V24.908C162.227 25.524 162.297 25.93 162.311 26H160.799C160.785 25.958 160.729 25.678 160.729 25.132C160.407 25.65 159.735 26.21 158.629 26.21C157.201 26.21 156.319 25.23 156.319 24.152ZM158.937 24.936C159.847 24.936 160.631 24.502 160.631 23.172V22.864L158.853 23.13C158.349 23.214 157.943 23.494 157.943 24.054C157.943 24.516 158.293 24.936 158.937 24.936ZM166.221 17.096V19.182H167.635V20.624H166.221V23.788C166.221 24.39 166.487 24.642 167.089 24.642C167.313 24.642 167.579 24.6 167.649 24.586V25.93C167.551 25.972 167.243 26.084 166.655 26.084C165.395 26.084 164.611 25.328 164.611 24.054V20.624H163.351V19.182H163.701C164.429 19.182 164.751 18.72 164.751 18.118V17.096H166.221ZM170.37 21.842H173.716C173.688 21.044 173.156 20.33 172.036 20.33C171.014 20.33 170.426 21.114 170.37 21.842ZM173.898 23.62L175.27 24.054C174.906 25.244 173.828 26.21 172.19 26.21C170.342 26.21 168.704 24.866 168.704 22.556C168.704 20.4 170.3 18.972 172.022 18.972C174.122 18.972 175.354 20.358 175.354 22.514C175.354 22.78 175.326 23.004 175.312 23.032H170.328C170.37 24.068 171.182 24.81 172.19 24.81C173.17 24.81 173.674 24.292 173.898 23.62Z" fill="#373737"/>
</svg>
