<svg width="330" height="321" viewBox="0 0 330 321" fill="none" xmlns="http://www.w3.org/2000/svg">
<path d="M296.29 48.122C276.061 1.99526 227.503 -15.3724 189.19 15.5983C174.229 27.6808 164.895 46.9104 146.576 54.6267C129.387 61.8632 107.613 59.7329 89.0253 63.652C49.444 71.9455 -3.84606 103.412 0.219398 151.897C2.00007 173.135 16.3267 196.723 23.4088 216.595C31.5397 239.459 36.4182 268.063 57.9408 281.731C94.8389 305.197 139.348 286.016 172.587 267.096C190.475 256.924 200.321 250.671 219.583 254.159C237.415 257.412 253.473 268.795 270.898 255.29C283.98 245.15 285.062 224.604 296.047 212.537C308.422 198.942 320.968 197.959 327.399 177.526C335.197 152.734 323.708 137.245 315.943 115.096C308.178 92.9477 305.82 69.8234 296.29 48.122Z" fill="#8FDEBE"/>
<g opacity="0.7">
<path d="M296.29 48.122C276.061 1.99526 227.503 -15.3724 189.19 15.5983C174.229 27.6808 164.895 46.9104 146.576 54.6267C129.387 61.8632 107.613 59.7329 89.0253 63.652C49.444 71.9455 -3.84606 103.412 0.219398 151.897C2.00007 173.135 16.3267 196.723 23.4088 216.595C31.5397 239.459 36.4182 268.063 57.9408 281.731C94.8389 305.197 139.348 286.016 172.587 267.096C190.475 256.924 200.321 250.671 219.583 254.159C237.415 257.412 253.473 268.795 270.898 255.29C283.98 245.15 285.062 224.604 296.047 212.537C308.422 198.942 320.968 197.959 327.399 177.526C335.197 152.734 323.708 137.245 315.943 115.096C308.178 92.9477 305.82 69.8234 296.29 48.122Z" fill="white"/>
</g>
<path d="M142.356 320.248C211.771 320.248 268.044 316.742 268.044 312.417C268.044 308.093 211.771 304.587 142.356 304.587C72.9405 304.587 16.6682 308.093 16.6682 312.417C16.6682 316.742 72.9405 320.248 142.356 320.248Z" fill="#8FDEBE"/>
<path opacity="0.8" d="M142.356 320.248C211.771 320.248 268.044 316.742 268.044 312.417C268.044 308.093 211.771 304.587 142.356 304.587C72.9405 304.587 16.6682 308.093 16.6682 312.417C16.6682 316.742 72.9405 320.248 142.356 320.248Z" fill="white"/>
<path d="M236.805 14.6714H110.426C101.701 14.6714 94.6274 21.7446 94.6274 30.4698V297.278C94.6274 306.003 101.701 313.076 110.426 313.076H236.805C245.53 313.076 252.603 306.003 252.603 297.278V30.4698C252.603 21.7446 245.53 14.6714 236.805 14.6714Z" fill="#263238"/>
<path d="M245.578 47.439H101.645V280.308H245.578V47.439Z" fill="white" stroke="#263238" stroke-width="1.33739" stroke-miterlimit="10"/>
<path d="M195.676 141.735C207.859 129.551 207.859 109.797 195.676 97.6135C183.492 85.4298 163.738 85.4298 151.554 97.6135C139.371 109.797 139.371 129.551 151.554 141.735C163.738 153.918 183.492 153.918 195.676 141.735Z" fill="#8FDEBE"/>
<path d="M214.575 265.665H132.664C132.48 265.666 132.297 265.63 132.126 265.561C131.956 265.491 131.801 265.388 131.67 265.258C131.539 265.128 131.435 264.973 131.365 264.803C131.294 264.633 131.257 264.451 131.257 264.266C131.256 264.081 131.292 263.898 131.362 263.727C131.433 263.555 131.536 263.4 131.667 263.269C131.798 263.138 131.953 263.035 132.124 262.964C132.296 262.894 132.479 262.858 132.664 262.86H214.575C214.759 262.86 214.942 262.896 215.112 262.967C215.282 263.038 215.437 263.141 215.567 263.272C215.697 263.403 215.799 263.558 215.869 263.728C215.939 263.899 215.974 264.082 215.973 264.266C215.973 264.637 215.826 264.993 215.564 265.255C215.301 265.517 214.946 265.665 214.575 265.665Z" fill="#8FDEBE"/>
<path d="M217.242 168.411H129.989C128.188 168.411 126.728 169.871 126.728 171.671V181.957C126.728 183.758 128.188 185.217 129.989 185.217H217.242C219.042 185.217 220.502 183.758 220.502 181.957V171.671C220.502 169.871 219.042 168.411 217.242 168.411Z" fill="#8FDEBE"/>
<path d="M217.242 199.845H129.989C128.188 199.845 126.728 201.305 126.728 203.105V213.391C126.728 215.192 128.188 216.651 129.989 216.651H217.242C219.042 216.651 220.502 215.192 220.502 213.391V203.105C220.502 201.305 219.042 199.845 217.242 199.845Z" fill="#8FDEBE"/>
<path d="M189.149 135.237L179.97 129.952V125.585C181.299 123.977 182.262 122.099 182.791 120.081C183.107 120.193 183.44 120.251 183.775 120.251C184.913 120.251 185.637 116.723 185.759 114.202C187.084 111.397 185.279 109.754 185.279 109.754C185.279 109.754 186.027 109.006 186.523 106.006C187.019 103.006 184.775 104.258 183.027 101.51C181.279 98.7613 180.026 95.7692 174.286 95.7692C172.704 95.7171 171.143 96.1422 169.806 96.989C168.469 97.8359 167.418 99.0653 166.789 100.518C165.36 100.523 163.937 100.689 162.545 101.014C160.789 101.51 160.293 107.258 161.789 109.51C162.458 110.741 162.816 112.118 162.83 113.519C162.431 113.031 162.016 112.901 161.789 114.007C161.293 116.503 163.293 119.999 163.293 119.999L164.326 119.707C164.846 121.863 165.85 123.873 167.261 125.585V129.952L158.081 135.237C157.009 135.856 156.119 136.746 155.499 137.817C154.88 138.889 154.553 140.105 154.552 141.343V144.368C160.012 148.585 166.716 150.873 173.615 150.873C180.514 150.873 187.218 148.585 192.678 144.368V141.343C192.679 140.105 192.353 138.888 191.733 137.816C191.114 136.744 190.222 135.854 189.149 135.237Z" fill="#263238"/>
<path d="M138.608 212.472C138.397 212.469 138.196 212.385 138.047 212.236C137.967 212.165 137.903 212.077 137.859 211.979C137.816 211.881 137.794 211.775 137.795 211.667C137.797 211.521 137.839 211.377 137.917 211.253L139.38 208.911L136.526 209C136.419 209.007 136.311 208.991 136.21 208.953C136.109 208.915 136.017 208.857 135.941 208.781C135.808 208.632 135.735 208.439 135.735 208.24C135.735 208.041 135.808 207.848 135.941 207.699C136.016 207.621 136.107 207.56 136.208 207.52C136.309 207.481 136.418 207.464 136.526 207.472L139.339 207.577L137.892 205.244C137.813 205.117 137.771 204.97 137.77 204.821C137.769 204.714 137.791 204.607 137.835 204.509C137.878 204.411 137.942 204.323 138.022 204.252C138.172 204.104 138.373 204.019 138.583 204.016C138.722 204.017 138.857 204.057 138.974 204.132C139.09 204.207 139.183 204.313 139.242 204.439L140.632 206.951L142.006 204.455C142.072 204.322 142.172 204.209 142.297 204.129C142.421 204.049 142.566 204.004 142.714 204C142.817 204 142.918 204.022 143.012 204.064C143.106 204.106 143.19 204.167 143.259 204.244C143.408 204.398 143.49 204.606 143.486 204.821C143.486 204.961 143.449 205.098 143.381 205.219L141.909 207.577L144.763 207.472C144.871 207.464 144.98 207.481 145.081 207.52C145.182 207.56 145.273 207.621 145.348 207.699C145.487 207.843 145.563 208.036 145.56 208.236C145.559 208.438 145.484 208.632 145.348 208.781C145.272 208.857 145.18 208.915 145.079 208.953C144.978 208.991 144.87 209.007 144.763 209L141.893 208.911L143.324 211.228C143.404 211.358 143.446 211.507 143.446 211.659C143.446 211.875 143.36 212.082 143.207 212.234C143.055 212.387 142.848 212.472 142.632 212.472C142.493 212.47 142.357 212.428 142.242 212.35C142.126 212.272 142.036 212.162 141.982 212.033L140.624 209.594L139.274 212.033C139.215 212.161 139.121 212.269 139.003 212.347C138.885 212.424 138.748 212.468 138.608 212.472Z" fill="#263238"/>
<path d="M151.796 212.472C151.586 212.469 151.385 212.385 151.235 212.236C151.155 212.165 151.091 212.077 151.048 211.979C151.004 211.881 150.982 211.775 150.983 211.667C150.986 211.521 151.028 211.377 151.105 211.253L152.569 208.911L149.723 209C149.614 209.005 149.506 208.988 149.404 208.951C149.302 208.913 149.208 208.855 149.129 208.781C149.021 208.669 148.949 208.528 148.923 208.375C148.896 208.223 148.916 208.065 148.98 207.924C149.044 207.783 149.149 207.664 149.282 207.584C149.414 207.503 149.568 207.464 149.723 207.472L152.528 207.577L151.081 205.244C151.002 205.117 150.96 204.97 150.959 204.821C150.958 204.714 150.98 204.607 151.023 204.509C151.067 204.411 151.131 204.323 151.211 204.252C151.36 204.104 151.561 204.019 151.772 204.016C151.91 204.017 152.046 204.057 152.162 204.132C152.279 204.207 152.372 204.313 152.43 204.439L153.821 206.951L155.195 204.455C155.26 204.322 155.36 204.209 155.485 204.129C155.61 204.049 155.754 204.004 155.902 204C156.005 203.999 156.107 204.021 156.201 204.063C156.295 204.105 156.379 204.167 156.447 204.244C156.522 204.32 156.582 204.41 156.622 204.509C156.663 204.608 156.683 204.714 156.683 204.821C156.68 204.961 156.641 205.099 156.569 205.219L155.097 207.577L157.959 207.488C158.066 207.481 158.174 207.497 158.274 207.537C158.373 207.576 158.463 207.637 158.537 207.716C158.675 207.86 158.751 208.052 158.748 208.252C158.748 208.454 158.672 208.648 158.537 208.797C158.462 208.873 158.371 208.931 158.272 208.969C158.172 209.007 158.066 209.023 157.959 209.017L155.081 208.927L156.512 211.244C156.592 211.374 156.635 211.523 156.634 211.675C156.634 211.891 156.548 212.098 156.396 212.25C156.243 212.403 156.037 212.488 155.821 212.488C155.682 212.487 155.546 212.444 155.43 212.366C155.315 212.288 155.224 212.178 155.17 212.049L153.813 209.61L152.463 212.049C152.401 212.174 152.306 212.279 152.188 212.354C152.071 212.428 151.935 212.469 151.796 212.472Z" fill="#263238"/>
<path d="M164.993 212.472C164.779 212.471 164.575 212.387 164.424 212.236C164.344 212.165 164.28 212.077 164.236 211.979C164.193 211.881 164.171 211.775 164.171 211.667C164.174 211.521 164.216 211.377 164.293 211.253L165.757 208.911L162.911 209C162.758 209.006 162.606 208.967 162.476 208.886C162.345 208.806 162.241 208.689 162.178 208.549C162.114 208.41 162.093 208.254 162.118 208.103C162.143 207.952 162.213 207.811 162.318 207.699C162.394 207.621 162.487 207.56 162.59 207.521C162.692 207.482 162.802 207.465 162.911 207.472L165.716 207.577L164.269 205.244C164.19 205.117 164.148 204.97 164.147 204.821C164.15 204.714 164.173 204.609 164.216 204.511C164.26 204.414 164.322 204.326 164.399 204.252C164.551 204.102 164.755 204.017 164.968 204.016C165.105 204.018 165.239 204.059 165.354 204.134C165.469 204.209 165.561 204.315 165.619 204.439L167.009 206.951L168.383 204.455C168.448 204.322 168.549 204.209 168.673 204.129C168.798 204.049 168.942 204.004 169.091 204C169.194 203.999 169.295 204.021 169.389 204.063C169.483 204.105 169.567 204.167 169.635 204.244C169.711 204.32 169.77 204.41 169.811 204.509C169.851 204.608 169.872 204.714 169.871 204.821C169.868 204.961 169.829 205.099 169.757 205.219L168.286 207.577L171.148 207.472C171.253 207.461 171.359 207.473 171.459 207.507C171.56 207.541 171.651 207.596 171.728 207.669C171.805 207.741 171.866 207.829 171.906 207.927C171.946 208.025 171.965 208.13 171.961 208.236C171.963 208.436 171.89 208.63 171.758 208.781C171.681 208.857 171.589 208.915 171.488 208.953C171.387 208.991 171.28 209.007 171.172 209L168.302 208.911L169.725 211.228C169.805 211.358 169.847 211.507 169.847 211.659C169.844 211.766 169.821 211.871 169.777 211.969C169.734 212.066 169.672 212.155 169.595 212.228C169.524 212.304 169.439 212.365 169.343 212.407C169.248 212.449 169.146 212.471 169.042 212.472C168.904 212.47 168.769 212.427 168.655 212.349C168.541 212.271 168.452 212.161 168.4 212.033L167.034 209.594L165.684 212.033C165.623 212.165 165.525 212.276 165.403 212.354C165.28 212.432 165.138 212.473 164.993 212.472Z" fill="#263238"/>
<path d="M178.181 212.472C177.967 212.471 177.763 212.387 177.612 212.236C177.458 212.086 177.371 211.882 177.368 211.667C177.365 211.521 177.405 211.377 177.481 211.253L178.945 208.911L176.099 209C175.991 209.005 175.882 208.988 175.78 208.951C175.678 208.913 175.585 208.855 175.506 208.781C175.373 208.632 175.3 208.439 175.3 208.24C175.3 208.041 175.373 207.848 175.506 207.699C175.584 207.624 175.677 207.564 175.779 207.525C175.881 207.486 175.99 207.468 176.099 207.472L178.912 207.577L177.473 205.244C177.395 205.117 177.352 204.97 177.351 204.821C177.354 204.714 177.378 204.609 177.421 204.511C177.464 204.414 177.526 204.326 177.603 204.252C177.755 204.102 177.959 204.017 178.173 204.016C178.311 204.017 178.447 204.057 178.563 204.132C178.68 204.207 178.773 204.313 178.831 204.439L180.213 206.951L181.588 204.455C181.653 204.322 181.753 204.209 181.878 204.129C182.002 204.049 182.147 204.004 182.295 204C182.398 203.999 182.5 204.021 182.594 204.063C182.688 204.105 182.772 204.167 182.84 204.244C182.915 204.32 182.975 204.41 183.015 204.509C183.056 204.608 183.076 204.714 183.076 204.821C183.073 204.961 183.033 205.099 182.962 205.219L181.49 207.577L184.352 207.472C184.457 207.461 184.564 207.473 184.664 207.507C184.764 207.541 184.856 207.596 184.933 207.669C185.01 207.741 185.07 207.829 185.11 207.927C185.151 208.025 185.169 208.13 185.165 208.236C185.167 208.436 185.094 208.63 184.962 208.781C184.885 208.857 184.794 208.915 184.693 208.953C184.592 208.991 184.484 209.007 184.376 209L181.506 208.911L182.929 211.228C183.009 211.358 183.052 211.507 183.051 211.659C183.052 211.766 183.03 211.873 182.986 211.971C182.943 212.069 182.879 212.157 182.799 212.228C182.728 212.304 182.643 212.365 182.548 212.407C182.453 212.449 182.35 212.471 182.246 212.472C182.108 212.47 181.973 212.427 181.859 212.349C181.745 212.271 181.656 212.161 181.604 212.033L180.238 209.594L178.888 212.033C178.826 212.168 178.726 212.281 178.6 212.359C178.475 212.437 178.329 212.476 178.181 212.472Z" fill="#263238"/>
<path d="M191.369 212.472C191.156 212.471 190.951 212.387 190.8 212.236C190.674 212.109 190.594 211.943 190.572 211.765C190.55 211.587 190.587 211.407 190.678 211.253L192.133 208.911L189.288 209C189.179 209.005 189.071 208.988 188.969 208.951C188.867 208.913 188.773 208.855 188.694 208.781C188.562 208.632 188.488 208.439 188.488 208.24C188.488 208.041 188.562 207.848 188.694 207.699C188.773 207.624 188.866 207.564 188.968 207.525C189.07 207.486 189.179 207.468 189.288 207.472L192.101 207.577L190.654 205.244C190.575 205.117 190.533 204.97 190.532 204.821C190.535 204.607 190.622 204.402 190.776 204.252C190.927 204.102 191.131 204.017 191.345 204.016C191.483 204.017 191.619 204.057 191.735 204.132C191.852 204.207 191.945 204.313 192.003 204.439L193.386 206.951L194.76 204.455C194.825 204.322 194.925 204.209 195.05 204.129C195.175 204.049 195.319 204.004 195.467 204C195.571 203.999 195.674 204.021 195.77 204.063C195.865 204.105 195.95 204.166 196.02 204.244C196.169 204.399 196.251 204.606 196.248 204.821C196.245 204.961 196.206 205.099 196.134 205.219L194.662 207.577L197.524 207.472C197.63 207.461 197.736 207.473 197.836 207.507C197.936 207.541 198.028 207.596 198.105 207.669C198.182 207.741 198.242 207.829 198.283 207.927C198.323 208.025 198.341 208.13 198.337 208.236C198.339 208.436 198.267 208.63 198.134 208.781C198.058 208.857 197.966 208.915 197.865 208.953C197.764 208.991 197.656 209.007 197.549 209L194.678 208.911L196.101 211.228C196.182 211.358 196.224 211.507 196.223 211.659C196.224 211.766 196.202 211.873 196.159 211.971C196.115 212.069 196.051 212.157 195.971 212.228C195.901 212.304 195.815 212.365 195.72 212.407C195.625 212.449 195.522 212.471 195.418 212.472C195.28 212.47 195.146 212.427 195.031 212.349C194.917 212.271 194.828 212.161 194.776 212.033L193.41 209.594L192.06 212.033C191.999 212.165 191.902 212.276 191.779 212.354C191.657 212.432 191.514 212.473 191.369 212.472Z" fill="#263238"/>
<path d="M204.558 212.472C204.347 212.469 204.146 212.385 203.996 212.236C203.916 212.165 203.853 212.077 203.809 211.979C203.766 211.881 203.744 211.775 203.744 211.667C203.747 211.521 203.789 211.377 203.866 211.253L205.322 208.911L202.476 209C202.371 209.008 202.266 208.994 202.167 208.959C202.068 208.924 201.978 208.869 201.901 208.797C201.825 208.725 201.764 208.638 201.723 208.542C201.682 208.445 201.661 208.341 201.663 208.236C201.662 208.137 201.682 208.038 201.719 207.946C201.757 207.854 201.812 207.77 201.882 207.699C201.957 207.621 202.049 207.56 202.15 207.52C202.251 207.481 202.36 207.464 202.468 207.472L205.281 207.577L203.834 205.244C203.755 205.117 203.713 204.97 203.712 204.821C203.715 204.607 203.803 204.402 203.956 204.252C204.107 204.102 204.312 204.017 204.525 204.016C204.664 204.017 204.799 204.057 204.916 204.132C205.032 204.207 205.125 204.313 205.184 204.439L206.566 206.951L207.948 204.455C208.013 204.323 208.112 204.211 208.235 204.131C208.358 204.051 208.501 204.005 208.647 204C208.752 203.999 208.855 204.021 208.95 204.063C209.045 204.105 209.13 204.166 209.2 204.244C209.349 204.399 209.431 204.606 209.428 204.821C209.428 204.961 209.391 205.098 209.322 205.219L207.851 207.577L210.704 207.472C210.813 207.464 210.921 207.481 211.023 207.52C211.124 207.56 211.215 207.621 211.29 207.699C211.429 207.843 211.505 208.036 211.501 208.236C211.501 208.438 211.425 208.632 211.29 208.781C211.213 208.857 211.122 208.915 211.021 208.953C210.92 208.991 210.812 209.007 210.704 209L207.834 208.911L209.257 211.228C209.337 211.358 209.38 211.507 209.379 211.659C209.376 211.874 209.288 212.078 209.135 212.228C208.987 212.38 208.786 212.467 208.574 212.472C208.436 212.47 208.301 212.427 208.187 212.349C208.073 212.271 207.984 212.161 207.932 212.033L206.566 209.594L205.216 212.033C205.158 212.16 205.065 212.268 204.949 212.346C204.833 212.423 204.697 212.467 204.558 212.472Z" fill="#263238"/>
<g style="mix-blend-mode:multiply">
<path d="M245.578 47.748H101.645V56.7651H245.578V47.748Z" fill="#8FDEBE"/>
</g>
<path d="M189.263 31.1365H157.959C157.394 31.1365 156.852 30.912 156.453 30.5125C156.053 30.113 155.829 29.5712 155.829 29.0062C155.829 28.4412 156.053 27.8993 156.453 27.4998C156.852 27.1003 157.394 26.8759 157.959 26.8759H189.263C189.828 26.8759 190.37 27.1003 190.77 27.4998C191.169 27.8993 191.393 28.4412 191.393 29.0062C191.393 29.5712 191.169 30.113 190.77 30.5125C190.37 30.912 189.828 31.1365 189.263 31.1365Z" fill="#8FDEBE" stroke="#263238" stroke-width="1.33739" stroke-linecap="round" stroke-linejoin="round"/>
<path d="M182.149 293.464C182.15 291.775 181.651 290.123 180.713 288.718C179.776 287.313 178.442 286.217 176.882 285.57C175.322 284.923 173.604 284.753 171.948 285.082C170.291 285.412 168.769 286.225 167.574 287.419C166.38 288.614 165.567 290.136 165.237 291.793C164.908 293.449 165.078 295.167 165.725 296.727C166.372 298.287 167.468 299.621 168.873 300.558C170.278 301.496 171.93 301.995 173.619 301.994C175.881 301.991 178.049 301.092 179.648 299.493C181.247 297.894 182.147 295.726 182.149 293.464Z" fill="#8FDEBE"/>
<path d="M177.945 289.139H169.294V297.79H177.945V289.139Z" fill="#8FDEBE" stroke="#263238" stroke-width="1.33739" stroke-linecap="round" stroke-linejoin="round"/>
<path d="M276.67 195.292C276.67 195.292 265.336 166.492 275.426 163.069C285.932 159.499 285.468 178.517 285.062 187.787C284.208 207.594 282.021 211.277 280.386 206.439L276.67 195.292ZM273.264 217.757C276.378 221.823 277.256 217.611 271.637 198.593C269.003 189.649 263.279 171.557 254.497 178.347C246.066 184.851 266.133 208.431 266.133 208.431L273.264 217.757ZM267.247 234.263C270.215 236.897 270.271 233.572 263.222 219.839C259.913 213.407 252.912 200.39 247.18 206.829C241.675 213.041 260.433 228.14 260.433 228.14L267.247 234.263ZM260.742 253.891C263.71 256.534 263.767 253.2 256.717 239.475C253.408 233.043 246.407 220.018 240.675 226.466C235.203 232.694 253.904 247.793 253.904 247.793L260.742 253.891ZM279.524 213.936C274.776 215.79 278.549 217.806 298.38 217.749C307.682 217.749 326.676 217.326 322.626 206.992C318.748 197.064 290.501 209.708 290.501 209.708L279.524 213.936ZM274.117 227.14C269.092 228.01 272.394 230.742 291.843 234.629C300.958 236.458 319.651 239.833 317.74 228.937C315.91 218.432 285.712 225.213 285.712 225.213L274.117 227.14ZM268.068 243.264C263.791 243.882 266.523 246.264 282.874 250.005C290.542 251.761 306.275 255.054 304.909 245.76C303.608 236.816 277.915 241.874 277.915 241.874L268.068 243.264ZM263.474 258.2C259.287 259.266 262.254 261.347 278.923 263.331C286.728 264.258 302.722 265.868 300.388 256.769C298.136 248.037 273.125 255.769 273.125 255.769L263.474 258.2ZM287.981 197.731C285.541 203.195 290.607 202.365 307.828 187.34C315.894 180.29 332.075 165.541 319.26 158.198C306.958 151.141 293.729 185.193 293.729 185.193L287.981 197.731ZM264.108 277.658C261.531 279.162 264.059 279.747 275.882 277.389C281.427 276.292 292.705 273.853 288.891 269.039C285.2 264.404 270.076 274.161 270.076 274.161L264.108 277.658Z" fill="#8FDEBE"/>
<path opacity="0.3" d="M276.67 195.292C276.67 195.292 265.336 166.492 275.426 163.069C285.932 159.499 285.468 178.517 285.062 187.787C284.208 207.594 282.021 211.277 280.386 206.439L276.67 195.292ZM273.264 217.757C276.378 221.823 277.256 217.611 271.637 198.593C269.003 189.649 263.279 171.557 254.497 178.347C246.066 184.851 266.133 208.431 266.133 208.431L273.264 217.757ZM267.247 234.263C270.215 236.897 270.271 233.572 263.222 219.839C259.913 213.407 252.912 200.39 247.18 206.829C241.675 213.041 260.433 228.14 260.433 228.14L267.247 234.263ZM260.742 253.891C263.71 256.534 263.767 253.2 256.717 239.475C253.408 233.043 246.407 220.018 240.675 226.466C235.203 232.694 253.904 247.793 253.904 247.793L260.742 253.891ZM279.524 213.936C274.776 215.79 278.549 217.806 298.38 217.749C307.682 217.749 326.676 217.326 322.626 206.992C318.748 197.064 290.501 209.708 290.501 209.708L279.524 213.936ZM274.117 227.14C269.092 228.01 272.394 230.742 291.843 234.629C300.958 236.458 319.651 239.833 317.74 228.937C315.91 218.432 285.712 225.213 285.712 225.213L274.117 227.14ZM268.068 243.264C263.791 243.882 266.523 246.264 282.874 250.005C290.542 251.761 306.275 255.054 304.909 245.76C303.608 236.816 277.915 241.874 277.915 241.874L268.068 243.264ZM263.474 258.2C259.287 259.266 262.254 261.347 278.923 263.331C286.728 264.258 302.722 265.868 300.388 256.769C298.136 248.037 273.125 255.769 273.125 255.769L263.474 258.2ZM287.981 197.731C285.541 203.195 290.607 202.365 307.828 187.34C315.894 180.29 332.075 165.541 319.26 158.198C306.958 151.141 293.729 185.193 293.729 185.193L287.981 197.731ZM264.108 277.658C261.531 279.162 264.059 279.747 275.882 277.389C281.427 276.292 292.705 273.853 288.891 269.039C285.2 264.404 270.076 274.161 270.076 274.161L264.108 277.658Z" fill="white"/>
<path d="M281.671 208.699L279.695 175.826L281.671 208.699ZM275.418 219.546L262.929 191.275L275.418 219.546ZM307.649 211.326L277.719 215.619L307.649 211.326ZM268.946 234.783L252.741 213.993L268.946 234.783ZM271.792 228.409L294.12 229.531L271.792 228.409ZM266.507 244.353L283.582 246.045L266.507 244.353ZM262.385 254.485L253.904 241.727L262.385 254.485ZM261.409 258.989L281.484 259.176L261.409 258.989ZM257.343 296.652C257.478 296.641 257.603 296.578 257.691 296.476C257.779 296.374 257.824 296.241 257.815 296.107C256.538 276.934 263.954 245.532 275.849 219.757C283.452 203.284 313.252 170.907 313.569 170.582C313.665 170.486 313.718 170.356 313.718 170.22C313.718 170.084 313.665 169.954 313.569 169.858C313.522 169.811 313.466 169.773 313.405 169.748C313.343 169.722 313.277 169.709 313.211 169.709C313.144 169.709 313.079 169.722 313.017 169.748C312.956 169.773 312.9 169.811 312.853 169.858C312.552 170.183 282.631 202.683 274.963 219.302C262.848 245.703 255.53 276.536 256.831 296.172C256.841 296.301 256.899 296.422 256.994 296.511C257.089 296.6 257.214 296.65 257.343 296.652ZM281.663 209.204C281.797 209.195 281.923 209.134 282.013 209.034C282.103 208.933 282.149 208.801 282.143 208.667L280.199 175.777C280.196 175.71 280.18 175.645 280.151 175.584C280.122 175.524 280.082 175.469 280.032 175.425C279.982 175.38 279.923 175.346 279.86 175.324C279.797 175.302 279.73 175.293 279.663 175.298C279.528 175.306 279.403 175.367 279.313 175.467C279.223 175.568 279.176 175.7 279.183 175.834L281.159 208.708C281.165 208.837 281.221 208.959 281.315 209.048C281.409 209.138 281.533 209.187 281.663 209.187V209.204ZM275.597 220.01C275.719 219.954 275.815 219.854 275.863 219.729C275.912 219.605 275.91 219.466 275.857 219.343L263.36 191.072C263.306 190.949 263.206 190.852 263.081 190.803C262.956 190.755 262.816 190.757 262.694 190.811C262.571 190.865 262.474 190.966 262.425 191.091C262.377 191.216 262.379 191.355 262.433 191.478L274.922 219.749C274.962 219.84 275.026 219.918 275.108 219.972C275.191 220.027 275.287 220.057 275.386 220.058C275.47 220.063 275.554 220.046 275.63 220.01H275.597ZM277.76 216.107L307.674 211.83C307.746 211.828 307.817 211.812 307.882 211.781C307.948 211.75 308.006 211.705 308.053 211.65C308.1 211.595 308.134 211.531 308.155 211.462C308.175 211.393 308.18 211.32 308.171 211.248C308.161 211.177 308.136 211.108 308.098 211.047C308.06 210.985 308.009 210.933 307.949 210.892C307.889 210.852 307.821 210.825 307.75 210.813C307.678 210.801 307.605 210.804 307.536 210.822L277.622 215.098C277.488 215.107 277.363 215.168 277.275 215.269C277.187 215.37 277.142 215.501 277.15 215.635C277.159 215.769 277.22 215.894 277.321 215.982C277.422 216.07 277.553 216.115 277.687 216.107H277.76ZM269.231 235.19C269.337 235.107 269.406 234.985 269.423 234.851C269.439 234.717 269.403 234.581 269.32 234.474L253.107 213.643C253.024 213.535 252.902 213.465 252.767 213.447C252.632 213.43 252.495 213.466 252.388 213.55C252.28 213.633 252.209 213.755 252.192 213.89C252.174 214.025 252.211 214.161 252.294 214.269L268.54 235.133C268.587 235.194 268.647 235.243 268.716 235.277C268.785 235.311 268.861 235.328 268.938 235.328C269.059 235.322 269.175 235.273 269.263 235.19H269.231ZM294.567 229.555C294.571 229.421 294.522 229.29 294.431 229.191C294.34 229.092 294.213 229.033 294.079 229.027L271.792 227.897C271.667 227.905 271.549 227.959 271.461 228.049C271.373 228.139 271.322 228.258 271.315 228.383C271.309 228.508 271.35 228.632 271.429 228.729C271.507 228.827 271.619 228.892 271.743 228.913L294.071 230.043C294.205 230.047 294.336 229.999 294.435 229.908C294.534 229.816 294.593 229.69 294.599 229.555H294.567ZM284.053 246.094C284.061 246.027 284.056 245.959 284.037 245.894C284.018 245.829 283.987 245.769 283.944 245.717C283.902 245.665 283.849 245.621 283.79 245.59C283.73 245.558 283.665 245.539 283.598 245.532L266.523 243.849C266.457 243.843 266.39 243.849 266.326 243.868C266.263 243.888 266.203 243.919 266.152 243.962C266.1 244.004 266.058 244.056 266.027 244.115C265.996 244.174 265.976 244.238 265.97 244.305C265.959 244.438 266 244.571 266.085 244.674C266.17 244.777 266.293 244.843 266.426 244.858L283.501 246.549H283.549C283.68 246.558 283.81 246.515 283.91 246.43C284.011 246.345 284.074 246.224 284.086 246.094H284.053ZM262.628 254.907C262.741 254.833 262.82 254.716 262.848 254.584C262.875 254.451 262.849 254.313 262.775 254.2L254.335 241.443C254.258 241.333 254.141 241.257 254.009 241.231C253.877 241.205 253.74 241.232 253.628 241.304C253.515 241.379 253.436 241.495 253.408 241.628C253.381 241.76 253.407 241.898 253.481 242.012L261.921 254.769C261.969 254.839 262.034 254.896 262.109 254.936C262.184 254.975 262.267 254.996 262.352 254.997C262.462 255.003 262.571 254.971 262.661 254.907H262.628ZM281.996 259.176C281.994 259.042 281.941 258.914 281.847 258.819C281.753 258.724 281.626 258.668 281.492 258.664L261.417 258.477C261.283 258.477 261.155 258.53 261.061 258.625C260.966 258.719 260.913 258.847 260.913 258.981C260.911 259.048 260.922 259.115 260.947 259.178C260.971 259.24 261.008 259.297 261.055 259.345C261.102 259.393 261.159 259.431 261.221 259.456C261.283 259.482 261.35 259.494 261.417 259.493L281.492 259.68C281.561 259.684 281.629 259.673 281.694 259.649C281.758 259.625 281.817 259.589 281.867 259.542C281.917 259.495 281.958 259.438 281.985 259.375C282.013 259.313 282.028 259.245 282.029 259.176H281.996ZM255.059 289.196C255.099 289.106 258.522 279.674 268.816 277.422C268.949 277.393 269.064 277.312 269.137 277.198C269.211 277.083 269.235 276.945 269.206 276.812C269.174 276.682 269.092 276.57 268.978 276.499C268.865 276.427 268.728 276.403 268.597 276.43C257.742 278.804 254.14 288.765 254.099 288.862C254.057 288.991 254.067 289.13 254.126 289.252C254.185 289.373 254.289 289.467 254.416 289.513H254.579C254.687 289.522 254.795 289.496 254.888 289.439C254.98 289.382 255.051 289.296 255.091 289.196H255.059ZM257.343 296.652C257.478 296.641 257.603 296.578 257.691 296.476C257.779 296.374 257.824 296.241 257.815 296.107C256.538 276.934 263.954 245.532 275.849 219.757C283.452 203.284 313.252 170.907 313.569 170.582C313.665 170.486 313.718 170.356 313.718 170.22C313.718 170.084 313.665 169.954 313.569 169.858C313.522 169.811 313.466 169.773 313.405 169.748C313.343 169.722 313.277 169.709 313.211 169.709C313.144 169.709 313.079 169.722 313.017 169.748C312.956 169.773 312.9 169.811 312.853 169.858C312.552 170.183 282.631 202.683 274.963 219.302C262.848 245.703 255.53 276.536 256.831 296.172C256.841 296.301 256.899 296.422 256.994 296.511C257.089 296.6 257.214 296.65 257.343 296.652ZM281.663 209.204C281.797 209.195 281.923 209.134 282.013 209.034C282.103 208.933 282.149 208.801 282.143 208.667L280.199 175.777C280.196 175.71 280.18 175.645 280.151 175.584C280.122 175.524 280.082 175.469 280.032 175.425C279.982 175.38 279.923 175.346 279.86 175.324C279.797 175.302 279.73 175.293 279.663 175.298C279.528 175.306 279.403 175.367 279.313 175.467C279.223 175.568 279.176 175.7 279.183 175.834L281.159 208.708C281.165 208.837 281.221 208.959 281.315 209.048C281.409 209.138 281.533 209.187 281.663 209.187V209.204ZM275.597 220.01C275.719 219.954 275.815 219.854 275.863 219.729C275.912 219.605 275.91 219.466 275.857 219.343L263.36 191.072C263.306 190.949 263.206 190.852 263.081 190.803C262.956 190.755 262.816 190.757 262.694 190.811C262.571 190.865 262.474 190.966 262.425 191.091C262.377 191.216 262.379 191.355 262.433 191.478L274.922 219.749C274.962 219.84 275.026 219.918 275.108 219.972C275.191 220.027 275.287 220.057 275.386 220.058C275.47 220.063 275.554 220.046 275.63 220.01H275.597ZM277.76 216.107L307.674 211.83C307.746 211.828 307.817 211.812 307.882 211.781C307.948 211.75 308.006 211.705 308.053 211.65C308.1 211.595 308.134 211.531 308.155 211.462C308.175 211.393 308.18 211.32 308.171 211.248C308.161 211.177 308.136 211.108 308.098 211.047C308.06 210.985 308.009 210.933 307.949 210.892C307.889 210.852 307.821 210.825 307.75 210.813C307.678 210.801 307.605 210.804 307.536 210.822L277.622 215.098C277.488 215.107 277.363 215.168 277.275 215.269C277.187 215.37 277.142 215.501 277.15 215.635C277.159 215.769 277.22 215.894 277.321 215.982C277.422 216.07 277.553 216.115 277.687 216.107H277.76ZM269.231 235.19C269.337 235.107 269.406 234.985 269.423 234.851C269.439 234.717 269.403 234.581 269.32 234.474L253.107 213.643C253.066 213.59 253.015 213.545 252.956 213.511C252.898 213.478 252.834 213.456 252.767 213.447C252.7 213.439 252.632 213.443 252.567 213.461C252.502 213.478 252.441 213.508 252.388 213.55C252.334 213.591 252.289 213.642 252.256 213.7C252.222 213.759 252.2 213.823 252.192 213.89C252.183 213.957 252.188 214.025 252.205 214.09C252.223 214.155 252.253 214.216 252.294 214.269L268.54 235.133C268.587 235.194 268.647 235.243 268.716 235.277C268.785 235.311 268.861 235.328 268.938 235.328C269.059 235.322 269.175 235.273 269.263 235.19H269.231ZM294.567 229.555C294.571 229.421 294.522 229.29 294.431 229.191C294.34 229.092 294.213 229.033 294.079 229.027L271.792 227.897C271.667 227.905 271.549 227.959 271.461 228.049C271.373 228.139 271.322 228.258 271.315 228.383C271.309 228.508 271.35 228.632 271.429 228.729C271.507 228.827 271.619 228.892 271.743 228.913L294.071 230.043C294.205 230.047 294.336 229.999 294.435 229.908C294.534 229.816 294.593 229.69 294.599 229.555H294.567ZM284.053 246.094C284.061 246.027 284.056 245.959 284.037 245.894C284.018 245.829 283.987 245.769 283.944 245.717C283.902 245.665 283.849 245.621 283.79 245.59C283.73 245.558 283.665 245.539 283.598 245.532L266.523 243.849C266.457 243.843 266.39 243.849 266.326 243.868C266.263 243.888 266.203 243.919 266.152 243.962C266.1 244.004 266.058 244.056 266.027 244.115C265.996 244.174 265.976 244.238 265.97 244.305C265.959 244.438 266 244.571 266.085 244.674C266.17 244.777 266.293 244.843 266.426 244.858L283.501 246.549H283.549C283.68 246.558 283.81 246.515 283.91 246.43C284.011 246.345 284.074 246.224 284.086 246.094H284.053ZM262.628 254.907C262.741 254.833 262.82 254.716 262.848 254.584C262.875 254.451 262.849 254.313 262.775 254.2L254.335 241.443C254.258 241.333 254.141 241.257 254.009 241.231C253.877 241.205 253.74 241.232 253.628 241.304C253.515 241.379 253.436 241.495 253.408 241.628C253.381 241.76 253.407 241.898 253.481 242.012L261.921 254.769C261.969 254.839 262.034 254.896 262.109 254.936C262.184 254.975 262.267 254.996 262.352 254.997C262.462 255.003 262.571 254.971 262.661 254.907H262.628ZM281.996 259.176C281.994 259.042 281.941 258.914 281.847 258.819C281.753 258.724 281.626 258.668 281.492 258.664L261.417 258.477C261.283 258.477 261.155 258.53 261.061 258.625C260.966 258.719 260.913 258.847 260.913 258.981C260.911 259.048 260.922 259.115 260.947 259.178C260.971 259.24 261.008 259.297 261.055 259.345C261.102 259.393 261.159 259.431 261.221 259.456C261.283 259.482 261.35 259.494 261.417 259.493L281.492 259.68C281.561 259.684 281.629 259.673 281.694 259.649C281.758 259.625 281.817 259.589 281.867 259.542C281.917 259.495 281.958 259.438 281.985 259.375C282.013 259.313 282.028 259.245 282.029 259.176H281.996ZM255.059 289.196C255.099 289.106 258.522 279.674 268.816 277.422C268.949 277.393 269.064 277.312 269.137 277.198C269.211 277.083 269.235 276.945 269.206 276.812C269.174 276.682 269.092 276.57 268.978 276.499C268.865 276.427 268.728 276.403 268.597 276.43C257.742 278.804 254.14 288.765 254.099 288.862C254.057 288.991 254.067 289.13 254.126 289.252C254.185 289.373 254.289 289.467 254.416 289.513H254.579C254.687 289.522 254.795 289.496 254.888 289.439C254.98 289.382 255.051 289.296 255.091 289.196H255.059Z" fill="#8FDEBE"/>
<path opacity="0.2" d="M281.671 208.699L279.695 175.826L281.671 208.699ZM275.418 219.546L262.929 191.275L275.418 219.546ZM307.649 211.326L277.719 215.619L307.649 211.326ZM268.946 234.783L252.741 213.993L268.946 234.783ZM271.792 228.409L294.12 229.531L271.792 228.409ZM266.507 244.353L283.582 246.045L266.507 244.353ZM262.385 254.485L253.904 241.727L262.385 254.485ZM261.409 258.989L281.484 259.176L261.409 258.989ZM257.343 296.652C257.478 296.641 257.603 296.578 257.691 296.476C257.779 296.374 257.824 296.241 257.815 296.107C256.538 276.934 263.954 245.532 275.849 219.757C283.452 203.284 313.252 170.907 313.569 170.582C313.665 170.486 313.718 170.356 313.718 170.22C313.718 170.084 313.665 169.954 313.569 169.858C313.522 169.811 313.466 169.773 313.405 169.748C313.343 169.722 313.277 169.709 313.211 169.709C313.144 169.709 313.079 169.722 313.017 169.748C312.956 169.773 312.9 169.811 312.853 169.858C312.552 170.183 282.631 202.683 274.963 219.302C262.848 245.703 255.53 276.536 256.831 296.172C256.841 296.301 256.899 296.422 256.994 296.511C257.089 296.6 257.214 296.65 257.343 296.652ZM281.663 209.204C281.797 209.195 281.923 209.134 282.013 209.034C282.103 208.933 282.149 208.801 282.143 208.667L280.199 175.777C280.196 175.71 280.18 175.645 280.151 175.584C280.122 175.524 280.082 175.469 280.032 175.425C279.982 175.38 279.923 175.346 279.86 175.324C279.797 175.302 279.73 175.293 279.663 175.298C279.528 175.306 279.403 175.367 279.313 175.467C279.223 175.568 279.176 175.7 279.183 175.834L281.159 208.708C281.165 208.837 281.221 208.959 281.315 209.048C281.409 209.138 281.533 209.187 281.663 209.187V209.204ZM275.597 220.01C275.719 219.954 275.815 219.854 275.863 219.729C275.912 219.605 275.91 219.466 275.857 219.343L263.36 191.072C263.306 190.949 263.206 190.852 263.081 190.803C262.956 190.755 262.816 190.757 262.694 190.811C262.571 190.865 262.474 190.966 262.425 191.091C262.377 191.216 262.379 191.355 262.433 191.478L274.922 219.749C274.962 219.84 275.026 219.918 275.108 219.972C275.191 220.027 275.287 220.057 275.386 220.058C275.47 220.063 275.554 220.046 275.63 220.01H275.597ZM277.76 216.107L307.674 211.83C307.746 211.828 307.817 211.812 307.882 211.781C307.948 211.75 308.006 211.705 308.053 211.65C308.1 211.595 308.134 211.531 308.155 211.462C308.175 211.393 308.18 211.32 308.171 211.248C308.161 211.177 308.136 211.108 308.098 211.047C308.06 210.985 308.009 210.933 307.949 210.892C307.889 210.852 307.821 210.825 307.75 210.813C307.678 210.801 307.605 210.804 307.536 210.822L277.622 215.098C277.488 215.107 277.363 215.168 277.275 215.269C277.187 215.37 277.142 215.501 277.15 215.635C277.159 215.769 277.22 215.894 277.321 215.982C277.422 216.07 277.553 216.115 277.687 216.107H277.76ZM269.231 235.19C269.337 235.107 269.406 234.985 269.423 234.851C269.439 234.717 269.403 234.581 269.32 234.474L253.107 213.643C253.024 213.535 252.902 213.465 252.767 213.447C252.632 213.43 252.495 213.466 252.388 213.55C252.28 213.633 252.209 213.755 252.192 213.89C252.174 214.025 252.211 214.161 252.294 214.269L268.54 235.133C268.587 235.194 268.647 235.243 268.716 235.277C268.785 235.311 268.861 235.328 268.938 235.328C269.059 235.322 269.175 235.273 269.263 235.19H269.231ZM294.567 229.555C294.571 229.421 294.522 229.29 294.431 229.191C294.34 229.092 294.213 229.033 294.079 229.027L271.792 227.897C271.667 227.905 271.549 227.959 271.461 228.049C271.373 228.139 271.322 228.258 271.315 228.383C271.309 228.508 271.35 228.632 271.429 228.729C271.507 228.827 271.619 228.892 271.743 228.913L294.071 230.043C294.205 230.047 294.336 229.999 294.435 229.908C294.534 229.816 294.593 229.69 294.599 229.555H294.567ZM284.053 246.094C284.061 246.027 284.056 245.959 284.037 245.894C284.018 245.829 283.987 245.769 283.944 245.717C283.902 245.665 283.849 245.621 283.79 245.59C283.73 245.558 283.665 245.539 283.598 245.532L266.523 243.849C266.457 243.843 266.39 243.849 266.326 243.868C266.263 243.888 266.203 243.919 266.152 243.962C266.1 244.004 266.058 244.056 266.027 244.115C265.996 244.174 265.976 244.238 265.97 244.305C265.959 244.438 266 244.571 266.085 244.674C266.17 244.777 266.293 244.843 266.426 244.858L283.501 246.549H283.549C283.68 246.558 283.81 246.515 283.91 246.43C284.011 246.345 284.074 246.224 284.086 246.094H284.053ZM262.628 254.907C262.741 254.833 262.82 254.716 262.848 254.584C262.875 254.451 262.849 254.313 262.775 254.2L254.335 241.443C254.258 241.333 254.141 241.257 254.009 241.231C253.877 241.205 253.74 241.232 253.628 241.304C253.515 241.379 253.436 241.495 253.408 241.628C253.381 241.76 253.407 241.898 253.481 242.012L261.921 254.769C261.969 254.839 262.034 254.896 262.109 254.936C262.184 254.975 262.267 254.996 262.352 254.997C262.462 255.003 262.571 254.971 262.661 254.907H262.628ZM281.996 259.176C281.994 259.042 281.941 258.914 281.847 258.819C281.753 258.724 281.626 258.668 281.492 258.664L261.417 258.477C261.283 258.477 261.155 258.53 261.061 258.625C260.966 258.719 260.913 258.847 260.913 258.981C260.911 259.048 260.922 259.115 260.947 259.178C260.971 259.24 261.008 259.297 261.055 259.345C261.102 259.393 261.159 259.431 261.221 259.456C261.283 259.482 261.35 259.494 261.417 259.493L281.492 259.68C281.561 259.684 281.629 259.673 281.694 259.649C281.758 259.625 281.817 259.589 281.867 259.542C281.917 259.495 281.958 259.438 281.985 259.375C282.013 259.313 282.028 259.245 282.029 259.176H281.996ZM255.059 289.196C255.099 289.106 258.522 279.674 268.816 277.422C268.949 277.393 269.064 277.312 269.137 277.198C269.211 277.083 269.235 276.945 269.206 276.812C269.174 276.682 269.092 276.57 268.978 276.499C268.865 276.427 268.728 276.403 268.597 276.43C257.742 278.804 254.14 288.765 254.099 288.862C254.057 288.991 254.067 289.13 254.126 289.252C254.185 289.373 254.289 289.467 254.416 289.513H254.579C254.687 289.522 254.795 289.496 254.888 289.439C254.98 289.382 255.051 289.296 255.091 289.196H255.059ZM257.343 296.652C257.478 296.641 257.603 296.578 257.691 296.476C257.779 296.374 257.824 296.241 257.815 296.107C256.538 276.934 263.954 245.532 275.849 219.757C283.452 203.284 313.252 170.907 313.569 170.582C313.665 170.486 313.718 170.356 313.718 170.22C313.718 170.084 313.665 169.954 313.569 169.858C313.522 169.811 313.466 169.773 313.405 169.748C313.343 169.722 313.277 169.709 313.211 169.709C313.144 169.709 313.079 169.722 313.017 169.748C312.956 169.773 312.9 169.811 312.853 169.858C312.552 170.183 282.631 202.683 274.963 219.302C262.848 245.703 255.53 276.536 256.831 296.172C256.841 296.301 256.899 296.422 256.994 296.511C257.089 296.6 257.214 296.65 257.343 296.652ZM281.663 209.204C281.797 209.195 281.923 209.134 282.013 209.034C282.103 208.933 282.149 208.801 282.143 208.667L280.199 175.777C280.196 175.71 280.18 175.645 280.151 175.584C280.122 175.524 280.082 175.469 280.032 175.425C279.982 175.38 279.923 175.346 279.86 175.324C279.797 175.302 279.73 175.293 279.663 175.298C279.528 175.306 279.403 175.367 279.313 175.467C279.223 175.568 279.176 175.7 279.183 175.834L281.159 208.708C281.165 208.837 281.221 208.959 281.315 209.048C281.409 209.138 281.533 209.187 281.663 209.187V209.204ZM275.597 220.01C275.719 219.954 275.815 219.854 275.863 219.729C275.912 219.605 275.91 219.466 275.857 219.343L263.36 191.072C263.306 190.949 263.206 190.852 263.081 190.803C262.956 190.755 262.816 190.757 262.694 190.811C262.571 190.865 262.474 190.966 262.425 191.091C262.377 191.216 262.379 191.355 262.433 191.478L274.922 219.749C274.962 219.84 275.026 219.918 275.108 219.972C275.191 220.027 275.287 220.057 275.386 220.058C275.47 220.063 275.554 220.046 275.63 220.01H275.597ZM277.76 216.107L307.674 211.83C307.746 211.828 307.817 211.812 307.882 211.781C307.948 211.75 308.006 211.705 308.053 211.65C308.1 211.595 308.134 211.531 308.155 211.462C308.175 211.393 308.18 211.32 308.171 211.248C308.161 211.177 308.136 211.108 308.098 211.047C308.06 210.985 308.009 210.933 307.949 210.892C307.889 210.852 307.821 210.825 307.75 210.813C307.678 210.801 307.605 210.804 307.536 210.822L277.622 215.098C277.488 215.107 277.363 215.168 277.275 215.269C277.187 215.37 277.142 215.501 277.15 215.635C277.159 215.769 277.22 215.894 277.321 215.982C277.422 216.07 277.553 216.115 277.687 216.107H277.76ZM269.231 235.19C269.337 235.107 269.406 234.985 269.423 234.851C269.439 234.717 269.403 234.581 269.32 234.474L253.107 213.643C253.066 213.59 253.015 213.545 252.956 213.511C252.898 213.478 252.834 213.456 252.767 213.447C252.7 213.439 252.632 213.443 252.567 213.461C252.502 213.478 252.441 213.508 252.388 213.55C252.334 213.591 252.289 213.642 252.256 213.7C252.222 213.759 252.2 213.823 252.192 213.89C252.183 213.957 252.188 214.025 252.205 214.09C252.223 214.155 252.253 214.216 252.294 214.269L268.54 235.133C268.587 235.194 268.647 235.243 268.716 235.277C268.785 235.311 268.861 235.328 268.938 235.328C269.059 235.322 269.175 235.273 269.263 235.19H269.231ZM294.567 229.555C294.571 229.421 294.522 229.29 294.431 229.191C294.34 229.092 294.213 229.033 294.079 229.027L271.792 227.897C271.667 227.905 271.549 227.959 271.461 228.049C271.373 228.139 271.322 228.258 271.315 228.383C271.309 228.508 271.35 228.632 271.429 228.729C271.507 228.827 271.619 228.892 271.743 228.913L294.071 230.043C294.205 230.047 294.336 229.999 294.435 229.908C294.534 229.816 294.593 229.69 294.599 229.555H294.567ZM284.053 246.094C284.061 246.027 284.056 245.959 284.037 245.894C284.018 245.829 283.987 245.769 283.944 245.717C283.902 245.665 283.849 245.621 283.79 245.59C283.73 245.558 283.665 245.539 283.598 245.532L266.523 243.849C266.457 243.843 266.39 243.849 266.326 243.868C266.263 243.888 266.203 243.919 266.152 243.962C266.1 244.004 266.058 244.056 266.027 244.115C265.996 244.174 265.976 244.238 265.97 244.305C265.959 244.438 266 244.571 266.085 244.674C266.17 244.777 266.293 244.843 266.426 244.858L283.501 246.549H283.549C283.68 246.558 283.81 246.515 283.91 246.43C284.011 246.345 284.074 246.224 284.086 246.094H284.053ZM262.628 254.907C262.741 254.833 262.82 254.716 262.848 254.584C262.875 254.451 262.849 254.313 262.775 254.2L254.335 241.443C254.258 241.333 254.141 241.257 254.009 241.231C253.877 241.205 253.74 241.232 253.628 241.304C253.515 241.379 253.436 241.495 253.408 241.628C253.381 241.76 253.407 241.898 253.481 242.012L261.921 254.769C261.969 254.839 262.034 254.896 262.109 254.936C262.184 254.975 262.267 254.996 262.352 254.997C262.462 255.003 262.571 254.971 262.661 254.907H262.628ZM281.996 259.176C281.994 259.042 281.941 258.914 281.847 258.819C281.753 258.724 281.626 258.668 281.492 258.664L261.417 258.477C261.283 258.477 261.155 258.53 261.061 258.625C260.966 258.719 260.913 258.847 260.913 258.981C260.911 259.048 260.922 259.115 260.947 259.178C260.971 259.24 261.008 259.297 261.055 259.345C261.102 259.393 261.159 259.431 261.221 259.456C261.283 259.482 261.35 259.494 261.417 259.493L281.492 259.68C281.561 259.684 281.629 259.673 281.694 259.649C281.758 259.625 281.817 259.589 281.867 259.542C281.917 259.495 281.958 259.438 281.985 259.375C282.013 259.313 282.028 259.245 282.029 259.176H281.996ZM255.059 289.196C255.099 289.106 258.522 279.674 268.816 277.422C268.949 277.393 269.064 277.312 269.137 277.198C269.211 277.083 269.235 276.945 269.206 276.812C269.174 276.682 269.092 276.57 268.978 276.499C268.865 276.427 268.728 276.403 268.597 276.43C257.742 278.804 254.14 288.765 254.099 288.862C254.057 288.991 254.067 289.13 254.126 289.252C254.185 289.373 254.289 289.467 254.416 289.513H254.579C254.687 289.522 254.795 289.496 254.888 289.439C254.98 289.382 255.051 289.296 255.091 289.196H255.059Z" fill="black"/>
<path d="M270.621 282.317H247.603V287.082H249.611L253.766 313.076H264.458L268.613 287.082H270.621V282.317Z" fill="#8FDEBE"/>
<path opacity="0.3" d="M270.621 282.317H247.603V287.082H249.611L253.766 313.076H264.458L268.613 287.082H270.621V282.317Z" fill="white"/>
<path d="M63.3803 138.237L36.6052 129.496L34.2229 123.203L28.7833 123.032L18.9124 121.162L20.0995 123.203L32.5235 132.22L35.5889 133.749L63.5918 148.376L63.3803 138.237Z" fill="white" stroke="#263238" stroke-width="1.00396" stroke-miterlimit="10"/>
<path d="M34.2227 123.203L31.6696 121.674L26.5715 123.544L27.4171 124.561L34.2227 123.203Z" fill="white" stroke="#263238" stroke-width="1.00396" stroke-linejoin="round"/>
<path d="M63.3803 138.237L36.6052 129.496L34.2229 123.203L28.7833 123.032L18.9124 121.162L20.0995 123.203L32.5235 132.22L35.5889 133.749L63.5918 148.376L63.3803 138.237Z" fill="white"/>
<mask id="mask0_15_2406" style="mask-type:luminance" maskUnits="userSpaceOnUse" x="18" y="121" width="46" height="28">
<path d="M63.3803 138.237L36.6052 129.496L34.2229 123.203L28.7833 123.032L18.9124 121.162L20.0995 123.203L32.5235 132.22L35.5889 133.749L63.5918 148.376L63.3803 138.237Z" fill="white"/>
</mask>
<g mask="url(#mask0_15_2406)">
<path opacity="0.5" d="M63.3803 138.237L36.6052 129.496L34.2229 123.203L28.7833 123.032L18.9124 121.162L20.0995 123.203L32.5235 132.22L35.5889 133.749L63.5918 148.376L63.3803 138.237Z" fill="#8FDEBE" stroke="#263238" stroke-width="1.00396" stroke-miterlimit="10"/>
</g>
<path d="M63.3803 138.237L36.6052 129.496L34.2229 123.203L28.7833 123.032L18.9124 121.162L20.0995 123.203L32.5235 132.22L35.5889 133.749L63.5918 148.376L63.3803 138.237Z" stroke="#263238" stroke-width="1.00396" stroke-miterlimit="10"/>
<path d="M34.2227 123.203L31.6696 121.674L26.5715 123.544L27.4171 124.561L34.2227 123.203Z" fill="white"/>
<mask id="mask1_15_2406" style="mask-type:luminance" maskUnits="userSpaceOnUse" x="26" y="121" width="9" height="4">
<path d="M34.2227 123.203L31.6696 121.674L26.5715 123.544L27.4171 124.561L34.2227 123.203Z" fill="white"/>
</mask>
<g mask="url(#mask1_15_2406)">
<path opacity="0.5" d="M34.2227 123.203L31.6696 121.674L26.5715 123.544L27.4171 124.561L34.2227 123.203Z" fill="#8FDEBE" stroke="#263238" stroke-width="1.00396" stroke-linejoin="round"/>
</g>
<path d="M34.2227 123.203L31.6696 121.674L26.5715 123.544L27.4171 124.561L34.2227 123.203Z" stroke="#263238" stroke-width="1.00396" stroke-linejoin="round"/>
<path d="M69.0638 81.5075C69.0638 81.5075 68.6491 85.1664 69.6818 87.5162C70.7144 89.8661 76.4467 97.8262 76.4467 97.8262L65.7464 106.404C65.7464 106.404 61.3069 97.4603 60.4613 96.013C59.6157 94.5657 58.5993 88.3375 61.3557 83.8736C64.1121 79.4097 68.08 78.2063 69.0638 81.5075Z" fill="white"/>
<mask id="mask2_15_2406" style="mask-type:luminance" maskUnits="userSpaceOnUse" x="59" y="79" width="18" height="28">
<path d="M69.0638 81.5075C69.0638 81.5075 68.6491 85.1664 69.6818 87.5162C70.7144 89.8661 76.4467 97.8262 76.4467 97.8262L65.7464 106.404C65.7464 106.404 61.3069 97.4603 60.4613 96.013C59.6157 94.5657 58.5993 88.3375 61.3557 83.8736C64.1121 79.4097 68.08 78.2063 69.0638 81.5075Z" fill="white"/>
</mask>
<g mask="url(#mask2_15_2406)">
<g style="mix-blend-mode:multiply" opacity="0.5">
<path d="M63.5675 93.2648L68.2102 102.892L65.7384 106.413L61.0713 98.0783L63.5675 93.2648Z" fill="#8FDEBE"/>
</g>
</g>
<path d="M69.0638 81.5075C69.0638 81.5075 68.6491 85.1664 69.6818 87.5162C70.7144 89.8661 76.4467 97.8262 76.4467 97.8262L65.7464 106.404C65.7464 106.404 61.3069 97.4603 60.4613 96.013C59.6157 94.5657 58.5993 88.3375 61.3557 83.8736C64.1121 79.4097 68.08 78.2063 69.0638 81.5075Z" stroke="#263238" stroke-width="1.00396" stroke-miterlimit="10"/>
<path d="M72.3813 74.8076C71.7227 70.7422 67.0637 62.473 59.6727 62.7901C54.8754 63.0015 52.6313 63.9691 50.5498 65.1481C48.8531 66.1477 47.2716 67.3311 45.8338 68.6769C42.2237 73.0107 40.9553 74.1978 41.6545 77.5152C41.5972 78.8384 41.8045 80.1598 42.2644 81.4018C43.3702 84.3533 44.1263 86.2804 45.0858 87.687C44.7931 89.0611 44.0288 92.6875 43.9881 93.5169C43.9475 94.3462 46.4274 93.7689 47.6796 93.4518C50.005 98.6556 54.2656 102.266 55.5909 102.68C57.9001 103.404 61.5509 99.6069 63.4861 96.6635C65.4212 93.7201 63.9576 90.4109 63.9658 89.0936C63.9739 87.7764 68.3158 84.8818 69.9257 83.963C71.5357 83.0442 73.0318 78.865 72.3813 74.8076Z" fill="white"/>
<mask id="mask3_15_2406" style="mask-type:luminance" maskUnits="userSpaceOnUse" x="41" y="62" width="32" height="41">
<path d="M72.3813 74.8076C71.7227 70.7422 67.0637 62.473 59.6727 62.7901C54.8754 63.0015 52.6313 63.9691 50.5498 65.1481C48.8531 66.1477 47.2716 67.3311 45.8338 68.6769C42.2237 73.0107 40.9553 74.1978 41.6545 77.5152C41.5972 78.8384 41.8045 80.1598 42.2644 81.4018C43.3702 84.3533 44.1263 86.2804 45.0858 87.687C44.7931 89.0611 44.0288 92.6875 43.9881 93.5169C43.9475 94.3462 46.4274 93.7689 47.6796 93.4518C50.005 98.6556 54.2656 102.266 55.5909 102.68C57.9001 103.404 61.5509 99.6069 63.4861 96.6635C65.4212 93.7201 63.9576 90.4109 63.9658 89.0936C63.9739 87.7764 68.3158 84.8818 69.9257 83.963C71.5357 83.0442 73.0318 78.865 72.3813 74.8076Z" fill="white"/>
</mask>
<g mask="url(#mask3_15_2406)">
<g style="mix-blend-mode:multiply" opacity="0.5">
<path d="M41.6873 77.5152C41.6299 78.8384 41.8373 80.1598 42.2971 81.4018C43.4029 84.3533 44.1591 86.2804 45.1185 87.687C44.8258 89.0611 44.0615 92.6875 44.0209 93.5169C43.9802 94.3462 46.4601 93.7689 47.7123 93.4518C50.0378 98.6556 54.2984 102.266 55.6237 102.68C57.9329 103.404 61.5837 99.6069 63.5188 96.6635C64.0023 95.9287 64.3161 95.0955 64.4376 94.2243C64.3319 93.8421 64.2587 93.6063 64.2587 93.6063C64.2587 93.6063 63.1692 97.7937 61.0064 97.249C58.8435 96.7042 55.5343 92.3704 53.6885 90.8743C51.8428 89.3782 52.599 87.4106 52.2331 85.1827C51.8672 82.9548 46.4032 80.9953 46.0373 79.7187C45.6714 78.4422 46.948 73.157 46.948 73.157C46.948 73.157 49.0214 70.3925 48.5742 71.5309C48.2581 72.5179 48.1435 73.5583 48.237 74.5905C48.3306 75.6227 48.6305 76.6255 49.119 77.5396C49.4617 78.2609 50.0054 78.8678 50.6848 79.2876C51.3641 79.7073 52.1502 79.9219 52.9486 79.9057L54.9326 70.0754L50.7451 66.6117L45.8666 68.6444C42.2239 73.0107 40.9799 74.1978 41.6873 77.5152Z" fill="#8FDEBE"/>
</g>
</g>
<path d="M72.3813 74.8076C71.7227 70.7422 67.0637 62.473 59.6727 62.7901C54.8754 63.0015 52.6313 63.9691 50.5498 65.1481C48.8531 66.1477 47.2716 67.3311 45.8338 68.6769C42.2237 73.0107 40.9553 74.1978 41.6545 77.5152C41.5972 78.8384 41.8045 80.1598 42.2644 81.4018C43.3702 84.3533 44.1263 86.2804 45.0858 87.687C44.7931 89.0611 44.0288 92.6875 43.9881 93.5169C43.9475 94.3462 46.4274 93.7689 47.6796 93.4518C50.005 98.6556 54.2656 102.266 55.5909 102.68C57.9001 103.404 61.5509 99.6069 63.4861 96.6635C65.4212 93.7201 63.9576 90.4109 63.9658 89.0936C63.9739 87.7764 68.3158 84.8818 69.9257 83.963C71.5357 83.0442 73.0318 78.865 72.3813 74.8076Z" stroke="#263238" stroke-miterlimit="10"/>
<path d="M46.094 85.2315L46.9071 87.5569C46.9071 87.5569 48.6552 88.1342 50.7855 85.8088" stroke="#263238" stroke-miterlimit="10" stroke-linecap="round"/>
<path d="M52.1028 96.0943C52.1028 96.0943 54.0379 95.8992 54.8185 93.1835" stroke="#263238" stroke-miterlimit="10" stroke-linecap="round"/>
<path d="M44.7361 83.2882C44.7361 83.2882 45.3134 81.54 48.8015 81.54" stroke="#263238" stroke-miterlimit="10" stroke-linecap="round"/>
<path d="M62.6161 59.554C60.0815 59.1895 57.5254 58.994 54.9649 58.9686C54.9649 58.9686 47.3056 54.5535 39.9471 59.2613C32.5886 63.9691 36.1256 72.2139 36.1256 74.271C36.1256 76.3281 33.7676 76.3362 35.2393 78.9869C36.711 81.6376 41.6871 80.174 41.6871 80.174C41.7397 79.1743 42.0039 78.1971 42.4622 77.307C42.9206 76.417 43.5626 75.6344 44.3459 75.0109C46.9966 72.9538 49.1106 72.5066 49.9888 73.1001C49.9888 73.1001 49.4033 77.5152 50.2815 79.2796C50.2815 79.2796 53.2249 80.7513 54.1111 80.7513C54.9974 80.7513 53.5339 81.9954 56.4691 83.1012C57.0039 83.2932 57.5759 83.3587 58.1402 83.2924C58.7045 83.226 59.2458 83.0298 59.7215 82.719C60.1524 80.9302 61.0956 78.2389 62.8519 78.865C65.4294 79.7837 67.7792 86.1259 64.2911 88.2887C68.4866 89.053 73.5684 81.6295 73.8693 74.8645C74.1701 68.0996 66.9743 60.3183 62.6161 59.554Z" fill="#263238"/>
<path d="M50.1189 70.1974C50.1189 70.1974 52.2817 69.0346 54.9324 71.5227C57.5831 74.0108 62.7381 77.3363 69.568 75.5069" stroke="white" stroke-width="0.5" stroke-linecap="round" stroke-linejoin="round"/>
<path d="M49.8179 68.2053C49.8179 68.2053 51.3058 65.8799 53.7939 65.8799C56.282 65.8799 62.0956 69.3681 66.7383 69.3681" stroke="white" stroke-width="0.5" stroke-linecap="round" stroke-linejoin="round"/>
<path d="M48.1266 72.6855C48.1266 72.6855 45.3052 69.2054 42.6545 72.0269C40.0039 74.8483 41.687 77.5152 41.687 77.5152" stroke="white" stroke-width="0.5" stroke-linecap="round" stroke-linejoin="round"/>
<path d="M36.8491 75.0109C38.466 73.5528 39.471 71.5368 39.6624 69.3681C39.9958 65.7173 44.98 62.5625 48.1267 65.5546" stroke="white" stroke-width="0.5" stroke-linecap="round" stroke-linejoin="round"/>
<path d="M41.988 61.7331C41.988 61.7331 46.9723 56.9196 51.1191 63.0584" stroke="white" stroke-width="0.5" stroke-linecap="round" stroke-linejoin="round"/>
<path d="M82.553 298.4C82.553 298.4 85.6183 303.164 85.2768 306.23L84.9435 309.295C84.9435 309.295 73.6984 312.377 71.316 312.377C68.9337 312.377 56.3226 311.182 56.3226 311.182L55.7779 309.019C55.7397 308.859 55.7577 308.691 55.8288 308.543C55.8998 308.395 56.0197 308.276 56.1681 308.206L67.4132 302.961L70.9583 299.083L82.553 298.4Z" fill="white" stroke="#263238" stroke-width="1.00396" stroke-miterlimit="10"/>
<path d="M73.0236 309.978C76.0727 310.214 81.8619 308.352 85.2199 307.165L84.9841 309.295C84.9841 309.295 73.6984 312.377 71.3161 312.377C68.9337 312.377 56.3227 311.182 56.3227 311.182L55.9324 309.637C57.9488 309.645 68.9906 309.669 73.0236 309.978Z" fill="#8FDEBE" stroke="#263238" stroke-width="1.00396" stroke-miterlimit="10"/>
<path d="M67.4295 302.961L51.062 310.084C51.062 310.084 49.6635 313.588 51.062 314.288C52.4605 314.987 82.9515 314.288 82.9515 314.288C82.9515 314.288 85.0574 308.75 81.7318 305.035C78.4063 301.319 67.4295 302.961 67.4295 302.961Z" fill="white" stroke="#263238" stroke-width="1.00396" stroke-miterlimit="10"/>
<path d="M82.9513 314.288C82.9513 314.288 52.4603 314.987 51.0618 314.288C50.3869 313.946 50.3625 312.962 50.517 312.027H83.4879C83.3802 312.796 83.2005 313.553 82.9513 314.288Z" fill="#8FDEBE" stroke="#263238" stroke-width="1.00396" stroke-miterlimit="10"/>
<path d="M59.6888 179.2C59.6888 179.2 55.4119 198.154 53.7939 210.009C52.1758 221.863 51.2245 245.614 51.566 248.338C51.9075 251.062 68.9336 296.7 68.9336 296.7L70.633 300.766L82.5529 298.383C82.5529 298.383 77.1052 281.016 75.0644 271.478C73.0235 261.941 68.5596 246.272 68.5596 243.549C68.5596 240.825 79.1298 188.803 79.886 185.388C80.6422 181.973 84.0734 176.729 84.0734 176.729L61.2499 176.265L59.6888 179.2Z" fill="#8FDEBE" stroke="#263238" stroke-width="1.00396" stroke-miterlimit="10"/>
<path d="M59.6889 179.2C59.6889 179.2 57.1846 196.511 58.2172 208.545C59.2498 220.579 61.4696 246.199 61.4696 250.013C61.4696 253.826 67.6247 276.601 67.9743 283.756C68.5191 294.09 67.7548 299.205 67.7548 299.205L67.3889 302.953C67.3889 302.953 74.5685 303.978 76.1377 304.425C77.9502 304.892 79.8207 305.094 81.6912 305.026C81.6912 305.026 84.3012 293.537 84.3012 283.748C84.3012 273.958 82.1302 253.81 81.0488 245.646C79.9674 237.483 83.3743 205.992 85.3094 200.113C87.2446 194.235 91.4727 181.786 88.6268 175.428C85.781 169.069 59.6889 179.2 59.6889 179.2Z" fill="#8FDEBE" stroke="#263238" stroke-width="1.00396" stroke-miterlimit="10"/>
<path d="M91.7898 172.24L91.5296 179.981C91.5296 179.981 86.895 180.9 80.6504 181.981C75.4954 182.876 62.551 181.745 58.1928 181.323C57.7957 181.287 57.4285 181.097 57.1712 180.792C56.9138 180.488 56.7871 180.094 56.8187 179.696L57.2415 172.704L91.7898 172.24Z" fill="#263238"/>
<path d="M73.674 95.078C73.674 95.078 66.3562 102.989 63.5998 107.909C60.8434 112.828 59.7539 120.365 58.7212 126.301C57.6886 132.236 60.4857 146.173 59.697 152.572L57.2008 172.728C57.2008 172.728 56.6641 174.094 58.4611 175.59C60.258 177.086 69.0313 177.631 76.9589 178.03C79.8535 178.176 88.4967 176.314 89.9114 176.225C91.6189 176.119 91.6759 173.948 91.749 172.24C92.0905 164.215 93.5378 142.823 94.4892 133.505C96.4487 114.503 85.724 96.1594 73.674 95.078Z" fill="white" stroke="#263238" stroke-width="1.00396" stroke-miterlimit="10"/>
<g style="mix-blend-mode:multiply">
<path d="M93.5947 144.311C93.92 140.091 94.2452 136.261 94.5298 133.505C94.6111 132.692 94.6599 131.879 94.7005 131.065L75.2595 134.318L58.5586 128.626C58.5604 132.082 58.7559 135.535 59.144 138.969L75.5278 143.555L93.5947 144.311Z" fill="#8FDEBE"/>
</g>
<g style="mix-blend-mode:multiply">
<path d="M72.9504 95.8749C71.8446 97.1026 69.6492 99.5988 67.5596 102.25L79.9023 114.796L83.9678 113.169L72.9504 95.8749Z" fill="#8FDEBE"/>
</g>
<path d="M73.674 95.078C73.674 95.078 66.3562 102.989 63.5998 107.909C62.7825 109.404 62.1205 110.978 61.624 112.608L76.341 95.6065C75.4715 95.3431 74.5782 95.1661 73.674 95.078Z" fill="#263238"/>
<g style="mix-blend-mode:multiply">
<path d="M59.2905 123.097L75.2596 128.35L94.6519 126.122C94.3479 121.291 93.2747 116.54 91.4727 112.047L75.8369 118.316L61.8599 111.982C60.717 115.615 59.858 119.331 59.2905 123.097Z" fill="#8FDEBE"/>
</g>
<g style="mix-blend-mode:multiply">
<path d="M86.781 164.215C78.6815 165.575 70.3709 164.896 62.5996 162.239L58.7049 160.906L57.4934 170.663L61.9329 171.907C70.3726 174.267 79.1934 174.946 87.8949 173.907L91.4806 173.476C91.6672 173.081 91.7723 172.653 91.7896 172.216C91.8872 170.045 92.0579 166.89 92.2775 163.272L86.781 164.215Z" fill="#8FDEBE"/>
</g>
<g style="mix-blend-mode:multiply">
<path d="M88.9521 150.929C80.8523 152.295 72.5397 151.613 64.7707 148.945L59.8109 147.246C59.9339 149.017 59.9094 150.796 59.7377 152.564L59.1604 157.255L64.104 158.637C72.5404 161 81.3585 161.682 90.0579 160.646L92.4972 160.353C92.7004 157.101 92.9362 153.637 93.1883 150.214L88.9521 150.929Z" fill="#8FDEBE"/>
</g>
<path d="M12.6689 116.545L28.3904 129.186L29.068 128.343L13.3466 115.702L12.6689 116.545Z" fill="#263238"/>
<path d="M81.2439 103.851C81.2439 103.851 87.0088 107.778 87.1388 117.056C87.1958 121.121 86.773 124.918 85.8379 131.578C84.9029 138.237 79.0974 159.922 74.5766 162.556C70.0558 165.191 63.0388 160.215 63.0388 160.215L29.1004 137.684L20.8963 131.057L16.8308 123.382L18.1074 120.942L28.1165 128.618L22.7257 123.634L23.7827 122.292L25.7342 123.65L31.4258 125.78L32.6698 133.911L34.4261 135.115L66.8929 146.978C66.8929 146.978 66.4863 129.504 66.7872 126.162C67.088 122.821 67.5027 114.421 71.0803 108.331" fill="white"/>
<mask id="mask4_15_2406" style="mask-type:luminance" maskUnits="userSpaceOnUse" x="16" y="103" width="72" height="61">
<path d="M81.2439 103.851C81.2439 103.851 87.0088 107.778 87.1388 117.056C87.1958 121.121 86.773 124.918 85.8379 131.578C84.9029 138.237 79.0974 159.922 74.5766 162.556C70.0558 165.191 63.0388 160.215 63.0388 160.215L29.1004 137.684L20.8963 131.057L16.8308 123.382L18.1074 120.942L28.1165 128.618L22.7257 123.634L23.7827 122.292L25.7342 123.65L31.4258 125.78L32.6698 133.911L34.4261 135.115L66.8929 146.978C66.8929 146.978 66.4863 129.504 66.7872 126.162C67.088 122.821 67.5027 114.421 71.0803 108.331" fill="white"/>
</mask>
<g mask="url(#mask4_15_2406)">
<g style="mix-blend-mode:multiply" opacity="0.5">
<path d="M66.6651 133.773C66.6651 139.806 66.8684 146.978 66.8684 146.978L34.4341 135.163L32.6779 133.96L31.4338 125.829L25.7422 123.699L23.7989 122.317L22.7419 123.658L28.1164 128.618L18.1073 120.942L16.8958 123.341L20.9612 131.017L29.1653 137.684L31.2306 139.058L76.0726 153.507L66.6651 133.773Z" fill="#8FDEBE"/>
</g>
</g>
<path d="M81.2439 103.851C81.2439 103.851 87.0088 107.778 87.1388 117.056C87.1958 121.121 86.773 124.918 85.8379 131.578C84.9029 138.237 79.0974 159.922 74.5766 162.556C70.0558 165.191 63.0388 160.215 63.0388 160.215L29.1004 137.684L20.8963 131.057L16.8308 123.382L18.1074 120.942L28.1165 128.618L22.7257 123.634L23.7827 122.292L25.7342 123.65L31.4258 125.78L32.6698 133.911L34.4261 135.115L66.8929 146.978C66.8929 146.978 66.4863 129.504 66.7872 126.162C67.088 122.821 67.5027 114.421 71.0803 108.331" stroke="#263238" stroke-width="1.00396" stroke-miterlimit="10"/>
<path d="M66.8928 146.978L79.2844 155.922L82.4961 150.23C82.4961 150.23 84.7158 148.482 85.0411 147.165C85.3663 145.847 84.9516 143.709 85.285 142.392C85.6183 141.075 87.2771 139.839 87.4315 136.651C87.586 133.464 87.4315 130.805 87.4315 130.805C87.4315 130.805 90.1147 119.772 89.822 114.974C89.5293 110.177 84.9028 101.697 81.1951 101.51C77.4874 101.323 72.6658 101.884 68.9256 107.543C65.1854 113.202 65.9497 129.724 65.3642 130.757C64.7788 131.789 65.5919 136.887 65.5919 136.887C65.2669 137.13 64.9973 137.438 64.8011 137.793C64.6048 138.148 64.4863 138.54 64.4536 138.944C64.3885 140.27 65.8196 143.53 65.8196 143.53L66.8928 146.978Z" fill="white" stroke="#263238" stroke-width="1.00396" stroke-miterlimit="10"/>
<g style="mix-blend-mode:multiply">
<path d="M65.6897 126.512C65.7152 127.931 65.609 129.349 65.3726 130.748C64.8522 131.675 65.4457 135.863 65.5758 136.716C72.5455 138.881 79.9153 139.437 87.1309 138.343C87.2859 137.777 87.3786 137.196 87.4073 136.611C87.57 133.432 87.4073 130.765 87.4073 130.765C87.4073 130.765 87.6431 129.781 87.9684 128.285C80.4956 128.76 72.9933 128.163 65.6897 126.512Z" fill="#8FDEBE"/>
</g>
<g style="mix-blend-mode:multiply">
<path d="M68.4213 108.445C67.2586 110.779 66.6082 114.283 66.2341 117.836C73.6155 120.653 81.5738 121.622 89.4154 120.658C89.7282 118.777 89.8671 116.872 89.8301 114.966C89.6892 113.46 89.3333 111.981 88.773 110.576C81.9261 110.735 75.0868 110.019 68.4213 108.445Z" fill="#8FDEBE"/>
</g>
<path d="M65.8196 143.62L66.8685 146.978L79.26 155.922L82.4717 150.23C82.4717 150.23 84.6914 148.482 85.0167 147.165C85.0747 146.936 85.1101 146.701 85.1224 146.465C78.5924 146.353 72.1043 145.396 65.8196 143.62Z" fill="#263238"/>
<path d="M74.7881 304.319C74.7881 304.319 75.0646 297.278 76.4143 286.984C77.764 276.69 74.5198 262.071 73.975 259.632C73.4302 257.192 74.2515 251.777 73.7067 249.874C73.1619 247.972 70.5275 239.857 72.0805 230.442C73.6335 221.026 74.8938 196.137 74.8938 196.137C74.8938 196.137 70.9828 192.958 69.8364 188.819C68.6899 184.681 69.568 183.38 69.568 183.38" stroke="#263238" stroke-width="1.00396" stroke-miterlimit="10"/>
<path d="M76.6014 183.762L75.0972 192.088" stroke="#263238" stroke-width="1.00396" stroke-miterlimit="10"/>
</svg>
