<svg width="330" height="246" viewBox="0 0 330 246" fill="none" xmlns="http://www.w3.org/2000/svg">
<path d="M330 216.084H0V216.249H330V216.084Z" fill="#EBEBEB"/>
<path d="M296.934 226.703H275.075V226.868H296.934V226.703Z" fill="#EBEBEB"/>
<path d="M218.605 228.499H212.87V228.664H218.605V228.499Z" fill="#EBEBEB"/>
<path d="M274.415 220.579H261.75V220.744H274.415V220.579Z" fill="#EBEBEB"/>
<path d="M63.1289 221.687H34.6235V221.852H63.1289V221.687Z" fill="#EBEBEB"/>
<path d="M73.1874 221.687H69.0096V221.852H73.1874V221.687Z" fill="#EBEBEB"/>
<path d="M148.599 224.473H86.7701V224.638H148.599V224.473Z" fill="#EBEBEB"/>
<path d="M156.42 186.648H28.9806C27.9823 186.646 27.0254 186.248 26.3201 185.542C25.6148 184.835 25.2186 183.878 25.2186 182.879V3.7356C25.2273 2.74298 25.6273 1.79387 26.3317 1.09442C27.0361 0.394982 27.988 0.00170042 28.9806 0H156.42C157.42 0 158.378 0.397048 159.085 1.1038C159.792 1.81055 160.189 2.7691 160.189 3.7686V182.879C160.189 183.879 159.792 184.837 159.085 185.544C158.378 186.251 157.42 186.648 156.42 186.648ZM28.9806 0.132001C28.026 0.133749 27.1111 0.514183 26.4368 1.1898C25.7624 1.86542 25.3836 2.78101 25.3836 3.7356V182.879C25.3836 183.834 25.7624 184.75 26.4368 185.425C27.1111 186.101 28.026 186.481 28.9806 186.483H156.42C157.375 186.481 158.291 186.101 158.966 185.426C159.642 184.75 160.022 183.835 160.024 182.879V3.7356C160.022 2.7804 159.642 1.86483 158.966 1.1894C158.291 0.513969 157.375 0.133745 156.42 0.132001H28.9806Z" fill="#EBEBEB"/>
<path d="M299.185 186.648H171.739C170.74 186.646 169.782 186.249 169.076 185.542C168.369 184.836 167.972 183.878 167.97 182.879V3.7356C167.98 2.74237 168.382 1.79327 169.087 1.09401C169.793 0.394752 170.745 0.00168187 171.739 0H299.185C300.176 0.00343497 301.126 0.397484 301.829 1.09674C302.532 1.796 302.931 2.74412 302.94 3.7356V182.879C302.94 183.877 302.545 184.833 301.841 185.54C301.137 186.246 300.182 186.645 299.185 186.648ZM171.739 0.132001C170.783 0.133745 169.868 0.513969 169.192 1.1894C168.517 1.86483 168.137 2.7804 168.135 3.7356V182.879C168.137 183.835 168.517 184.75 169.192 185.426C169.868 186.101 170.783 186.481 171.739 186.483H299.185C300.14 186.481 301.055 186.101 301.731 185.426C302.406 184.75 302.786 183.835 302.788 182.879V3.7356C302.786 2.7804 302.406 1.86483 301.731 1.1894C301.055 0.513969 300.14 0.133745 299.185 0.132001H171.739Z" fill="#EBEBEB"/>
<path d="M132.257 39.0258H46.167V43.4478H132.257V39.0258Z" fill="#E0E0E0"/>
<path d="M53.922 22.7238H50.127V39.0258H53.922V22.7238Z" fill="#EBEBEB"/>
<path d="M72.2634 22.7238H68.4684V39.0258H72.2634V22.7238Z" fill="#EBEBEB"/>
<path d="M93.0783 22.3114L89.3385 22.9561L92.1076 39.0211L95.8475 38.3765L93.0783 22.3114Z" fill="#EBEBEB"/>
<path d="M58.6213 24.8688H54.8263V39.0258H58.6213V24.8688Z" fill="#EBEBEB"/>
<path d="M67.3398 24.8688H63.5448V39.0258H67.3398V24.8688Z" fill="#EBEBEB"/>
<path d="M89.3443 24.8688H85.5493V39.0258H89.3443V24.8688Z" fill="#EBEBEB"/>
<path d="M77.2493 24.3809L73.5447 25.2042L76.616 39.024L80.3207 38.2007L77.2493 24.3809Z" fill="#EBEBEB"/>
<path d="M61.9014 21.912H60.0072V39.0258H61.9014V21.912Z" fill="#EBEBEB"/>
<path d="M84.4602 21.912H82.566V39.0258H84.4602V21.912Z" fill="#EBEBEB"/>
<path d="M123.994 26.1228H105.514V38.8806H123.994V26.1228Z" fill="#EBEBEB"/>
<path d="M46.1669 76.4742L132.257 76.4742V72.0522L46.1669 72.0522V76.4742Z" fill="#E0E0E0"/>
<path d="M124.496 72.0456H128.291V55.7436H124.496V72.0456Z" fill="#EBEBEB"/>
<path d="M106.161 72.0456H109.956V55.7436H106.161V72.0456Z" fill="#EBEBEB"/>
<path d="M82.5716 71.4013L86.3114 72.0459L89.0806 55.9808L85.3407 55.3362L82.5716 71.4013Z" fill="#EBEBEB"/>
<path d="M119.797 72.0456H123.592V57.8886H119.797V72.0456Z" fill="#EBEBEB"/>
<path d="M111.078 72.0456H114.873V57.8886H111.078V72.0456Z" fill="#EBEBEB"/>
<path d="M89.0735 72.0456H92.8685V57.8886H89.0735V72.0456Z" fill="#EBEBEB"/>
<path d="M98.1118 71.2159L101.816 72.0393L104.888 58.2194L101.183 57.3961L98.1118 71.2159Z" fill="#EBEBEB"/>
<path d="M116.523 72.0522H118.417V54.9384H116.523V72.0522Z" fill="#EBEBEB"/>
<path d="M93.9642 72.0522H95.8584V54.9384H93.9642V72.0522Z" fill="#EBEBEB"/>
<path d="M54.4302 71.9004H72.9102V59.1426H54.4302V71.9004Z" fill="#EBEBEB"/>
<path d="M281.662 23.6544H195.254V119.269H281.662V23.6544Z" fill="#E9E9E9"/>
<path d="M278.085 27.4428H199.056V115.678H278.085V27.4428Z" fill="#F4F4F4"/>
<path d="M221.391 27.4428L199.056 111.091V65.8086L209.28 27.4428H221.391Z" fill="white"/>
<path d="M231.376 27.4428L207.821 115.678H203.379L226.928 27.4428H231.376Z" fill="white"/>
<path d="M278.084 51.5064V96.7956L273.081 115.678H260.964L278.084 51.5064Z" fill="white"/>
<path d="M239.989 23.6544H236.92V119.269H239.989V23.6544Z" fill="#E9E9E9"/>
<path d="M279.998 43.0584H196.752V46.1274H279.998V43.0584Z" fill="#E9E9E9"/>
<path d="M292.796 169.772C291.608 167.792 289.648 169.521 289.648 169.521C289.931 165.772 286.48 163.205 286.48 163.205C286.48 163.205 290.486 163.205 291.047 159.383C291.608 155.562 289.648 157.337 287.813 157.311C285.978 157.285 284.057 162.65 286.493 165.667C288.928 168.683 288.262 173.824 282.678 178.781C281.338 180.029 280.334 181.595 279.761 183.335C280.177 178.787 280.421 172.379 279.101 168.095C276.824 160.835 281.16 158.855 282.401 155.239C283.642 151.622 279.101 148.533 279.101 148.533C279.101 148.533 283.391 146.553 281.299 144.342C279.206 142.131 274.87 142.408 274.87 145.332C274.87 148.256 277.807 149.371 277.807 149.371C277.807 149.371 281.16 152.863 281.16 154.684C281.16 156.506 277.807 160.413 277.807 160.413C277.807 160.413 279.338 157.06 276.269 156.922C273.2 156.783 272.217 160.829 273.471 162.65C274.725 164.472 276.824 162.928 276.824 162.928C276.955 165.049 277.277 167.154 277.787 169.217C278.104 170.26 277.952 174.359 277.688 178.622C277.107 177.084 276.176 175.701 274.969 174.583C269.379 169.633 268.726 164.485 271.148 161.469C273.57 158.453 271.649 153.094 269.828 153.12C268.006 153.146 266.039 151.364 266.594 155.192C267.148 159.02 271.161 159.014 271.161 159.014C271.161 159.014 267.716 161.581 267.993 165.33C267.993 165.33 266.013 163.627 264.851 165.581C262.726 169.072 267.643 171.244 268.468 169.541C268.468 169.541 278.89 176.92 276.388 187.539L276.976 188.404C276.896 189.262 276.85 189.776 276.85 189.776L277.669 189.427L278.593 190.793C278.56 192.337 278.639 193.881 278.83 195.413L281.325 191.737C278.81 181.111 289.245 173.732 289.245 173.732C289.997 175.435 294.914 173.27 292.796 169.772Z" fill="#E0E0E0"/>
<path opacity="0.2" d="M292.796 169.772C291.608 167.792 289.648 169.521 289.648 169.521C289.931 165.772 286.48 163.205 286.48 163.205C286.48 163.205 290.486 163.205 291.047 159.383C291.608 155.562 289.648 157.337 287.813 157.311C285.978 157.285 284.057 162.65 286.493 165.667C288.928 168.683 288.262 173.824 282.678 178.781C281.338 180.029 280.334 181.595 279.761 183.335C280.177 178.787 280.421 172.379 279.101 168.095C276.824 160.835 281.16 158.855 282.401 155.239C283.642 151.622 279.101 148.533 279.101 148.533C279.101 148.533 283.391 146.553 281.299 144.342C279.206 142.131 274.87 142.408 274.87 145.332C274.87 148.256 277.807 149.371 277.807 149.371C277.807 149.371 281.16 152.863 281.16 154.684C281.16 156.506 277.807 160.413 277.807 160.413C277.807 160.413 279.338 157.06 276.269 156.922C273.2 156.783 272.217 160.829 273.471 162.65C274.725 164.472 276.824 162.928 276.824 162.928C276.955 165.049 277.277 167.154 277.787 169.217C278.104 170.26 277.952 174.359 277.688 178.622C277.107 177.084 276.176 175.701 274.969 174.583C269.379 169.633 268.726 164.485 271.148 161.469C273.57 158.453 271.649 153.094 269.828 153.12C268.006 153.146 266.039 151.364 266.594 155.192C267.148 159.02 271.161 159.014 271.161 159.014C271.161 159.014 267.716 161.581 267.993 165.33C267.993 165.33 266.013 163.627 264.851 165.581C262.726 169.072 267.643 171.244 268.468 169.541C268.468 169.541 278.89 176.92 276.388 187.539L276.976 188.404C276.896 189.262 276.85 189.776 276.85 189.776L277.669 189.427L278.593 190.793C278.56 192.337 278.639 193.881 278.83 195.413L281.325 191.737C278.81 181.111 289.245 173.732 289.245 173.732C289.997 175.435 294.914 173.27 292.796 169.772Z" fill="#E0E0E0"/>
<path d="M290.757 215.081H266.878L264.304 188.938H293.331L290.757 215.081Z" fill="#E6E6E6"/>
<path d="M294.604 186.054H263.03V191.822H294.604V186.054Z" fill="#F0F0F0"/>
<path d="M165 245.89C235.675 245.89 292.968 242.545 292.968 238.418C292.968 234.292 235.675 230.947 165 230.947C94.3257 230.947 37.0327 234.292 37.0327 238.418C37.0327 242.545 94.3257 245.89 165 245.89Z" fill="#F5F5F5"/>
<path d="M43.8637 237.521L160.037 237.521L160.037 91.7929L43.8637 91.7929L43.8637 237.521Z" fill="white"/>
<path opacity="0.5" d="M160.096 91.7863H43.8569V237.138H160.096V91.7863Z" fill="white"/>
<path opacity="0.2" d="M156.598 96.3601H64.4688V123.202H156.598V96.3601Z" fill="black"/>
<path opacity="0.5" d="M69.7026 100.709H64.4688V123.209H69.7026V100.709Z" fill="white"/>
<path opacity="0.5" d="M95.007 100.709H89.7732V123.209H95.007V100.709Z" fill="white"/>
<path opacity="0.5" d="M123.738 100.143L118.58 101.032L122.402 123.205L127.56 122.316L123.738 100.143Z" fill="white"/>
<path opacity="0.5" d="M76.1838 103.673H70.95V123.209H76.1838V103.673Z" fill="white"/>
<path opacity="0.5" d="M88.2156 103.673H82.9818V123.209H88.2156V103.673Z" fill="white"/>
<path opacity="0.5" d="M118.582 103.673H113.348V123.209H118.582V103.673Z" fill="white"/>
<path opacity="0.5" d="M101.887 102.996L96.7783 104.131L101.017 123.202L106.126 122.067L101.887 102.996Z" fill="white"/>
<path opacity="0.5" d="M80.7115 99.5941H78.0979V123.209H80.7115V99.5941Z" fill="white"/>
<path opacity="0.5" d="M111.837 99.5941H109.223V123.209H111.837V99.5941Z" fill="white"/>
<path opacity="0.2" d="M64.4688 154.301H156.598V127.459L64.4688 127.459V154.301Z" fill="black"/>
<path opacity="0.5" d="M151.364 154.301H156.598V131.802H151.364V154.301Z" fill="white"/>
<path opacity="0.5" d="M126.053 154.301H131.287V131.802H126.053V154.301Z" fill="white"/>
<path opacity="0.5" d="M93.508 153.41L98.6658 154.299L102.488 132.127L97.3299 131.238L93.508 153.41Z" fill="white"/>
<path opacity="0.5" d="M144.883 154.301H150.117V134.765H144.883V154.301Z" fill="white"/>
<path opacity="0.5" d="M132.845 154.301H138.079V134.765H132.845V154.301Z" fill="white"/>
<path opacity="0.5" d="M102.485 154.301H107.719V134.765H102.485V154.301Z" fill="white"/>
<path opacity="0.5" d="M114.955 153.16L120.064 154.295L124.302 135.224L119.193 134.089L114.955 153.16Z" fill="white"/>
<path opacity="0.5" d="M140.356 154.301H142.969V130.687H140.356V154.301Z" fill="white"/>
<path opacity="0.5" d="M109.23 154.301H111.844V130.687H109.23V154.301Z" fill="white"/>
<path opacity="0.5" d="M69.7026 131.802H64.4688V154.301H69.7026V131.802Z" fill="white"/>
<path opacity="0.5" d="M76.1838 134.765H70.95V154.301H76.1838V134.765Z" fill="white"/>
<path opacity="0.5" d="M88.2156 134.765H82.9818V154.301H88.2156V134.765Z" fill="white"/>
<path opacity="0.5" d="M80.7115 130.687H78.0979V154.301H80.7115V130.687Z" fill="white"/>
<path opacity="0.2" d="M156.598 158.552H64.4688V185.394H156.598V158.552Z" fill="black"/>
<g opacity="0.5">
<path d="M122.582 162.901H117.348V185.401H122.582V162.901Z" fill="white"/>
<path d="M151.312 162.331L146.155 163.22L149.976 185.392L155.134 184.503L151.312 162.331Z" fill="white"/>
<path d="M103.758 165.865H98.5247V185.401H103.758V165.865Z" fill="white"/>
<path d="M115.79 165.865H110.557V185.401H115.79V165.865Z" fill="white"/>
<path d="M146.15 165.865H140.917V185.401H146.15V165.865Z" fill="white"/>
<path d="M129.461 165.182L124.352 166.318L128.59 185.388L133.699 184.253L129.461 165.182Z" fill="white"/>
<path d="M108.279 161.779H105.666V185.394H108.279V161.779Z" fill="white"/>
<path d="M139.412 161.779H136.798V185.394H139.412V161.779Z" fill="white"/>
<path d="M91.1043 162.335L85.9465 163.224L89.7684 185.397L94.9261 184.508L91.1043 162.335Z" fill="white"/>
<path d="M85.9385 165.865H80.7047V185.401H85.9385V165.865Z" fill="white"/>
<path d="M69.251 165.19L64.1418 166.326L68.3802 185.396L73.4893 184.261L69.251 165.19Z" fill="white"/>
<path d="M79.1999 161.779H76.5863V185.394H79.1999V161.779Z" fill="white"/>
</g>
<path opacity="0.2" d="M43.8635 237.521H60.9641L60.9641 91.7929H43.8635L43.8635 237.521Z" fill="black"/>
<path opacity="0.1" d="M155.912 190.159H112.306V231.455H155.912V190.159Z" fill="black"/>
<path opacity="0.1" d="M108.827 190.159H64.4688V231.455H108.827V190.159Z" fill="black"/>
<path opacity="0.2" d="M106.174 208.712C106.174 209.127 106.051 209.533 105.82 209.878C105.59 210.223 105.262 210.492 104.879 210.651C104.495 210.81 104.073 210.851 103.666 210.77C103.259 210.689 102.885 210.489 102.591 210.196C102.298 209.902 102.098 209.528 102.017 209.121C101.936 208.714 101.977 208.292 102.136 207.909C102.295 207.525 102.564 207.197 102.909 206.967C103.254 206.736 103.66 206.613 104.075 206.613C104.632 206.613 105.166 206.834 105.559 207.228C105.953 207.621 106.174 208.155 106.174 208.712Z" fill="black"/>
<path opacity="0.2" d="M118.714 208.712C118.714 209.127 118.591 209.533 118.36 209.878C118.13 210.223 117.802 210.492 117.419 210.651C117.035 210.81 116.613 210.851 116.206 210.77C115.799 210.689 115.425 210.489 115.131 210.196C114.838 209.902 114.638 209.528 114.557 209.121C114.476 208.714 114.518 208.292 114.676 207.909C114.835 207.525 115.104 207.197 115.449 206.967C115.795 206.736 116.2 206.613 116.615 206.613C117.172 206.613 117.706 206.834 118.099 207.228C118.493 207.621 118.714 208.155 118.714 208.712Z" fill="black"/>
<path d="M236.967 105.831H228.486L230.743 130.112L217.332 132.125V133.815H245.58V132.125L239.791 130.112L236.967 105.831Z" fill="#263238"/>
<path d="M204.039 121.242C203.995 121.614 204.031 121.991 204.143 122.348C204.256 122.705 204.444 123.034 204.693 123.313C204.943 123.592 205.249 123.815 205.592 123.966C205.934 124.118 206.305 124.195 206.679 124.192H258.06C258.863 124.176 259.633 123.867 260.224 123.324C260.816 122.781 261.189 122.041 261.274 121.242L264.323 88.374C264.359 88.0537 264.337 87.7295 264.257 87.4171C264.11 86.8441 263.773 86.3374 263.303 85.9783C262.833 85.6193 262.255 85.4286 261.664 85.4371H210.302C209.499 85.4534 208.73 85.7621 208.138 86.3052C207.547 86.8483 207.173 87.5886 207.088 88.3873L204.039 121.242Z" fill="#263238"/>
<path d="M258.06 122.542C258.452 122.528 258.826 122.373 259.114 122.107C259.402 121.841 259.586 121.48 259.631 121.09L262.68 88.2223C262.704 88.0892 262.704 87.9528 262.68 87.8197C262.629 87.5988 262.502 87.4029 262.321 87.2665C262.14 87.1301 261.917 87.0619 261.69 87.0739H210.303C209.911 87.0888 209.538 87.2435 209.251 87.5099C208.964 87.7763 208.782 88.1368 208.738 88.5259L205.689 121.394C205.67 121.542 205.682 121.693 205.726 121.836C205.769 121.98 205.842 122.112 205.94 122.225C206.037 122.33 206.156 122.413 206.288 122.468C206.42 122.523 206.563 122.548 206.706 122.542H258.06Z" fill="white"/>
<path opacity="0.6" d="M258.06 122.542C258.452 122.528 258.826 122.373 259.114 122.107C259.402 121.841 259.586 121.48 259.631 121.09L262.68 88.2223C262.704 88.0892 262.704 87.9528 262.68 87.8197C262.629 87.5988 262.502 87.4029 262.321 87.2665C262.14 87.1301 261.917 87.0619 261.69 87.0739H210.303C209.911 87.0888 209.538 87.2435 209.251 87.5099C208.964 87.7763 208.782 88.1368 208.738 88.5259L205.689 121.394C205.67 121.542 205.682 121.693 205.726 121.836C205.769 121.98 205.842 122.112 205.94 122.225C206.037 122.33 206.156 122.413 206.288 122.468C206.42 122.523 206.563 122.548 206.706 122.542H258.06Z" fill="white"/>
<path d="M222.361 113.837C222.361 113.837 221.318 95.4625 225.845 91.2649C230.373 87.0673 236.471 88.2883 239.705 90.5323C242.939 92.7763 246.49 98.6041 243.269 115.922L222.361 113.837Z" fill="#263238"/>
<path d="M243.151 122.542C243.147 122.514 243.147 122.485 243.151 122.456C243.542 121.202 243.982 119.849 244.471 118.397C244.834 117.295 245.223 116.127 245.659 114.893C243.069 114.066 240.422 113.428 237.739 112.985C234.917 112.485 232.063 112.185 229.198 112.088C225.496 112.055 221.245 112.471 221.245 112.471C221.245 112.471 220.638 112.616 220.262 116.543C220.13 117.955 219.998 119.915 219.925 122.542H243.151Z" fill="white"/>
<path d="M243.151 122.542C243.147 122.514 243.147 122.485 243.151 122.456C243.542 121.202 243.982 119.849 244.471 118.397C244.834 117.295 245.223 116.127 245.659 114.893C243.068 114.066 240.421 113.428 237.739 112.985C234.917 112.485 232.063 112.185 229.198 112.088C225.496 112.055 221.245 112.471 221.245 112.471C221.245 112.471 220.638 112.616 220.262 116.543C220.143 117.81 220.031 119.843 219.971 122.542H243.151Z" fill="white"/>
<g opacity="0.2">
<path d="M243.151 122.542C243.147 122.514 243.147 122.485 243.151 122.456C243.542 121.202 243.982 119.849 244.471 118.397C244.834 117.295 245.223 116.127 245.659 114.893C243.069 114.066 240.422 113.428 237.739 112.985C234.917 112.485 232.063 112.185 229.198 112.088C225.496 112.055 221.245 112.471 221.245 112.471C221.245 112.471 220.638 112.616 220.262 116.543C220.13 117.955 219.998 119.915 219.925 122.542H243.151Z" fill="black"/>
<path d="M243.151 122.542C243.147 122.514 243.147 122.485 243.151 122.456C243.542 121.202 243.982 119.849 244.471 118.397C244.834 117.295 245.223 116.127 245.659 114.893C243.069 114.066 240.422 113.428 237.739 112.985C234.917 112.485 232.063 112.185 229.198 112.088C225.496 112.055 221.245 112.471 221.245 112.471C221.245 112.471 220.638 112.616 220.262 116.543C220.143 117.81 220.031 119.843 219.972 122.542H243.151Z" fill="black"/>
</g>
<path d="M220.882 122.542L220.552 117.091L220.269 112.471C219.133 112.695 216.117 117.863 213.603 122.542H220.882Z" fill="white"/>
<path opacity="0.2" d="M220.882 122.542L220.552 117.091C219.175 118.738 218.043 120.577 217.193 122.549L220.882 122.542Z" fill="black"/>
<path d="M248.945 122.542C246.926 116.635 245.678 114.893 245.678 114.893L242.966 122.542H248.945Z" fill="white"/>
<path d="M230.802 116.285C235.488 115.685 236.901 113.685 236.901 113.685C233.924 110.88 236.399 106.016 236.399 106.016L230.756 107.065C230.885 107.851 230.958 108.645 230.974 109.441C231.013 112.867 229.469 112.906 229.469 112.906C228.479 114.761 230.802 116.285 230.802 116.285Z" fill="#EEC1BB"/>
<path opacity="0.2" d="M230.756 107.065C230.885 107.851 230.958 108.645 230.974 109.441C234.788 109.441 236.399 106.016 236.399 106.016L230.756 107.065Z" fill="black"/>
<path d="M233.871 91.2847C228.967 91.0207 227.271 93.5617 226.611 98.5975C225.819 104.887 226.974 109.454 233.211 108.438C241.606 107.065 242.022 91.7401 233.871 91.2847Z" fill="#EEC1BB"/>
<path d="M229.792 98.4919C229.363 99.2125 228.846 99.8775 228.254 100.472C228.383 100.688 228.569 100.863 228.791 100.98C229.014 101.096 229.264 101.149 229.515 101.132L229.792 98.4919Z" fill="#D4827D"/>
<path d="M233.053 94.8751C233.443 94.8484 233.834 94.9119 234.196 95.0607C234.557 95.2095 234.88 95.4396 235.138 95.7331" stroke="#263238" stroke-width="0.72468" stroke-linecap="round" stroke-linejoin="round"/>
<path d="M229.502 94.4724C229.171 94.3688 228.821 94.3411 228.479 94.3914C228.136 94.4417 227.809 94.5686 227.522 94.7628" stroke="#263238" stroke-width="0.72468" stroke-linecap="round" stroke-linejoin="round"/>
<path d="M230.129 103.046C230.33 103.612 230.488 104.192 230.604 104.782H230.921C232.36 104.716 233.007 104.214 233.284 103.673C233.416 103.407 233.479 103.112 233.469 102.815C233.474 102.646 233.454 102.477 233.409 102.313C232.542 102.754 231.589 102.997 230.617 103.026C230.34 103.046 230.129 103.046 230.129 103.046Z" fill="#263238"/>
<path d="M230.617 103.013L230.769 103.521C232.122 103.455 233.066 103.231 233.468 102.802C233.473 102.632 233.453 102.463 233.409 102.3C232.542 102.74 231.589 102.984 230.617 103.013Z" fill="white"/>
<path d="M230.921 104.768C232.36 104.702 233.006 104.201 233.284 103.66C232.739 103.693 232.204 103.825 231.706 104.049C231.376 104.202 231.102 104.453 230.921 104.768Z" fill="#DE5753"/>
<path d="M238.781 99.8514C238.781 99.8514 236.709 95.6934 237.224 92.5914C237.224 92.5914 227.72 88.0902 226.703 97.9308C226.703 97.9308 226.235 89.1198 234.676 89.3838C243.118 89.6478 242.411 101.983 237.851 105.422C237.851 105.428 240.062 102.445 238.781 99.8514Z" fill="#263238"/>
<path d="M237.923 100.841C238.004 100.278 238.303 99.7681 238.756 99.4235C239.21 99.0788 239.781 98.9267 240.346 99.0001C241.857 99.2509 242.411 102.412 238.59 102.96C238.042 103.033 237.765 102.485 237.923 100.841Z" fill="#EEC1BB"/>
<path d="M231.799 98.3005C231.799 98.3005 233.013 97.2379 233.937 98.1091C233.232 98.2439 232.516 98.3081 231.799 98.3005Z" fill="#263238"/>
<path d="M229.482 98.2411C229.482 98.2411 228.38 97.0663 227.37 97.8385C228.059 98.0406 228.767 98.1754 229.482 98.2411Z" fill="#263238"/>
<path d="M241.25 114.18C241.25 114.18 235.739 118.648 230.617 118.576C225.496 118.503 223.687 112.735 223.687 112.735C223.687 112.735 231.66 110.411 241.25 114.18Z" fill="#EEC1BB"/>
<path d="M243.956 122.542C244.451 119.902 245.019 117.262 245.672 114.893L240.781 113.362C239.3 116.259 238.229 119.349 237.6 122.542H243.956Z" fill="white"/>
<path d="M223.569 122.542C224.156 117.711 224.196 112.088 224.196 112.088L220.269 112.471C219.298 115.111 218.784 118.754 218.533 122.542H223.569Z" fill="white"/>
<path d="M231.799 90.1627C230.438 90.2786 229.147 90.8138 228.103 91.6944C227.059 92.5751 226.314 93.7579 225.971 95.0797C227.41 94.2302 229.092 93.8843 230.749 94.0963C231.049 93.474 231.4 92.8779 231.799 92.3143C231.505 92.8866 231.311 93.5049 231.225 94.1425C232.117 94.2423 232.999 94.4123 233.865 94.6507C234.109 94.1744 234.413 93.7309 234.769 93.3307C234.589 93.8175 234.489 94.33 234.472 94.8487C235.129 95.0429 235.775 95.2742 236.406 95.5417C236.648 94.3174 237.152 93.1601 237.884 92.1493C237.884 92.1493 236.643 89.7139 231.799 90.1627Z" fill="#263238"/>
<path d="M238.828 102.201C238.811 102.18 238.795 102.158 238.781 102.135C238.65 101.896 238.601 101.62 238.643 101.35C238.715 100.775 239.573 99.3697 240.24 100.188C240.392 100.403 240.462 100.665 240.438 100.927C240.424 101.286 240.327 101.636 240.154 101.95C240.091 102.092 239.994 102.216 239.872 102.313C239.75 102.409 239.607 102.475 239.455 102.505C239.333 102.512 239.211 102.488 239.102 102.435C238.992 102.382 238.897 102.301 238.828 102.201Z" fill="white"/>
<path opacity="0.2" d="M238.828 102.201C238.811 102.18 238.795 102.158 238.781 102.135C238.65 101.896 238.601 101.62 238.643 101.35C238.715 100.775 239.573 99.3697 240.24 100.188C240.392 100.403 240.462 100.665 240.438 100.927C240.424 101.286 240.327 101.636 240.154 101.95C240.091 102.092 239.994 102.216 239.872 102.313C239.75 102.409 239.607 102.475 239.455 102.505C239.333 102.512 239.211 102.488 239.102 102.435C238.992 102.382 238.897 102.301 238.828 102.201Z" fill="black"/>
<path d="M238.92 101.297C238.92 101.297 239.508 100.056 239.904 100.287C240.3 100.518 240.141 101.607 239.758 101.818C239.521 101.958 239.34 102.178 239.25 102.439C239.25 102.439 237.62 104.419 237.191 104.214V103.66C237.979 103.051 238.578 102.232 238.92 101.297Z" fill="white"/>
<path d="M228.518 239.686H232.564L239.831 138.547H234.465L228.518 239.686Z" fill="#263238"/>
<path opacity="0.4" d="M228.518 239.686H232.564L239.474 143.57L239.831 138.706H234.465L234.175 143.57L228.518 239.686Z" fill="white"/>
<path opacity="0.2" d="M234.175 143.326H239.474L239.831 138.706H234.465L234.175 143.326Z" fill="black"/>
<path d="M198.845 239.686H202.891L203.551 138.547H198.185L198.845 239.686Z" fill="#263238"/>
<path opacity="0.5" d="M198.185 138.706L198.29 155.027L198.845 239.686H202.891L203.445 155.027L203.551 138.706H198.185Z" fill="white"/>
<path opacity="0.2" d="M198.185 138.706L198.29 155.206H203.445L203.551 138.706H198.185Z" fill="black"/>
<path d="M155.918 239.686H159.964L167.231 138.547H161.865L155.918 239.686Z" fill="#263238"/>
<path opacity="0.5" d="M155.918 239.686H159.964L166.874 143.57L167.231 138.706H161.865L161.575 143.57L155.918 239.686Z" fill="white"/>
<path opacity="0.2" d="M161.575 143.326H166.875L167.231 138.706H161.865L161.575 143.326Z" fill="black"/>
<path d="M274.771 239.686H278.817L272.877 138.547H267.511L274.771 239.686Z" fill="#263238"/>
<path opacity="0.5" d="M267.511 138.706L267.868 143.57L274.778 239.686H278.817L273.167 143.57L272.877 138.706H267.511Z" fill="white"/>
<path opacity="0.2" d="M272.877 138.706H267.511L267.868 143.326H273.167L272.877 138.706Z" fill="black"/>
<path d="M275.675 141.075L159.034 141.075C158.846 141.075 158.661 141.038 158.488 140.967C158.315 140.895 158.158 140.79 158.026 140.658C157.893 140.525 157.788 140.368 157.717 140.195C157.645 140.022 157.608 139.837 157.608 139.649V136.013H277.121V139.649C277.121 139.838 277.083 140.025 277.01 140.2C276.938 140.374 276.831 140.532 276.696 140.665C276.562 140.797 276.402 140.902 276.227 140.972C276.052 141.043 275.864 141.078 275.675 141.075Z" fill="white"/>
<path opacity="0.6" d="M275.675 141.075L159.034 141.075C158.846 141.075 158.661 141.038 158.488 140.967C158.315 140.895 158.158 140.79 158.026 140.658C157.893 140.525 157.788 140.368 157.717 140.195C157.645 140.022 157.608 139.837 157.608 139.649V136.013H277.121V139.649C277.121 139.838 277.083 140.025 277.01 140.2C276.938 140.374 276.831 140.532 276.696 140.665C276.562 140.797 276.402 140.902 276.227 140.972C276.052 141.043 275.864 141.078 275.675 141.075Z" fill="white"/>
<path opacity="0.2" d="M157.608 138.541L277.121 138.541V136.006L157.608 136.006V138.541Z" fill="black"/>
<path d="M155.1 136.673H279.636C279.823 136.673 280.008 136.636 280.181 136.564C280.354 136.493 280.511 136.388 280.644 136.255C280.776 136.123 280.881 135.966 280.953 135.793C281.024 135.62 281.061 135.434 281.061 135.247C281.061 134.869 280.911 134.505 280.644 134.237C280.377 133.968 280.014 133.817 279.636 133.815H155.1C154.721 133.817 154.359 133.968 154.092 134.237C153.825 134.505 153.675 134.869 153.675 135.247C153.675 135.434 153.711 135.62 153.783 135.793C153.855 135.966 153.96 136.123 154.092 136.255C154.224 136.388 154.382 136.493 154.555 136.564C154.728 136.636 154.913 136.673 155.1 136.673Z" fill="white"/>
<path opacity="0.6" d="M155.1 136.673H279.636C279.823 136.673 280.008 136.636 280.181 136.564C280.354 136.493 280.511 136.388 280.644 136.255C280.776 136.123 280.881 135.966 280.953 135.793C281.024 135.62 281.061 135.434 281.061 135.247C281.061 134.869 280.911 134.505 280.644 134.237C280.377 133.968 280.014 133.817 279.636 133.815H155.1C154.721 133.817 154.359 133.968 154.092 134.237C153.825 134.505 153.675 134.869 153.675 135.247C153.675 135.434 153.711 135.62 153.783 135.793C153.855 135.966 153.96 136.123 154.092 136.255C154.224 136.388 154.382 136.493 154.555 136.564C154.728 136.636 154.913 136.673 155.1 136.673Z" fill="white"/>
<path d="M228.565 133.815L227.911 131.36H201.148L188.826 132.587L188.357 133.815H228.565Z" fill="#263238"/>
<path opacity="0.4" d="M201.148 131.36V133.815H228.565L227.911 131.36H201.148Z" fill="black"/>
<path d="M277.979 130.225C278.033 131.456 277.807 132.684 277.319 133.815H248.939V133.155H249.513V127.314H248.939V126.654H277.319C277.797 127.782 278.023 129.001 277.979 130.225Z" fill="#263238"/>
<path opacity="0.2" d="M277.979 130.225C278.033 131.456 277.807 132.684 277.319 133.815H248.939V133.155H249.513V127.314H248.939V126.654H277.319C277.797 127.782 278.023 129.001 277.979 130.225Z" fill="white"/>
<path opacity="0.2" d="M262.799 130.225C262.853 131.456 262.627 132.684 262.139 133.815H248.939V133.155H249.513V127.314H248.939V126.654H262.139C262.617 127.782 262.843 129.001 262.799 130.225Z" fill="black"/>
<path opacity="0.8" d="M261.4 130.225C261.444 131.225 261.261 132.222 260.865 133.142H249.52V127.301H260.865C261.256 128.224 261.438 129.223 261.4 130.225Z" fill="white"/>
<path opacity="0.6" d="M273.359 130.225C273.413 131.456 273.187 132.683 272.699 133.815H267.419C267.907 132.683 268.133 131.456 268.079 130.225C268.126 128.992 267.901 127.763 267.419 126.628H272.699C273.181 127.763 273.406 128.992 273.359 130.225Z" fill="white"/>
<path d="M280.5 123.037C280.554 124.269 280.328 125.496 279.84 126.628H251.46V125.968H252.034V120.12H251.46V119.46H279.84C280.319 120.59 280.544 121.811 280.5 123.037Z" fill="white"/>
<path opacity="0.2" d="M265.32 123.037C265.374 124.269 265.148 125.496 264.66 126.628H251.46V125.968H252.034V120.12H251.46V119.46H264.66C265.139 120.59 265.364 121.811 265.32 123.037Z" fill="black"/>
<path opacity="0.8" d="M263.928 123.037C263.972 124.038 263.789 125.035 263.393 125.954H252.048V120.12H263.393C263.783 121.042 263.965 122.037 263.928 123.037Z" fill="white"/>
<path opacity="0.2" d="M275.88 123.037C275.934 124.269 275.708 125.496 275.22 126.628H269.94C270.428 125.496 270.654 124.269 270.6 123.037C270.647 121.804 270.422 120.576 269.94 119.44H275.22C275.702 120.576 275.927 121.804 275.88 123.037Z" fill="black"/>
<path d="M228.941 48.246H209.095C207.99 48.246 207.095 49.1413 207.095 50.2458V70.092C207.095 71.1964 207.99 72.0918 209.095 72.0918H228.941C230.045 72.0918 230.941 71.1964 230.941 70.092V50.2458C230.941 49.1413 230.045 48.246 228.941 48.246Z" fill="white"/>
<path d="M216.289 69.96C216.289 69.96 217.503 76.6788 226.38 79.7082C226.38 79.7082 221.338 74.8374 221.338 69.96H216.289Z" fill="white"/>
<path d="M213.622 55.704H224.42" stroke="#373737" stroke-width="2" stroke-miterlimit="10"/>
<path d="M217.213 53.0904C216.788 57.2392 217.779 61.4098 220.024 64.9242" stroke="#373737" stroke-width="2" stroke-miterlimit="10"/>
<path d="M221.555 64.1915C221.555 64.1915 224.42 63.7098 223.707 61.0962C223.08 58.7796 216.658 57.5388 215.028 61.578C213.774 64.6668 216.803 64.1586 218.566 63.1884C221.641 61.4856 222.275 57.618 222.275 57.618" stroke="#373737" stroke-width="2" stroke-miterlimit="10"/>
<path d="M169.085 69.96C169.085 69.96 170.3 76.6788 179.177 79.7082C179.177 79.7082 174.134 74.8374 174.134 69.96H169.085Z" fill="white"/>
<path opacity="0.6" d="M169.085 69.96C169.085 69.96 170.3 76.6788 179.177 79.7082C179.177 79.7082 174.134 74.8374 174.134 69.96H169.085Z" fill="white"/>
<path d="M181.757 48.246H161.911C160.807 48.246 159.911 49.1413 159.911 50.2458V70.092C159.911 71.1964 160.807 72.0918 161.911 72.0918H181.757C182.862 72.0918 183.757 71.1964 183.757 70.092V50.2458C183.757 49.1413 182.862 48.246 181.757 48.246Z" fill="white"/>
<path opacity="0.6" d="M181.757 48.246H161.911C160.807 48.246 159.911 49.1413 159.911 50.2458V70.092C159.911 71.1964 160.807 72.0918 161.911 72.0918H181.757C182.862 72.0918 183.757 71.1964 183.757 70.092V50.2458C183.757 49.1413 182.862 48.246 181.757 48.246Z" fill="white"/>
<path d="M174.24 64.1916L173.435 61.9278H170.313L169.508 64.1916H167.726L171.065 54.813H172.682L176.022 64.1916H174.24ZM171.871 57.519L170.94 60.2646H172.887L171.871 57.519Z" fill="#373737"/>
<path d="M230.135 122.483L221.991 130.02L223.12 130.937L231 123.42C231.117 123.297 231.182 123.134 231.182 122.965C231.182 122.795 231.117 122.632 231 122.509C230.883 122.401 230.731 122.339 230.573 122.335C230.414 122.33 230.259 122.382 230.135 122.483Z" fill="white"/>
<path d="M218.671 128.614L223.456 126.436C223.456 126.436 227.462 125.69 229.112 126.06C230.762 126.43 234.425 131.399 234.34 132C234.254 132.601 227.997 134.092 227.858 134.092C227.72 134.092 225.014 132.554 225.014 132.554L220.585 134.092L218.671 128.614Z" fill="#E4897B"/>
<path d="M177.23 232.94L182.483 232.221L183.216 219.721L177.962 220.447L177.23 232.94Z" fill="#EBB376"/>
<path opacity="0.2" d="M177.962 220.447L183.216 219.727L182.794 226.875L177.553 227.33L177.962 220.447Z" fill="black"/>
<path d="M177.441 159.469L176.121 151.437L146.645 149.675C146.645 149.675 143.51 166.393 145.919 170.848C150.223 178.801 173.389 174.808 180.167 175.573C176.114 192.146 176.51 224.532 176.51 224.532L186.193 225.271C186.193 225.271 193.644 190.37 195.149 173.791C196.198 162.598 186.932 162.881 177.441 159.469Z" fill="white"/>
<path d="M175.408 224.987L187.044 225.753L188.041 220.77L175.256 220.176L175.408 224.987Z" fill="white"/>
<path opacity="0.2" d="M175.408 224.987L187.044 225.753L188.041 220.77L175.256 220.176L175.408 224.987Z" fill="white"/>
<path d="M182.879 231.587L176.939 231.218C176.891 231.212 176.842 231.217 176.795 231.23C176.748 231.244 176.704 231.267 176.666 231.297C176.628 231.328 176.596 231.366 176.573 231.409C176.55 231.452 176.535 231.499 176.53 231.548L175.949 236.234C175.935 236.48 176.017 236.722 176.179 236.908C176.34 237.095 176.568 237.21 176.814 237.23C178.893 237.323 179.883 237.263 182.503 237.409C184.82 237.649 187.152 237.724 189.479 237.633C191.697 237.415 191.426 235.237 190.469 235.132C188.199 234.874 185.189 233.204 183.777 231.944C183.526 231.727 183.21 231.602 182.879 231.587Z" fill="#263238"/>
<path d="M189.354 232.894L194.647 233.284L197.967 221.212L192.68 220.829L189.354 232.894Z" fill="#EBB376"/>
<path d="M195.36 233.521C195.36 233.521 195.36 233.521 195.36 233.561H195.406C195.825 233.793 196.267 233.979 196.726 234.115C197.058 234.24 197.424 234.24 197.756 234.115C197.865 234.053 197.954 233.961 198.012 233.85C198.071 233.739 198.096 233.613 198.086 233.488C198.092 233.41 198.08 233.331 198.049 233.258C198.018 233.186 197.969 233.122 197.908 233.072C197.433 232.882 196.906 232.868 196.423 233.033C196.801 232.776 197.078 232.396 197.208 231.957C197.216 231.853 197.188 231.749 197.129 231.663C197.071 231.577 196.984 231.513 196.885 231.482C196.803 231.441 196.712 231.42 196.621 231.42C196.529 231.42 196.439 231.441 196.357 231.482C195.697 231.832 195.459 233.317 195.439 233.396C195.411 233.399 195.382 233.399 195.353 233.396C195.339 233.414 195.331 233.437 195.332 233.46C195.333 233.483 195.343 233.505 195.36 233.521ZM195.749 233.224L195.631 233.264C195.756 232.775 196.027 231.977 196.409 231.772C196.451 231.746 196.498 231.729 196.547 231.723C196.596 231.716 196.646 231.719 196.693 231.733H196.753C196.918 231.799 196.937 231.898 196.924 231.97C196.911 232.32 196.297 232.94 195.776 233.224H195.749ZM195.749 233.501C196.449 233.284 197.419 233.099 197.729 233.317C197.761 233.339 197.786 233.371 197.801 233.407C197.817 233.443 197.821 233.483 197.815 233.521C197.822 233.6 197.807 233.679 197.772 233.75C197.737 233.821 197.684 233.881 197.617 233.924C197.34 234.089 196.68 233.93 195.796 233.501H195.749Z" fill="white"/>
<path opacity="0.2" d="M192.681 220.829L197.961 221.219L196.066 228.116L190.839 227.476L192.681 220.829Z" fill="black"/>
<path d="M199.756 227.264L190.436 224.525C190.436 224.525 196 193.123 201.656 182.233C201.234 182.094 200.673 181.916 199.98 181.711C198.733 181.335 197.076 180.866 195.129 180.325C181.586 176.57 154.136 169.528 154.136 169.528L166.676 157.826C166.676 157.826 216.625 165.442 217.661 178.603C218.143 184.932 199.756 227.264 199.756 227.264Z" fill="white"/>
<path d="M189.235 224.737L200.455 227.905L202.468 223.238L190.087 219.998L189.235 224.737Z" fill="white"/>
<path opacity="0.2" d="M189.235 224.737L200.455 227.905L202.468 223.238L190.087 219.998L189.235 224.737Z" fill="white"/>
<path d="M195.169 232.749L189.42 231.145C189.325 231.116 189.222 231.125 189.133 231.171C189.044 231.216 188.977 231.295 188.945 231.389L187.44 235.858C187.407 235.976 187.398 236.1 187.414 236.223C187.429 236.345 187.469 236.463 187.53 236.57C187.591 236.677 187.673 236.77 187.771 236.845C187.869 236.92 187.981 236.975 188.1 237.006C190.08 237.534 191.096 237.666 193.624 238.366C195.841 239.083 198.106 239.643 200.402 240.042C202.613 240.293 202.805 238.102 201.887 237.798C199.723 237.072 197.135 234.821 196.013 233.284C195.801 233.015 195.503 232.826 195.169 232.749Z" fill="#263238"/>
<path d="M183.011 232.234H183.117C183.117 232.234 183.236 232.274 183.255 232.287H183.302C183.75 232.427 184.213 232.517 184.681 232.558C185.031 232.623 185.392 232.552 185.691 232.36C185.78 232.278 185.845 232.173 185.879 232.056C185.913 231.94 185.914 231.817 185.882 231.7C185.872 231.621 185.843 231.546 185.797 231.482C185.751 231.417 185.689 231.365 185.618 231.33C185.102 231.262 184.578 231.379 184.14 231.66C184.455 231.335 184.641 230.905 184.661 230.452C184.641 230.345 184.586 230.248 184.505 230.175C184.424 230.102 184.321 230.058 184.212 230.05C184.11 230.032 184.006 230.035 183.905 230.059C183.804 230.083 183.709 230.127 183.625 230.188C183.071 230.663 182.965 232.168 182.965 232.254L183.011 232.234ZM183.579 231.931L183.467 231.99C183.44 231.415 183.597 230.846 183.915 230.366C183.952 230.333 183.994 230.306 184.041 230.289C184.087 230.272 184.137 230.265 184.186 230.267H184.245C184.424 230.267 184.463 230.386 184.47 230.459C184.353 231.038 184.038 231.558 183.579 231.931ZM183.651 232.188C184.311 231.838 185.202 231.449 185.539 231.607C185.574 231.623 185.604 231.648 185.627 231.679C185.649 231.71 185.662 231.747 185.664 231.785C185.685 231.862 185.686 231.942 185.666 232.018C185.646 232.094 185.607 232.164 185.552 232.221C185.288 232.452 184.589 232.432 183.651 232.188Z" fill="white"/>
<path d="M198.983 97.7592C198.858 98.0364 198.719 98.3136 198.574 98.571C197.728 100.082 196.444 101.301 194.891 102.069C194.5 102.264 194.094 102.43 193.677 102.564C192.074 103.107 190.337 103.109 188.733 102.569C187.13 102.029 185.748 100.976 184.8 99.5742C182.272 95.9838 182.959 92.4528 183.632 86.3742C183.765 84.9544 184.26 83.5923 185.069 82.4177C185.878 81.2432 186.974 80.2952 188.253 79.664C189.532 79.0329 190.951 78.7395 192.375 78.812C193.799 78.8844 195.181 79.3202 196.39 80.0778C201.901 83.49 201.201 92.5716 198.983 97.7592Z" fill="#E4897B"/>
<path opacity="0.2" d="M194.892 102.069C194.5 102.264 194.094 102.43 193.677 102.564C192.58 102.927 191.415 103.041 190.268 102.899C189.121 102.756 188.019 102.36 187.044 101.739C187.435 101.062 187.912 100.439 188.463 99.8844C190.771 99.9804 193.003 100.739 194.892 102.069Z" fill="black"/>
<path d="M178.986 103.679C180.028 107.6 186.754 110.741 186.754 110.741C186.754 110.741 191.288 112.18 191.255 110.451C189.229 108.61 188.813 106.841 189.235 105.171C189.533 104.17 190.024 103.237 190.681 102.425C191.033 101.966 191.41 101.525 191.809 101.105L187.849 90.5124C186.417 94.9146 183.203 102.571 178.986 103.679Z" fill="#E4897B"/>
<path d="M198.125 84.48C198.125 84.48 199.828 90.2154 193.948 94.3338C193.948 94.3338 191.479 99.6138 190.1 100.274C188.72 100.934 185.605 100.538 184.556 100.274C183.506 100.01 178.075 95.5086 179.645 84.9222C181.216 74.3358 190.1 77.6622 190.1 77.6622C190.1 77.6622 193.136 75.0222 198.779 78.3222C203.491 81.0546 202.567 86.163 198.125 84.48Z" fill="#263238"/>
<path d="M193.149 91.5882C193.17 92.1722 193.32 92.7443 193.588 93.2635C193.856 93.7827 194.236 94.2361 194.7 94.5912C195.835 95.3172 196.931 93.7332 197.056 91.8984C197.162 90.2682 196.713 87.8724 195.353 87.9384C193.994 88.0044 192.997 89.8986 193.149 91.5882Z" fill="#E4897B"/>
<path d="M198.852 111.335C198.852 111.335 190.509 101.99 179.362 102.953C168.214 103.917 157.08 112.53 151.49 126.06C145.9 139.59 144.263 160.043 144.263 160.043C144.263 160.043 162.301 165.211 180.642 160.499C184.473 143.367 190.598 126.83 198.852 111.335Z" fill="#263238"/>
<path d="M198.851 111.335C201.67 114.259 209.715 127.664 212.005 128.165C214.295 128.667 217.628 126.608 220.235 127.393C222.842 128.179 225.515 130.555 224.921 132.079C224.327 133.604 218.189 137.663 210.58 137.881C204.065 138.072 190.337 121.849 190.337 121.849C190.337 115.579 198.851 111.335 198.851 111.335Z" fill="#263238"/>
<path d="M199.201 100.214V99.5544C199.358 99.5494 199.511 99.5131 199.653 99.4475C199.795 99.382 199.923 99.2886 200.028 99.1729C200.133 99.0571 200.214 98.9214 200.266 98.7738C200.318 98.6262 200.34 98.4697 200.33 98.3136C200.33 97.3302 197.888 95.205 196.37 94.0962L196.753 93.5616C197.188 93.8718 201.023 96.6768 201.016 98.3136C201.027 98.5589 200.988 98.8037 200.902 99.0335C200.815 99.2633 200.683 99.4733 200.514 99.6508C200.344 99.8284 200.141 99.9698 199.915 100.067C199.69 100.163 199.447 100.214 199.201 100.214Z" fill="#263238"/>
<path d="M198.818 91.3572C198.818 94.0896 197.221 96.3072 195.261 96.3072C193.301 96.3072 191.704 94.0896 191.704 91.3572C191.704 88.6248 193.294 86.4138 195.261 86.4138C197.228 86.4138 198.818 88.6248 198.818 91.3572Z" fill="white"/>
<path opacity="0.2" d="M198.818 91.3572C198.818 94.0896 197.221 96.3072 195.261 96.3072C193.301 96.3072 191.704 94.0896 191.704 91.3572C191.704 88.6248 193.294 86.4138 195.261 86.4138C197.228 86.4138 198.818 88.6248 198.818 91.3572Z" fill="black"/>
<path d="M196.509 94.6176C197.803 94.6176 198.852 93.1579 198.852 91.3572C198.852 89.5565 197.803 88.0968 196.509 88.0968C195.215 88.0968 194.166 89.5565 194.166 91.3572C194.166 93.1579 195.215 94.6176 196.509 94.6176Z" fill="white"/>
<path d="M197.624 88.9944C197.624 88.9944 197.809 74.7252 187.064 77.187C187.064 77.187 195.096 78.1572 195.644 89.3838L197.624 88.9944Z" fill="white"/>
<path d="M199.375 99.3581L198.829 99.4526C198.646 99.4843 198.523 99.6584 198.554 99.8416L198.606 100.141C198.638 100.324 198.812 100.447 198.995 100.415L199.541 100.321C199.725 100.289 199.847 100.115 199.816 99.9316L199.764 99.6325C199.732 99.4493 199.558 99.3265 199.375 99.3581Z" fill="#263238"/>
<path d="M139.524 173.039H183.691C184.566 173.039 185.406 173.387 186.025 174.005C186.643 174.624 186.991 175.464 186.991 176.339V180.754H136.224V176.339C136.224 175.464 136.572 174.624 137.19 174.005C137.809 173.387 138.649 173.039 139.524 173.039Z" fill="white"/>
<path opacity="0.3" d="M139.524 173.039H183.691C184.566 173.039 185.406 173.387 186.025 174.005C186.643 174.624 186.991 175.464 186.991 176.339V180.754H136.224V176.339C136.224 175.464 136.572 174.624 137.19 174.005C137.809 173.387 138.649 173.039 139.524 173.039Z" fill="black"/>
<path d="M131.01 143.491H149.16C154.474 143.491 158.783 139.182 158.783 133.868V126.766C158.783 121.452 154.474 117.143 149.16 117.143H131.01C125.695 117.143 121.387 121.452 121.387 126.766V133.868C121.387 139.182 125.695 143.491 131.01 143.491Z" fill="white"/>
<g opacity="0.3">
<path d="M131.01 143.491H149.16C154.474 143.491 158.783 139.182 158.783 133.868V126.766C158.783 121.452 154.474 117.143 149.16 117.143H131.01C125.695 117.143 121.387 121.452 121.387 126.766V133.868C121.387 139.182 125.695 143.491 131.01 143.491Z" fill="black"/>
</g>
<path d="M138.158 224.677L157.179 222.809V196.086H164.716V222.803L183.803 224.677C184.719 224.766 185.569 225.192 186.187 225.873C186.806 226.554 187.149 227.44 187.15 228.36V231.218H134.818V228.36C134.819 227.441 135.161 226.555 135.778 225.875C136.395 225.194 137.243 224.767 138.158 224.677Z" fill="#263238"/>
<path opacity="0.2" d="M138.158 224.677L157.179 222.809V196.086H164.716V222.803L183.803 224.677C184.719 224.766 185.569 225.192 186.187 225.873C186.806 226.554 187.149 227.44 187.15 228.36V231.218H134.818V228.36C134.819 227.441 135.161 226.555 135.778 225.875C136.395 225.194 137.243 224.767 138.158 224.677Z" fill="white"/>
<path d="M185.94 239.621C188.628 239.185 190.453 236.653 190.017 233.965C189.58 231.277 187.048 229.452 184.36 229.888C181.672 230.325 179.847 232.857 180.284 235.545C180.72 238.232 183.252 240.058 185.94 239.621Z" fill="#263238"/>
<path d="M140.321 238.249C142.247 236.324 142.247 233.202 140.321 231.277C138.396 229.351 135.274 229.351 133.349 231.277C131.424 233.202 131.424 236.324 133.349 238.249C135.274 240.175 138.396 240.175 140.321 238.249Z" fill="#263238"/>
<path d="M163.284 201.828H158.605C157.882 201.828 157.188 201.541 156.677 201.03C156.166 200.519 155.879 199.825 155.879 199.102V178.022H166.01V199.096C166.011 199.454 165.941 199.809 165.804 200.141C165.668 200.472 165.467 200.774 165.214 201.027C164.961 201.281 164.66 201.483 164.329 201.62C163.997 201.757 163.642 201.828 163.284 201.828Z" fill="#263238"/>
<path opacity="0.3" d="M163.284 201.828H158.605C157.882 201.828 157.188 201.541 156.677 201.03C156.166 200.519 155.879 199.825 155.879 199.102V178.022H166.01V199.096C166.011 199.454 165.941 199.809 165.804 200.141C165.668 200.472 165.467 200.774 165.214 201.027C164.961 201.281 164.66 201.483 164.329 201.62C163.997 201.757 163.642 201.828 163.284 201.828Z" fill="white"/>
<path d="M142.93 136.25C142.93 136.25 141.491 171.89 151.411 178.022H140.085C140.085 178.022 131.307 165.884 133.789 136.25H142.93Z" fill="#263238"/>
<path opacity="0.3" d="M142.93 136.25C142.93 136.25 141.491 171.89 151.411 178.022H140.085C140.085 178.022 131.307 165.884 133.789 136.25H142.93Z" fill="white"/>
<path d="M187.783 176.9H135.439C134.706 176.9 134.112 177.494 134.112 178.226V179.428C134.112 180.16 134.706 180.754 135.439 180.754H187.783C188.516 180.754 189.11 180.16 189.11 179.428V178.226C189.11 177.494 188.516 176.9 187.783 176.9Z" fill="#263238"/>
<path opacity="0.6" d="M187.783 176.9H135.439C134.706 176.9 134.112 177.494 134.112 178.226V179.428C134.112 180.16 134.706 180.754 135.439 180.754H187.783C188.516 180.754 189.11 180.16 189.11 179.428V178.226C189.11 177.494 188.516 176.9 187.783 176.9Z" fill="white"/>
<path d="M143.075 125.149H132.825C129.821 125.149 127.387 127.584 127.387 130.588V134.594C127.387 137.597 129.821 140.032 132.825 140.032H143.075C146.078 140.032 148.513 137.597 148.513 134.594V130.588C148.513 127.584 146.078 125.149 143.075 125.149Z" fill="#263238"/>
<path opacity="0.2" d="M143.075 125.149H132.825C129.821 125.149 127.387 127.584 127.387 130.588V134.594C127.387 137.597 129.821 140.032 132.825 140.032H143.075C146.078 140.032 148.513 137.597 148.513 134.594V130.588C148.513 127.584 146.078 125.149 143.075 125.149Z" fill="white"/>
</svg>
